<svg class="marks" width="857" height="568" viewBox="0 0 857 568" version="1.1" xmlns="http://www.w3.org/2000/svg" xmlns:xlink="http://www.w3.org/1999/xlink"><rect width="857" height="568" style="fill: #ffffff;"></rect><g transform="translate(50,77)"><g class="mark-group role-frame root"><g transform="translate(0,0)"><path class="background" d="M0.5,0.5h800v450h-800Z" style="fill: none; stroke: #ddd;"></path><g><g class="mark-group role-axis"><g transform="translate(0.5,450.5)"><path class="background" d="M0,0h0v0h0Z" style="pointer-events: none; fill: none;"></path><g><g class="mark-rule role-axis-grid" style="pointer-events: none;"><line transform="translate(19,-450)" x2="0" y2="450" style="fill: none; stroke: #ddd; stroke-width: 1; opacity: 1;"></line><line transform="translate(114,-450)" x2="0" y2="450" style="fill: none; stroke: #ddd; stroke-width: 1; opacity: 1;"></line><line transform="translate(209,-450)" x2="0" y2="450" style="fill: none; stroke: #ddd; stroke-width: 1; opacity: 1;"></line><line transform="translate(305,-450)" x2="0" y2="450" style="fill: none; stroke: #ddd; stroke-width: 1; opacity: 1;"></line><line transform="translate(400,-450)" x2="0" y2="450" style="fill: none; stroke: #ddd; stroke-width: 1; opacity: 1;"></line><line transform="translate(496,-450)" x2="0" y2="450" style="fill: none; stroke: #ddd; stroke-width: 1; opacity: 1;"></line><line transform="translate(591,-450)" x2="0" y2="450" style="fill: none; stroke: #ddd; stroke-width: 1; opacity: 1;"></line><line transform="translate(687,-450)" x2="0" y2="450" style="fill: none; stroke: #ddd; stroke-width: 1; opacity: 1;"></line><line transform="translate(781,-450)" x2="0" y2="450" style="fill: none; stroke: #ddd; stroke-width: 1; opacity: 1;"></line></g></g><path class="foreground" d="" style="pointer-events: none; display: none; fill: none;"></path></g></g><g class="mark-group role-axis"><g transform="translate(0.5,0.5)"><path class="background" d="M0,0h0v0h0Z" style="pointer-events: none; fill: none;"></path><g><g class="mark-rule role-axis-grid" style="pointer-events: none;"><line transform="translate(0,450)" x2="800" y2="0" style="fill: none; stroke: #ddd; stroke-width: 1; opacity: 1;"></line><line transform="translate(0,394)" x2="800" y2="0" style="fill: none; stroke: #ddd; stroke-width: 1; opacity: 1;"></line><line transform="translate(0,338)" x2="800" y2="0" style="fill: none; stroke: #ddd; stroke-width: 1; opacity: 1;"></line><line transform="translate(0,281)" x2="800" y2="0" style="fill: none; stroke: #ddd; stroke-width: 1; opacity: 1;"></line><line transform="translate(0,225)" x2="800" y2="0" style="fill: none; stroke: #ddd; stroke-width: 1; opacity: 1;"></line><line transform="translate(0,169)" x2="800" y2="0" style="fill: none; stroke: #ddd; stroke-width: 1; opacity: 1;"></line><line transform="translate(0,113)" x2="800" y2="0" style="fill: none; stroke: #ddd; stroke-width: 1; opacity: 1;"></line><line transform="translate(0,56)" x2="800" y2="0" style="fill: none; stroke: #ddd; stroke-width: 1; opacity: 1;"></line><line transform="translate(0,0)" x2="800" y2="0" style="fill: none; stroke: #ddd; stroke-width: 1; opacity: 1;"></line></g></g><path class="foreground" d="" style="pointer-events: none; display: none; fill: none;"></path></g></g><g class="mark-group role-axis"><g transform="translate(0.5,450.5)"><path class="background" d="M0,0h0v0h0Z" style="pointer-events: none; fill: none;"></path><g><g class="mark-rule role-axis-tick" style="pointer-events: none;"><line transform="translate(19,0)" x2="0" y2="3" style="fill: none; stroke: #888; stroke-width: 1; opacity: 1;"></line><line transform="translate(114,0)" x2="0" y2="3" style="fill: none; stroke: #888; stroke-width: 1; opacity: 1;"></line><line transform="translate(209,0)" x2="0" y2="3" style="fill: none; stroke: #888; stroke-width: 1; opacity: 1;"></line><line transform="translate(305,0)" x2="0" y2="3" style="fill: none; stroke: #888; stroke-width: 1; opacity: 1;"></line><line transform="translate(400,0)" x2="0" y2="3" style="fill: none; stroke: #888; stroke-width: 1; opacity: 1;"></line><line transform="translate(496,0)" x2="0" y2="3" style="fill: none; stroke: #888; stroke-width: 1; opacity: 1;"></line><line transform="translate(591,0)" x2="0" y2="3" style="fill: none; stroke: #888; stroke-width: 1; opacity: 1;"></line><line transform="translate(687,0)" x2="0" y2="3" style="fill: none; stroke: #888; stroke-width: 1; opacity: 1;"></line><line transform="translate(781,0)" x2="0" y2="3" style="fill: none; stroke: #888; stroke-width: 1; opacity: 1;"></line></g><g class="mark-text role-axis-label" style="pointer-events: none;"><text text-anchor="middle" transform="translate(18.630481688674365,16)" style="font-family: Benton Gothic, sans; font-size: 11.5px; font-weight: normal; fill: #000; opacity: 1;">Jan 19</text><text text-anchor="middle" transform="translate(114.04385337825673,16)" style="font-family: Benton Gothic, sans; font-size: 11.5px; font-weight: normal; fill: #000; opacity: 1;">Jan 26</text><text text-anchor="middle" transform="translate(209.45722506783912,16)" style="font-family: Benton Gothic, sans; font-size: 11.5px; font-weight: normal; fill: #000; opacity: 1;">Feb 02</text><text text-anchor="middle" transform="translate(304.8705967574215,16)" style="font-family: Benton Gothic, sans; font-size: 11.5px; font-weight: normal; fill: #000; opacity: 1;">Feb 09</text><text text-anchor="middle" transform="translate(400.2839684470039,16)" style="font-family: Benton Gothic, sans; font-size: 11.5px; font-weight: normal; fill: #000; opacity: 1;">Feb 16</text><text text-anchor="middle" transform="translate(495.6973401365862,16)" style="font-family: Benton Gothic, sans; font-size: 11.5px; font-weight: normal; fill: #000; opacity: 1;">Feb 23</text><text text-anchor="middle" transform="translate(591.1107118261687,16)" style="font-family: Benton Gothic, sans; font-size: 11.5px; font-weight: normal; fill: #000; opacity: 1;">March</text><text text-anchor="middle" transform="translate(686.5240835157509,16)" style="font-family: Benton Gothic, sans; font-size: 11.5px; font-weight: normal; fill: #000; opacity: 1;">Mar 08</text><text text-anchor="middle" transform="translate(781.3695184690858,16)" style="font-family: Benton Gothic, sans; font-size: 11.5px; font-weight: normal; fill: #000; opacity: 1;">Mar 15</text></g><g class="mark-rule role-axis-domain" style="pointer-events: none;"><line transform="translate(0,0)" x2="800" y2="0" style="fill: none; stroke: #888; stroke-width: 1; opacity: 1;"></line></g><g class="mark-text role-axis-title" style="pointer-events: none;"><text text-anchor="middle" transform="translate(400,32.5)" style="font-family: Benton Gothic Bold, sans; font-size: 13px; font-weight: normal; fill: #000; opacity: 1;">Date</text></g></g><path class="foreground" d="" style="pointer-events: none; display: none; fill: none;"></path></g></g><g class="mark-group role-axis"><g transform="translate(0.5,0.5)"><path class="background" d="M0,0h0v0h0Z" style="pointer-events: none; fill: none;"></path><g><g class="mark-rule role-axis-tick" style="pointer-events: none;"><line transform="translate(0,450)" x2="-2" y2="0" style="fill: none; stroke: #888; stroke-width: 1; opacity: 1;"></line><line transform="translate(0,394)" x2="-2" y2="0" style="fill: none; stroke: #888; stroke-width: 1; opacity: 1;"></line><line transform="translate(0,338)" x2="-2" y2="0" style="fill: none; stroke: #888; stroke-width: 1; opacity: 1;"></line><line transform="translate(0,281)" x2="-2" y2="0" style="fill: none; stroke: #888; stroke-width: 1; opacity: 1;"></line><line transform="translate(0,225)" x2="-2" y2="0" style="fill: none; stroke: #888; stroke-width: 1; opacity: 1;"></line><line transform="translate(0,169)" x2="-2" y2="0" style="fill: none; stroke: #888; stroke-width: 1; opacity: 1;"></line><line transform="translate(0,113)" x2="-2" y2="0" style="fill: none; stroke: #888; stroke-width: 1; opacity: 1;"></line><line transform="translate(0,56)" x2="-2" y2="0" style="fill: none; stroke: #888; stroke-width: 1; opacity: 1;"></line><line transform="translate(0,0)" x2="-2" y2="0" style="fill: none; stroke: #888; stroke-width: 1; opacity: 1;"></line></g><g class="mark-text role-axis-label" style="pointer-events: none;"><text text-anchor="end" transform="translate(-4,453)" style="font-family: Benton Gothic, sans; font-size: 11.5px; font-weight: normal; fill: #000; opacity: 1;">0</text><text text-anchor="end" transform="translate(-4,396.75)" style="font-family: Benton Gothic, sans; font-size: 11.5px; font-weight: normal; fill: #000; opacity: 1;">500</text><text text-anchor="end" transform="translate(-4,340.5)" style="font-family: Benton Gothic, sans; font-size: 11.5px; font-weight: normal; fill: #000; opacity: 1;">1,000</text><text text-anchor="end" transform="translate(-4,284.25)" style="font-family: Benton Gothic, sans; font-size: 11.5px; font-weight: normal; fill: #000; opacity: 1;">1,500</text><text text-anchor="end" transform="translate(-4,228)" style="font-family: Benton Gothic, sans; font-size: 11.5px; font-weight: normal; fill: #000; opacity: 1;">2,000</text><text text-anchor="end" transform="translate(-4,171.75)" style="font-family: Benton Gothic, sans; font-size: 11.5px; font-weight: normal; fill: #000; opacity: 1;">2,500</text><text text-anchor="end" transform="translate(-4,115.5)" style="font-family: Benton Gothic, sans; font-size: 11.5px; font-weight: normal; fill: #000; opacity: 1;">3,000</text><text text-anchor="end" transform="translate(-4,59.25)" style="font-family: Benton Gothic, sans; font-size: 11.5px; font-weight: normal; fill: #000; opacity: 1;">3,500</text><text text-anchor="end" transform="translate(-4,3)" style="font-family: Benton Gothic, sans; font-size: 11.5px; font-weight: normal; fill: #000; opacity: 1;">4,000</text></g><g class="mark-rule role-axis-domain" style="pointer-events: none;"><line transform="translate(0,450)" x2="0" y2="-450" style="fill: none; stroke: #888; stroke-width: 1; opacity: 1;"></line></g></g><path class="foreground" d="" style="pointer-events: none; display: none; fill: none;"></path></g></g><g class="mark-rect role-mark marks"><path d="M-0.9999999812659759,449.55h12v0h-12Z" style="fill: #ec8431;"></path><path d="M12.630481688674365,450h12v0h-12Z" style="fill: #ec8431;"></path><path d="M26.260963358614703,449.2125h12v0h-12Z" style="fill: #ec8431;"></path><path d="M39.89144502855504,449.66249999999997h12v0h-12Z" style="fill: #ec8431;"></path><path d="M53.52192669849538,448.875h12v0h-12Z" style="fill: #ec8431;"></path><path d="M67.15240836843572,445.95h12v0h-12Z" style="fill: #ec8431;"></path><path d="M80.78289003837605,444.0375h12v0h-12Z" style="fill: #ec8431;"></path><path d="M94.41337170831639,438.6375h12v0h-12Z" style="fill: #ec8431;"></path><path d="M108.04385337825673,441.11249999999995h12v0h-12Z" style="fill: #ec8431;"></path><path d="M121.67433504819708,441.3375h12v0h-12Z" style="fill: #ec8431;"></path><path d="M135.3048167181374,442.6875h12v0h-12Z" style="fill: #ec8431;"></path><path d="M148.93529838807777,438.52500000000003h12v0h-12Z" style="fill: #ec8431;"></path><path d="M162.5657800580181,421.2h12v0h-12Z" style="fill: #ec8431;"></path><path d="M176.19626172795844,442.91249999999997h12v0h-12Z" style="fill: #ec8431;"></path><path d="M189.82674339789875,415.125h12v0h-12Z" style="fill: #ec8431;"></path><path d="M203.45722506783912,446.2875h12v0h-12Z" style="fill: #ec8431;"></path><path d="M217.08770673777946,435.2625h12v0h-12Z" style="fill: #ec8431;"></path><path d="M230.71818840771982,439.5375h12v0h-12Z" style="fill: #ec8431;"></path><path d="M244.34867007766013,438.1875h12v0.11250000000001137h-12Z" style="fill: #ec8431;"></path><path d="M257.97915174760044,441.5625h12v0.11250000000001137h-12Z" style="fill: #ec8431;"></path><path d="M271.6096334175408,439.5375h12v0h-12Z" style="fill: #ec8431;"></path><path d="M285.2401150874811,441.11249999999995h12v0h-12Z" style="fill: #ec8431;"></path><path d="M298.8705967574215,445.725h12v0.2249999999999659h-12Z" style="fill: #ec8431;"></path><path d="M312.5010784273618,445.83750000000003h12v0h-12Z" style="fill: #ec8431;"></path><path d="M326.13156009730216,439.3125h12v0h-12Z" style="fill: #ec8431;"></path><path d="M339.7620417672425,443.7h12v0h-12Z" style="fill: #ec8431;"></path><path d="M353.39252343718283,444.7125h12v0h-12Z" style="fill: #ec8431;"></path><path d="M367.0230051071232,445.5h12v0.44999999999998863h-12Z" style="fill: #ec8431;"></path><path d="M380.6534867770635,443.925h12v0.33749999999997726h-12Z" style="fill: #ec8431;"></path><path d="M394.2839684470039,447.3h12v0h-12Z" style="fill: #ec8431;"></path><path d="M407.9144501169442,446.2875h12v2.9249999999999545h-12Z" style="fill: #ec8431;"></path><path d="M421.5449317868845,446.0625h12v0.33749999999997726h-12Z" style="fill: #ec8431;"></path><path d="M435.1754134568249,442.57500000000005h12v0.3374999999999204h-12Z" style="fill: #ec8431;"></path><path d="M448.8058951267652,443.8125h12v0h-12Z" style="fill: #ec8431;"></path><path d="M462.43637679670553,421.65000000000003h12v0.33749999999997726h-12Z" style="fill: #ec8431;"></path><path d="M476.0668584666459,421.0875h12v0.3375000000000341h-12Z" style="fill: #ec8431;"></path><path d="M489.6973401365862,442.2375h12v0.2249999999999659h-12Z" style="fill: #ec8431;"></path><path d="M503.32782180652663,442.8h12v1.5749999999999886h-12Z" style="fill: #ec8431;"></path><path d="M516.9583034764669,443.02500000000003h12v1.349999999999966h-12Z" style="fill: #ec8431;"></path><path d="M530.5887851464072,438.1875h12v2.8125h-12Z" style="fill: #ec8431;"></path><path d="M544.2192668163476,429.075h12v13.950000000000045h-12Z" style="fill: #ec8431;"></path><path d="M557.8497484862879,421.875h12v18.44999999999999h-12Z" style="fill: #ec8431;"></path><path d="M571.4802301562283,410.0625h12v30.9375h-12Z" style="fill: #ec8431;"></path><path d="M585.1107118261687,420.1875h12v26.32499999999999h-12Z" style="fill: #ec8431;"></path><path d="M598.741193496109,381.0375h12v58.38749999999999h-12Z" style="fill: #ec8431;"></path><path d="M612.3716751660493,357.8625h12v83.92500000000001h-12Z" style="fill: #ec8431;"></path><path d="M626.0021568359897,319.6125h12v118.6875h-12Z" style="fill: #ec8431;"></path><path d="M639.63263850593,271.34999999999997h12v169.87500000000006h-12Z" style="fill: #ec8431;"></path><path d="M653.2631201758703,253.575h12v195.8625h-12Z" style="fill: #ec8431;"></path><path d="M666.8936018458106,277.5375h12v154.125h-12Z" style="fill: #ec8431;"></path><path d="M680.5240835157509,279.67499999999995h12v162.78750000000002h-12Z" style="fill: #ec8431;"></path><path d="M693.5866284494438,128.3625h12v318.375h-12Z" style="fill: #ec8431;"></path><path d="M707.2171101193842,117.45h12v316.91249999999997h-12Z" style="fill: #ec8431;"></path><path d="M720.8475917893245,75.2625h12v362.7h-12Z" style="fill: #ec8431;"></path><path d="M734.4780734592648,11.587500000000023h12v429.97499999999997h-12Z" style="fill: #ec8431;"></path><path d="M748.1085551292052,29.812500000000014h12v420.1875h-12Z" style="fill: #ec8431;"></path><path d="M761.7390367991455,262.91249999999997h12v187.08750000000003h-12Z" style="fill: #ec8431;"></path><path d="M775.3695184690858,423h12v27h-12Z" style="fill: #ec8431;"></path><path d="M789.0000001390262,449.4375h12v0.5625h-12Z" style="fill: #ec8431;"></path><path d="M-0.9999999812659759,449.55h12v0.44999999999998863h-12Z" style="fill: #3580b1;"></path><path d="M12.630481688674365,450h12v0h-12Z" style="fill: #3580b1;"></path><path d="M26.260963358614703,449.2125h12v0.7875000000000227h-12Z" style="fill: #3580b1;"></path><path d="M39.89144502855504,449.66249999999997h12v0.3375000000000341h-12Z" style="fill: #3580b1;"></path><path d="M53.52192669849538,448.875h12v1.125h-12Z" style="fill: #3580b1;"></path><path d="M67.15240836843572,445.95h12v4.050000000000011h-12Z" style="fill: #3580b1;"></path><path d="M80.78289003837605,444.0375h12v5.962499999999977h-12Z" style="fill: #3580b1;"></path><path d="M94.41337170831639,438.6375h12v11.362500000000011h-12Z" style="fill: #3580b1;"></path><path d="M108.04385337825673,441.11249999999995h12v8.887500000000045h-12Z" style="fill: #3580b1;"></path><path d="M121.67433504819708,441.3375h12v8.662500000000023h-12Z" style="fill: #3580b1;"></path><path d="M135.3048167181374,442.6875h12v7.3125h-12Z" style="fill: #3580b1;"></path><path d="M148.93529838807777,438.52500000000003h12v11.474999999999966h-12Z" style="fill: #3580b1;"></path><path d="M162.5657800580181,421.2h12v28.80000000000001h-12Z" style="fill: #3580b1;"></path><path d="M176.19626172795844,442.91249999999997h12v7.087500000000034h-12Z" style="fill: #3580b1;"></path><path d="M189.82674339789875,415.125h12v34.875h-12Z" style="fill: #3580b1;"></path><path d="M203.45722506783912,446.2875h12v3.7124999999999773h-12Z" style="fill: #3580b1;"></path><path d="M217.08770673777946,435.2625h12v14.737500000000011h-12Z" style="fill: #3580b1;"></path><path d="M230.71818840771982,439.5375h12v10.462499999999977h-12Z" style="fill: #3580b1;"></path><path d="M244.34867007766013,438.3h12v11.699999999999989h-12Z" style="fill: #3580b1;"></path><path d="M257.97915174760044,441.675h12v8.324999999999989h-12Z" style="fill: #3580b1;"></path><path d="M271.6096334175408,439.5375h12v10.462499999999977h-12Z" style="fill: #3580b1;"></path><path d="M285.2401150874811,441.11249999999995h12v8.887500000000045h-12Z" style="fill: #3580b1;"></path><path d="M298.8705967574215,445.95h12v4.050000000000011h-12Z" style="fill: #3580b1;"></path><path d="M312.5010784273618,445.83750000000003h12v4.162499999999966h-12Z" style="fill: #3580b1;"></path><path d="M326.13156009730216,439.3125h12v10.6875h-12Z" style="fill: #3580b1;"></path><path d="M339.7620417672425,443.7h12v6.300000000000011h-12Z" style="fill: #3580b1;"></path><path d="M353.39252343718283,444.7125h12v5.287500000000023h-12Z" style="fill: #3580b1;"></path><path d="M367.0230051071232,445.95h12v4.050000000000011h-12Z" style="fill: #3580b1;"></path><path d="M380.6534867770635,444.2625h12v5.737500000000011h-12Z" style="fill: #3580b1;"></path><path d="M394.2839684470039,447.3h12v2.6999999999999886h-12Z" style="fill: #3580b1;"></path><path d="M407.9144501169442,449.2125h12v0.7875000000000227h-12Z" style="fill: #3580b1;"></path><path d="M421.5449317868845,446.4h12v3.6000000000000227h-12Z" style="fill: #3580b1;"></path><path d="M435.1754134568249,442.91249999999997h12v7.087500000000034h-12Z" style="fill: #3580b1;"></path><path d="M448.8058951267652,443.8125h12v6.1875h-12Z" style="fill: #3580b1;"></path><path d="M462.43637679670553,421.9875h12v28.01249999999999h-12Z" style="fill: #3580b1;"></path><path d="M476.0668584666459,421.425h12v28.57499999999999h-12Z" style="fill: #3580b1;"></path><path d="M489.6973401365862,442.4625h12v7.537500000000023h-12Z" style="fill: #3580b1;"></path><path d="M503.32782180652663,444.375h12v5.625h-12Z" style="fill: #3580b1;"></path><path d="M516.9583034764669,444.375h12v5.625h-12Z" style="fill: #3580b1;"></path><path d="M530.5887851464072,441h12v9h-12Z" style="fill: #3580b1;"></path><path d="M544.2192668163476,443.02500000000003h12v6.974999999999966h-12Z" style="fill: #3580b1;"></path><path d="M557.8497484862879,440.325h12v9.675000000000011h-12Z" style="fill: #3580b1;"></path><path d="M571.4802301562283,441h12v9h-12Z" style="fill: #3580b1;"></path><path d="M585.1107118261687,446.5125h12v3.4875000000000114h-12Z" style="fill: #3580b1;"></path><path d="M598.741193496109,439.425h12v10.574999999999989h-12Z" style="fill: #3580b1;"></path><path d="M612.3716751660493,441.7875h12v8.212499999999977h-12Z" style="fill: #3580b1;"></path><path d="M626.0021568359897,438.3h12v11.699999999999989h-12Z" style="fill: #3580b1;"></path><path d="M639.63263850593,441.225h12v8.774999999999977h-12Z" style="fill: #3580b1;"></path><path d="M653.2631201758703,449.4375h12v0.5625h-12Z" style="fill: #3580b1;"></path><path d="M666.8936018458106,431.6625h12v18.337499999999977h-12Z" style="fill: #3580b1;"></path><path d="M680.5240835157509,442.4625h12v7.537500000000023h-12Z" style="fill: #3580b1;"></path><path d="M693.5866284494438,446.7375h12v3.2624999999999886h-12Z" style="fill: #3580b1;"></path><path d="M707.2171101193842,434.36249999999995h12v15.637500000000045h-12Z" style="fill: #3580b1;"></path><path d="M720.8475917893245,437.9625h12v12.037500000000023h-12Z" style="fill: #3580b1;"></path><path d="M734.4780734592648,441.5625h12v8.4375h-12Z" style="fill: #3580b1;"></path><path d="M748.1085551292052,450h12v0h-12Z" style="fill: #3580b1;"></path><path d="M761.7390367991455,450h12v0h-12Z" style="fill: #3580b1;"></path><path d="M775.3695184690858,450h12v0h-12Z" style="fill: #3580b1;"></path><path d="M789.0000001390262,450h12v0h-12Z" style="fill: #3580b1;"></path></g><g class="mark-group role-legend"><g transform="translate(0,-30)"><path class="background" d="M0,0h215v12h-215Z" style="pointer-events: none; fill: none;"></path><g><g class="mark-group role-legend-entry"><g transform="translate(0,0)"><path class="background" d="M0,0h0v0h0Z" style="pointer-events: none; fill: none;"></path><g><g class="mark-group role-scope"><g transform="translate(0,0.25)"><path class="background" d="M0,0h68.98043823242188v11.5h-68.98043823242188Z" style="pointer-events: none; fill: none; opacity: 1;"></path><g><g class="mark-symbol role-legend-symbol" style="pointer-events: none;"><path transform="translate(6,6)" d="M-5,-5h10v10h-10Z" style="fill: #3580b1; stroke-width: 1.5; opacity: 1;"></path></g><g class="mark-text role-legend-label" style="pointer-events: none;"><text text-anchor="start" transform="translate(16,9)" style="font-family: Benton Gothic, sans; font-size: 11.5px; fill: #000; opacity: 1;">CDC Labs</text></g></g><path class="foreground" d="" style="pointer-events: none; display: none; fill: none;"></path></g><g transform="translate(79,0.25)"><path class="background" d="M0,0h135.54232788085938v11.5h-135.54232788085938Z" style="pointer-events: none; fill: none; opacity: 1;"></path><g><g class="mark-symbol role-legend-symbol" style="pointer-events: none;"><path transform="translate(6,6)" d="M-5,-5h10v10h-10Z" style="fill: #ec8431; stroke-width: 1.5; opacity: 1;"></path></g><g class="mark-text role-legend-label" style="pointer-events: none;"><text text-anchor="start" transform="translate(16,9)" style="font-family: Benton Gothic, sans; font-size: 11.5px; fill: #000; opacity: 1;">US Public Health Labs</text></g></g><path class="foreground" d="" style="pointer-events: none; display: none; fill: none;"></path></g></g></g><path class="foreground" d="" style="pointer-events: none; display: none; fill: none;"></path></g></g></g><path class="foreground" d="" style="pointer-events: none; display: none; fill: none;"></path></g></g><g class="mark-group role-title"><g transform="translate(-45,-71)"><path class="background" d="M0,0h0v0h0Z" style="pointer-events: none; fill: none;"></path><g><g class="mark-text role-title-text" style="pointer-events: none;"><text text-anchor="start" transform="translate(0,17)" style="font-family: Benton Gothic Bold, sans; font-size: 22px; font-weight: normal; fill: black; opacity: 1;">CDC: Daily U.S. coronavirus specimens tested, by lab type</text></g><g class="mark-text role-title-subtitle" style="pointer-events: none;"><text text-anchor="start" transform="translate(0,34)" style="font-family: sans-serif; font-size: 12px; fill: gray; opacity: 1;">Figures from last four days reported as 'pending'</text></g></g><path class="foreground" d="" style="pointer-events: none; display: none; fill: none;"></path></g></g></g><path class="foreground" d="" style="display: none; fill: none;"></path></g></g></g></svg>