<svg class="marks" width="856" height="568" viewBox="0 0 856 568" version="1.1" xmlns="http://www.w3.org/2000/svg" xmlns:xlink="http://www.w3.org/1999/xlink"><rect width="856" height="568" style="fill: #ffffff;"></rect><g transform="translate(50,77)"><g class="mark-group role-frame root"><g transform="translate(0,0)"><path class="background" d="M0.5,0.5h800v450h-800Z" style="fill: none; stroke: #ddd;"></path><g><g class="mark-group role-axis"><g transform="translate(0.5,450.5)"><path class="background" d="M0,0h0v0h0Z" style="pointer-events: none; fill: none;"></path><g><g class="mark-rule role-axis-grid" style="pointer-events: none;"><line transform="translate(17,-450)" x2="0" y2="450" style="fill: none; stroke: #ddd; stroke-width: 1; opacity: 1;"></line><line transform="translate(99,-450)" x2="0" y2="450" style="fill: none; stroke: #ddd; stroke-width: 1; opacity: 1;"></line><line transform="translate(182,-450)" x2="0" y2="450" style="fill: none; stroke: #ddd; stroke-width: 1; opacity: 1;"></line><line transform="translate(265,-450)" x2="0" y2="450" style="fill: none; stroke: #ddd; stroke-width: 1; opacity: 1;"></line><line transform="translate(347,-450)" x2="0" y2="450" style="fill: none; stroke: #ddd; stroke-width: 1; opacity: 1;"></line><line transform="translate(430,-450)" x2="0" y2="450" style="fill: none; stroke: #ddd; stroke-width: 1; opacity: 1;"></line><line transform="translate(512,-450)" x2="0" y2="450" style="fill: none; stroke: #ddd; stroke-width: 1; opacity: 1;"></line><line transform="translate(595,-450)" x2="0" y2="450" style="fill: none; stroke: #ddd; stroke-width: 1; opacity: 1;"></line><line transform="translate(677,-450)" x2="0" y2="450" style="fill: none; stroke: #ddd; stroke-width: 1; opacity: 1;"></line><line transform="translate(760,-450)" x2="0" y2="450" style="fill: none; stroke: #ddd; stroke-width: 1; opacity: 1;"></line></g></g><path class="foreground" d="" style="pointer-events: none; display: none; fill: none;"></path></g></g><g class="mark-group role-axis"><g transform="translate(0.5,0.5)"><path class="background" d="M0,0h0v0h0Z" style="pointer-events: none; fill: none;"></path><g><g class="mark-rule role-axis-grid" style="pointer-events: none;"><line transform="translate(0,450)" x2="800" y2="0" style="fill: none; stroke: #ddd; stroke-width: 1; opacity: 1;"></line><line transform="translate(0,409)" x2="800" y2="0" style="fill: none; stroke: #ddd; stroke-width: 1; opacity: 1;"></line><line transform="translate(0,368)" x2="800" y2="0" style="fill: none; stroke: #ddd; stroke-width: 1; opacity: 1;"></line><line transform="translate(0,327)" x2="800" y2="0" style="fill: none; stroke: #ddd; stroke-width: 1; opacity: 1;"></line><line transform="translate(0,286)" x2="800" y2="0" style="fill: none; stroke: #ddd; stroke-width: 1; opacity: 1;"></line><line transform="translate(0,245)" x2="800" y2="0" style="fill: none; stroke: #ddd; stroke-width: 1; opacity: 1;"></line><line transform="translate(0,205)" x2="800" y2="0" style="fill: none; stroke: #ddd; stroke-width: 1; opacity: 1;"></line><line transform="translate(0,164)" x2="800" y2="0" style="fill: none; stroke: #ddd; stroke-width: 1; opacity: 1;"></line><line transform="translate(0,123)" x2="800" y2="0" style="fill: none; stroke: #ddd; stroke-width: 1; opacity: 1;"></line><line transform="translate(0,82)" x2="800" y2="0" style="fill: none; stroke: #ddd; stroke-width: 1; opacity: 1;"></line><line transform="translate(0,41)" x2="800" y2="0" style="fill: none; stroke: #ddd; stroke-width: 1; opacity: 1;"></line><line transform="translate(0,0)" x2="800" y2="0" style="fill: none; stroke: #ddd; stroke-width: 1; opacity: 1;"></line></g></g><path class="foreground" d="" style="pointer-events: none; display: none; fill: none;"></path></g></g><g class="mark-group role-axis"><g transform="translate(0.5,450.5)"><path class="background" d="M0,0h0v0h0Z" style="pointer-events: none; fill: none;"></path><g><g class="mark-rule role-axis-tick" style="pointer-events: none;"><line transform="translate(17,0)" x2="0" y2="3" style="fill: none; stroke: #888; stroke-width: 1; opacity: 1;"></line><line transform="translate(99,0)" x2="0" y2="3" style="fill: none; stroke: #888; stroke-width: 1; opacity: 1;"></line><line transform="translate(182,0)" x2="0" y2="3" style="fill: none; stroke: #888; stroke-width: 1; opacity: 1;"></line><line transform="translate(265,0)" x2="0" y2="3" style="fill: none; stroke: #888; stroke-width: 1; opacity: 1;"></line><line transform="translate(347,0)" x2="0" y2="3" style="fill: none; stroke: #888; stroke-width: 1; opacity: 1;"></line><line transform="translate(430,0)" x2="0" y2="3" style="fill: none; stroke: #888; stroke-width: 1; opacity: 1;"></line><line transform="translate(512,0)" x2="0" y2="3" style="fill: none; stroke: #888; stroke-width: 1; opacity: 1;"></line><line transform="translate(595,0)" x2="0" y2="3" style="fill: none; stroke: #888; stroke-width: 1; opacity: 1;"></line><line transform="translate(677,0)" x2="0" y2="3" style="fill: none; stroke: #888; stroke-width: 1; opacity: 1;"></line><line transform="translate(760,0)" x2="0" y2="3" style="fill: none; stroke: #888; stroke-width: 1; opacity: 1;"></line></g><g class="mark-text role-axis-label" style="pointer-events: none;"><text text-anchor="middle" transform="translate(16.798382097833922,16)" style="font-family: Benton Gothic, sans; font-size: 11.5px; font-weight: normal; fill: #000; opacity: 1;">Jan 19</text><text text-anchor="middle" transform="translate(99.38705665721115,16)" style="font-family: Benton Gothic, sans; font-size: 11.5px; font-weight: normal; fill: #000; opacity: 1;">Jan 26</text><text text-anchor="middle" transform="translate(181.9757312165884,16)" style="font-family: Benton Gothic, sans; font-size: 11.5px; font-weight: normal; fill: #000; opacity: 1;">Feb 02</text><text text-anchor="middle" transform="translate(264.5644057759656,16)" style="font-family: Benton Gothic, sans; font-size: 11.5px; font-weight: normal; fill: #000; opacity: 1;">Feb 09</text><text text-anchor="middle" transform="translate(347.15308033534285,16)" style="font-family: Benton Gothic, sans; font-size: 11.5px; font-weight: normal; fill: #000; opacity: 1;">Feb 16</text><text text-anchor="middle" transform="translate(429.7417548947201,16)" style="font-family: Benton Gothic, sans; font-size: 11.5px; font-weight: normal; fill: #000; opacity: 1;">Feb 23</text><text text-anchor="middle" transform="translate(512.3304294540973,16)" style="font-family: Benton Gothic, sans; font-size: 11.5px; font-weight: normal; fill: #000; opacity: 1;">March</text><text text-anchor="middle" transform="translate(594.9191040134746,16)" style="font-family: Benton Gothic, sans; font-size: 11.5px; font-weight: normal; fill: #000; opacity: 1;">Mar 08</text><text text-anchor="middle" transform="translate(677.0161793195222,16)" style="font-family: Benton Gothic, sans; font-size: 11.5px; font-weight: normal; fill: #000; opacity: 1;">Mar 15</text><text text-anchor="middle" transform="translate(759.6048538788993,16)" style="font-family: Benton Gothic, sans; font-size: 11.5px; font-weight: normal; fill: #000; opacity: 1;">Mar 22</text></g><g class="mark-rule role-axis-domain" style="pointer-events: none;"><line transform="translate(0,0)" x2="800" y2="0" style="fill: none; stroke: #888; stroke-width: 1; opacity: 1;"></line></g><g class="mark-text role-axis-title" style="pointer-events: none;"><text text-anchor="middle" transform="translate(400,32.5)" style="font-family: Benton Gothic Bold, sans; font-size: 13px; font-weight: normal; fill: #000; opacity: 1;">Date</text></g></g><path class="foreground" d="" style="pointer-events: none; display: none; fill: none;"></path></g></g><g class="mark-group role-axis"><g transform="translate(0.5,0.5)"><path class="background" d="M0,0h0v0h0Z" style="pointer-events: none; fill: none;"></path><g><g class="mark-rule role-axis-tick" style="pointer-events: none;"><line transform="translate(0,450)" x2="-2" y2="0" style="fill: none; stroke: #888; stroke-width: 1; opacity: 1;"></line><line transform="translate(0,409)" x2="-2" y2="0" style="fill: none; stroke: #888; stroke-width: 1; opacity: 1;"></line><line transform="translate(0,368)" x2="-2" y2="0" style="fill: none; stroke: #888; stroke-width: 1; opacity: 1;"></line><line transform="translate(0,327)" x2="-2" y2="0" style="fill: none; stroke: #888; stroke-width: 1; opacity: 1;"></line><line transform="translate(0,286)" x2="-2" y2="0" style="fill: none; stroke: #888; stroke-width: 1; opacity: 1;"></line><line transform="translate(0,245)" x2="-2" y2="0" style="fill: none; stroke: #888; stroke-width: 1; opacity: 1;"></line><line transform="translate(0,205)" x2="-2" y2="0" style="fill: none; stroke: #888; stroke-width: 1; opacity: 1;"></line><line transform="translate(0,164)" x2="-2" y2="0" style="fill: none; stroke: #888; stroke-width: 1; opacity: 1;"></line><line transform="translate(0,123)" x2="-2" y2="0" style="fill: none; stroke: #888; stroke-width: 1; opacity: 1;"></line><line transform="translate(0,82)" x2="-2" y2="0" style="fill: none; stroke: #888; stroke-width: 1; opacity: 1;"></line><line transform="translate(0,41)" x2="-2" y2="0" style="fill: none; stroke: #888; stroke-width: 1; opacity: 1;"></line><line transform="translate(0,0)" x2="-2" y2="0" style="fill: none; stroke: #888; stroke-width: 1; opacity: 1;"></line></g><g class="mark-text role-axis-label" style="pointer-events: none;"><text text-anchor="end" transform="translate(-4,453)" style="font-family: Benton Gothic, sans; font-size: 11.5px; font-weight: normal; fill: #000; opacity: 1;">0</text><text text-anchor="end" transform="translate(-4,412.09090909090907)" style="font-family: Benton Gothic, sans; font-size: 11.5px; font-weight: normal; fill: #000; opacity: 1;">1,000</text><text text-anchor="end" transform="translate(-4,371.18181818181813)" style="font-family: Benton Gothic, sans; font-size: 11.5px; font-weight: normal; fill: #000; opacity: 1;">2,000</text><text text-anchor="end" transform="translate(-4,330.2727272727273)" style="font-family: Benton Gothic, sans; font-size: 11.5px; font-weight: normal; fill: #000; opacity: 1;">3,000</text><text text-anchor="end" transform="translate(-4,289.3636363636364)" style="font-family: Benton Gothic, sans; font-size: 11.5px; font-weight: normal; fill: #000; opacity: 1;">4,000</text><text text-anchor="end" transform="translate(-4,248.45454545454544)" style="font-family: Benton Gothic, sans; font-size: 11.5px; font-weight: normal; fill: #000; opacity: 1;">5,000</text><text text-anchor="end" transform="translate(-4,207.54545454545456)" style="font-family: Benton Gothic, sans; font-size: 11.5px; font-weight: normal; fill: #000; opacity: 1;">6,000</text><text text-anchor="end" transform="translate(-4,166.63636363636365)" style="font-family: Benton Gothic, sans; font-size: 11.5px; font-weight: normal; fill: #000; opacity: 1;">7,000</text><text text-anchor="end" transform="translate(-4,125.72727272727272)" style="font-family: Benton Gothic, sans; font-size: 11.5px; font-weight: normal; fill: #000; opacity: 1;">8,000</text><text text-anchor="end" transform="translate(-4,84.8181818181818)" style="font-family: Benton Gothic, sans; font-size: 11.5px; font-weight: normal; fill: #000; opacity: 1;">9,000</text><text text-anchor="end" transform="translate(-4,43.90909090909092)" style="font-family: Benton Gothic, sans; font-size: 11.5px; font-weight: normal; fill: #000; opacity: 1;">10,000</text><text text-anchor="end" transform="translate(-4,3)" style="font-family: Benton Gothic, sans; font-size: 11.5px; font-weight: normal; fill: #000; opacity: 1;">11,000</text></g><g class="mark-rule role-axis-domain" style="pointer-events: none;"><line transform="translate(0,450)" x2="0" y2="-450" style="fill: none; stroke: #888; stroke-width: 1; opacity: 1;"></line></g></g><path class="foreground" d="" style="pointer-events: none; display: none; fill: none;"></path></g></g><g class="mark-rect role-mark marks"><path d="M1.7922888950749893e-8,449.83636363636367h10v0h-10Z" style="fill: #ec8431;"></path><path d="M11.798382097833922,450h10v0h-10Z" style="fill: #ec8431;"></path><path d="M23.596764177744955,449.71363636363634h10v0h-10Z" style="fill: #ec8431;"></path><path d="M35.39514625765599,449.8772727272727h10v0h-10Z" style="fill: #ec8431;"></path><path d="M47.19352833756702,449.5909090909091h10v0h-10Z" style="fill: #ec8431;"></path><path d="M58.991910417478046,448.5272727272727h10v0h-10Z" style="fill: #ec8431;"></path><path d="M70.79029249738909,447.83181818181816h10v0h-10Z" style="fill: #ec8431;"></path><path d="M82.58867457730013,445.8681818181818h10v0h-10Z" style="fill: #ec8431;"></path><path d="M94.38705665721115,446.7681818181818h10v0h-10Z" style="fill: #ec8431;"></path><path d="M106.18543873712218,446.85h10v0h-10Z" style="fill: #ec8431;"></path><path d="M117.9838208170332,447.3409090909091h10v0h-10Z" style="fill: #ec8431;"></path><path d="M129.78220289694426,445.8272727272727h10v0h-10Z" style="fill: #ec8431;"></path><path d="M141.58058497685528,439.52727272727276h10v0h-10Z" style="fill: #ec8431;"></path><path d="M153.3789670567663,447.4227272727273h10v0h-10Z" style="fill: #ec8431;"></path><path d="M165.17734913667735,437.3181818181818h10v0h-10Z" style="fill: #ec8431;"></path><path d="M176.9757312165884,448.65h10v0h-10Z" style="fill: #ec8431;"></path><path d="M188.7741132964994,444.6h10v0.040909090909110546h-10Z" style="fill: #ec8431;"></path><path d="M200.57249537641042,446.19545454545454h10v0h-10Z" style="fill: #ec8431;"></path><path d="M212.3708774563215,445.6227272727273h10v0.1227272727272748h-10Z" style="fill: #ec8431;"></path><path d="M224.16925953623252,446.9318181818182h10v0.040909090909110546h-10Z" style="fill: #ec8431;"></path><path d="M235.9676416161435,446.19545454545454h10v0h-10Z" style="fill: #ec8431;"></path><path d="M247.7660236960546,446.7681818181818h10v0h-10Z" style="fill: #ec8431;"></path><path d="M259.5644057759656,448.44545454545454h10v0.08181818181816425h-10Z" style="fill: #ec8431;"></path><path d="M271.3627878558766,448.44545454545454h10v0.040909090909110546h-10Z" style="fill: #ec8431;"></path><path d="M283.1611699357877,446.07272727272726h10v0.040909090909110546h-10Z" style="fill: #ec8431;"></path><path d="M294.9595520156987,447.6272727272727h10v0.08181818181816425h-10Z" style="fill: #ec8431;"></path><path d="M306.7579340956097,448.03636363636366h10v0.0409090909090537h-10Z" style="fill: #ec8431;"></path><path d="M318.5563161755208,448.32272727272726h10v0.20454545454543904h-10Z" style="fill: #ec8431;"></path><path d="M330.3546982554318,447.7909090909091h10v0.12272727272721795h-10Z" style="fill: #ec8431;"></path><path d="M342.15308033534285,448.9772727272727h10v0.040909090909110546h-10Z" style="fill: #ec8431;"></path><path d="M353.9514624152539,448.5681818181818h10v1.1454545454545269h-10Z" style="fill: #ec8431;"></path><path d="M365.7498444951649,448.28181818181815h10v0.40909090909093493h-10Z" style="fill: #ec8431;"></path><path d="M377.54822657507594,447.21818181818185h10v0.20454545454543904h-10Z" style="fill: #ec8431;"></path><path d="M389.346608654987,447.58636363636367h10v0.1636363636363285h-10Z" style="fill: #ec8431;"></path><path d="M401.144990734898,439.6909090909091h10v0.1227272727272748h-10Z" style="fill: #ec8431;"></path><path d="M412.9433728148091,439.48636363636365h10v0.1227272727272748h-10Z" style="fill: #ec8431;"></path><path d="M424.7417548947201,447.1772727272727h10v0.08181818181822109h-10Z" style="fill: #ec8431;"></path><path d="M436.5401369746311,447.3h10v0.6545454545454277h-10Z" style="fill: #ec8431;"></path><path d="M448.33851905454213,447.46363636363634h10v0.4909090909090992h-10Z" style="fill: #ec8431;"></path><path d="M460.1369011344531,445.6227272727273h10v1.1045454545454163h-10Z" style="fill: #ec8431;"></path><path d="M471.9352832143642,442.06363636363636h10v5.399999999999977h-10Z" style="fill: #ec8431;"></path><path d="M483.7336652942753,439.48636363636365h10v6.99545454545455h-10Z" style="fill: #ec8431;"></path><path d="M495.5320473741863,435.47727272727275h10v11.249999999999943h-10Z" style="fill: #ec8431;"></path><path d="M507.33042945409727,438.70909090909095h10v10.022727272727252h-10Z" style="fill: #ec8431;"></path><path d="M519.1288115340083,424.1454545454546h10v22.0090909090909h-10Z" style="fill: #ec8431;"></path><path d="M530.9271936139194,415.6363636363636h10v31.377272727272725h-10Z" style="fill: #ec8431;"></path><path d="M542.7255756938304,400.8272727272727h10v44.63181818181823h-10Z" style="fill: #ec8431;"></path><path d="M554.5239577737415,381.5590909090909h10v64.92272727272729h-10Z" style="fill: #ec8431;"></path><path d="M566.3223398536525,373.8681818181818h10v75.92727272727268h-10Z" style="fill: #ec8431;"></path><path d="M578.1207219335635,384.05454545454546h10v58.622727272727275h-10Z" style="fill: #ec8431;"></path><path d="M589.9191040134746,383.2772727272727h10v63.368181818181824h-10Z" style="fill: #ec8431;"></path><path d="M601.225886840056,323.8363636363636h10v124.69090909090909h-10Z" style="fill: #ec8431;"></path><path d="M613.024268919967,313.5681818181818h10v129.39545454545453h-10Z" style="fill: #ec8431;"></path><path d="M624.822650999878,281.65909090909093h10v162.49090909090904h-10Z" style="fill: #ec8431;"></path><path d="M636.621033079789,211.78636363636363h10v229.99090909090913h-10Z" style="fill: #ec8431;"></path><path d="M648.4194151597001,189.20454545454544h10v259.6090909090909h-10Z" style="fill: #ec8431;"></path><path d="M660.2177972396112,219.51818181818183h10v229.66363636363636h-10Z" style="fill: #ec8431;"></path><path d="M672.0161793195222,229.66363636363636h10v220.29545454545453h-10Z" style="fill: #ec8431;"></path><path d="M683.8145613994332,49.70454545454546h10v400.1727272727273h-10Z" style="fill: #ec8431;"></path><path d="M695.6129434793442,38.53636363636363h10v410.85h-10Z" style="fill: #ec8431;"></path><path d="M707.4113255592551,68.76818181818183h10v380.3727272727273h-10Z" style="fill: #ec8431;"></path><path d="M719.2097076391663,101.00454545454546h10v348.3818181818182h-10Z" style="fill: #ec8431;"></path><path d="M731.0080897190774,150.87272727272727h10v298.67727272727274h-10Z" style="fill: #ec8431;"></path><path d="M742.8064717989884,285.83181818181816h10v162.85909090909092h-10Z" style="fill: #ec8431;"></path><path d="M754.6048538788993,319.1318181818182h10v130.8272727272727h-10Z" style="fill: #ec8431;"></path><path d="M766.4032359588103,319.5h10v130.41818181818184h-10Z" style="fill: #ec8431;"></path><path d="M778.2016180387213,435.8863636363636h10v14.072727272727263h-10Z" style="fill: #ec8431;"></path><path d="M790.0000001186324,450h10v0h-10Z" style="fill: #ec8431;"></path><path d="M1.7922888950749893e-8,449.83636363636367h10v0.1636363636363285h-10Z" style="fill: #3580b1;"></path><path d="M11.798382097833922,450h10v0h-10Z" style="fill: #3580b1;"></path><path d="M23.596764177744955,449.71363636363634h10v0.28636363636366013h-10Z" style="fill: #3580b1;"></path><path d="M35.39514625765599,449.8772727272727h10v0.1227272727272748h-10Z" style="fill: #3580b1;"></path><path d="M47.19352833756702,449.5909090909091h10v0.4090909090908781h-10Z" style="fill: #3580b1;"></path><path d="M58.991910417478046,448.5272727272727h10v1.4727272727272975h-10Z" style="fill: #3580b1;"></path><path d="M70.79029249738909,447.83181818181816h10v2.1681818181818358h-10Z" style="fill: #3580b1;"></path><path d="M82.58867457730013,445.8681818181818h10v4.131818181818176h-10Z" style="fill: #3580b1;"></path><path d="M94.38705665721115,446.7681818181818h10v3.2318181818181984h-10Z" style="fill: #3580b1;"></path><path d="M106.18543873712218,446.85h10v3.1499999999999773h-10Z" style="fill: #3580b1;"></path><path d="M117.9838208170332,447.3409090909091h10v2.659090909090878h-10Z" style="fill: #3580b1;"></path><path d="M129.78220289694426,445.8272727272727h10v4.172727272727286h-10Z" style="fill: #3580b1;"></path><path d="M141.58058497685528,439.52727272727276h10v10.47272727272724h-10Z" style="fill: #3580b1;"></path><path d="M153.3789670567663,447.4227272727273h10v2.577272727272714h-10Z" style="fill: #3580b1;"></path><path d="M165.17734913667735,437.3181818181818h10v12.681818181818187h-10Z" style="fill: #3580b1;"></path><path d="M176.9757312165884,448.65h10v1.3500000000000227h-10Z" style="fill: #3580b1;"></path><path d="M188.7741132964994,444.64090909090913h10v5.359090909090867h-10Z" style="fill: #3580b1;"></path><path d="M200.57249537641042,446.19545454545454h10v3.804545454545462h-10Z" style="fill: #3580b1;"></path><path d="M212.3708774563215,445.74545454545455h10v4.25454545454545h-10Z" style="fill: #3580b1;"></path><path d="M224.16925953623252,446.9727272727273h10v3.0272727272727025h-10Z" style="fill: #3580b1;"></path><path d="M235.9676416161435,446.19545454545454h10v3.804545454545462h-10Z" style="fill: #3580b1;"></path><path d="M247.7660236960546,446.7681818181818h10v3.2318181818181984h-10Z" style="fill: #3580b1;"></path><path d="M259.5644057759656,448.5272727272727h10v1.4727272727272975h-10Z" style="fill: #3580b1;"></path><path d="M271.3627878558766,448.48636363636365h10v1.5136363636363512h-10Z" style="fill: #3580b1;"></path><path d="M283.1611699357877,446.1136363636364h10v3.886363636363626h-10Z" style="fill: #3580b1;"></path><path d="M294.9595520156987,447.7090909090909h10v2.2909090909091105h-10Z" style="fill: #3580b1;"></path><path d="M306.7579340956097,448.0772727272727h10v1.9227272727272862h-10Z" style="fill: #3580b1;"></path><path d="M318.5563161755208,448.5272727272727h10v1.4727272727272975h-10Z" style="fill: #3580b1;"></path><path d="M330.3546982554318,447.91363636363633h10v2.0863636363636715h-10Z" style="fill: #3580b1;"></path><path d="M342.15308033534285,449.0181818181818h10v0.9818181818181984h-10Z" style="fill: #3580b1;"></path><path d="M353.9514624152539,449.71363636363634h10v0.28636363636366013h-10Z" style="fill: #3580b1;"></path><path d="M365.7498444951649,448.6909090909091h10v1.3090909090909122h-10Z" style="fill: #3580b1;"></path><path d="M377.54822657507594,447.4227272727273h10v2.577272727272714h-10Z" style="fill: #3580b1;"></path><path d="M389.346608654987,447.75h10v2.25h-10Z" style="fill: #3580b1;"></path><path d="M401.144990734898,439.81363636363636h10v10.186363636363637h-10Z" style="fill: #3580b1;"></path><path d="M412.9433728148091,439.6090909090909h10v10.390909090909076h-10Z" style="fill: #3580b1;"></path><path d="M424.7417548947201,447.2590909090909h10v2.740909090909099h-10Z" style="fill: #3580b1;"></path><path d="M436.5401369746311,447.95454545454544h10v2.045454545454561h-10Z" style="fill: #3580b1;"></path><path d="M448.33851905454213,447.95454545454544h10v2.045454545454561h-10Z" style="fill: #3580b1;"></path><path d="M460.1369011344531,446.7272727272727h10v3.272727272727309h-10Z" style="fill: #3580b1;"></path><path d="M471.9352832143642,447.46363636363634h10v2.53636363636366h-10Z" style="fill: #3580b1;"></path><path d="M483.7336652942753,446.4818181818182h10v3.5181818181818016h-10Z" style="fill: #3580b1;"></path><path d="M495.5320473741863,446.7272727272727h10v3.272727272727309h-10Z" style="fill: #3580b1;"></path><path d="M507.33042945409727,448.7318181818182h10v1.2681818181818016h-10Z" style="fill: #3580b1;"></path><path d="M519.1288115340083,446.1545454545455h10v3.8454545454545155h-10Z" style="fill: #3580b1;"></path><path d="M530.9271936139194,447.01363636363635h10v2.9863636363636488h-10Z" style="fill: #3580b1;"></path><path d="M542.7255756938304,445.45909090909095h10v4.540909090909054h-10Z" style="fill: #3580b1;"></path><path d="M554.5239577737415,446.4818181818182h10v3.5181818181818016h-10Z" style="fill: #3580b1;"></path><path d="M566.3223398536525,449.7954545454545h10v0.2045454545454959h-10Z" style="fill: #3580b1;"></path><path d="M578.1207219335635,442.67727272727274h10v7.322727272727263h-10Z" style="fill: #3580b1;"></path><path d="M589.9191040134746,446.6454545454545h10v3.354545454545473h-10Z" style="fill: #3580b1;"></path><path d="M601.225886840056,448.5272727272727h10v1.4727272727272975h-10Z" style="fill: #3580b1;"></path><path d="M613.024268919967,442.96363636363634h10v7.03636363636366h-10Z" style="fill: #3580b1;"></path><path d="M624.822650999878,444.15h10v5.850000000000023h-10Z" style="fill: #3580b1;"></path><path d="M636.621033079789,441.77727272727276h10v8.22272727272724h-10Z" style="fill: #3580b1;"></path><path d="M648.4194151597001,448.81363636363636h10v1.1863636363636374h-10Z" style="fill: #3580b1;"></path><path d="M660.2177972396112,449.1818181818182h10v0.818181818181813h-10Z" style="fill: #3580b1;"></path><path d="M672.0161793195222,449.9590909090909h10v0.040909090909110546h-10Z" style="fill: #3580b1;"></path><path d="M683.8145613994332,449.8772727272727h10v0.1227272727272748h-10Z" style="fill: #3580b1;"></path><path d="M695.6129434793442,449.3863636363636h10v0.613636363636374h-10Z" style="fill: #3580b1;"></path><path d="M707.4113255592551,449.14090909090913h10v0.8590909090908667h-10Z" style="fill: #3580b1;"></path><path d="M719.2097076391663,449.3863636363636h10v0.613636363636374h-10Z" style="fill: #3580b1;"></path><path d="M731.0080897190774,449.55h10v0.44999999999998863h-10Z" style="fill: #3580b1;"></path><path d="M742.8064717989884,448.6909090909091h10v1.3090909090909122h-10Z" style="fill: #3580b1;"></path><path d="M754.6048538788993,449.9590909090909h10v0.040909090909110546h-10Z" style="fill: #3580b1;"></path><path d="M766.4032359588103,449.91818181818184h10v0.08181818181816425h-10Z" style="fill: #3580b1;"></path><path d="M778.2016180387213,449.9590909090909h10v0.040909090909110546h-10Z" style="fill: #3580b1;"></path><path d="M790.0000001186324,450h10v0h-10Z" style="fill: #3580b1;"></path></g><g class="mark-group role-legend"><g transform="translate(0,-30)"><path class="background" d="M0,0h215v12h-215Z" style="pointer-events: none; fill: none;"></path><g><g class="mark-group role-legend-entry"><g transform="translate(0,0)"><path class="background" d="M0,0h0v0h0Z" style="pointer-events: none; fill: none;"></path><g><g class="mark-group role-scope"><g transform="translate(0,0.25)"><path class="background" d="M0,0h68.98043823242188v11.5h-68.98043823242188Z" style="pointer-events: none; fill: none; opacity: 1;"></path><g><g class="mark-symbol role-legend-symbol" style="pointer-events: none;"><path transform="translate(6,6)" d="M-5,-5h10v10h-10Z" style="fill: #3580b1; stroke-width: 1.5; opacity: 1;"></path></g><g class="mark-text role-legend-label" style="pointer-events: none;"><text text-anchor="start" transform="translate(16,9)" style="font-family: Benton Gothic, sans; font-size: 11.5px; fill: #000; opacity: 1;">CDC Labs</text></g></g><path class="foreground" d="" style="pointer-events: none; display: none; fill: none;"></path></g><g transform="translate(79,0.25)"><path class="background" d="M0,0h135.54232788085938v11.5h-135.54232788085938Z" style="pointer-events: none; fill: none; opacity: 1;"></path><g><g class="mark-symbol role-legend-symbol" style="pointer-events: none;"><path transform="translate(6,6)" d="M-5,-5h10v10h-10Z" style="fill: #ec8431; stroke-width: 1.5; opacity: 1;"></path></g><g class="mark-text role-legend-label" style="pointer-events: none;"><text text-anchor="start" transform="translate(16,9)" style="font-family: Benton Gothic, sans; font-size: 11.5px; fill: #000; opacity: 1;">US Public Health Labs</text></g></g><path class="foreground" d="" style="pointer-events: none; display: none; fill: none;"></path></g></g></g><path class="foreground" d="" style="pointer-events: none; display: none; fill: none;"></path></g></g></g><path class="foreground" d="" style="pointer-events: none; display: none; fill: none;"></path></g></g><g class="mark-group role-title"><g transform="translate(-45,-71)"><path class="background" d="M0,0h0v0h0Z" style="pointer-events: none; fill: none;"></path><g><g class="mark-text role-title-text" style="pointer-events: none;"><text text-anchor="start" transform="translate(0,17)" style="font-family: Benton Gothic Bold, sans; font-size: 22px; font-weight: normal; fill: black; opacity: 1;">CDC: Daily U.S. coronavirus specimens tested, by lab type</text></g><g class="mark-text role-title-subtitle" style="pointer-events: none;"><text text-anchor="start" transform="translate(0,34)" style="font-family: sans-serif; font-size: 12px; fill: gray; opacity: 1;">Figures from last four days reported as 'pending'</text></g></g><path class="foreground" d="" style="pointer-events: none; display: none; fill: none;"></path></g></g></g><path class="foreground" d="" style="display: none; fill: none;"></path></g></g></g></svg>