<svg class="marks" width="861" height="568" viewBox="0 0 861 568" version="1.1" xmlns="http://www.w3.org/2000/svg" xmlns:xlink="http://www.w3.org/1999/xlink"><rect width="861" height="568" style="fill: #ffffff;"></rect><g transform="translate(50,77)"><g class="mark-group role-frame root" role="graphics-object" aria-roledescription="group mark container"><g transform="translate(0,0)"><path class="background" aria-hidden="true" d="M0.5,0.5h800v450h-800Z" style="fill: none; stroke: #ddd;"></path><g><g class="mark-group role-axis" role="graphics-symbol" aria-roledescription="axis" aria-label="X-axis for a time scale with values from Friday, 17 January 2020, 8:48:59 AM to Monday, 27 April 2020, 3:11:00 PM"><g transform="translate(0.5,450.5)"><path class="background" aria-hidden="true" d="M0,0h0v0h0Z" style="pointer-events: none; fill: none;"></path><g><g class="mark-rule role-axis-grid" style="pointer-events: none;"><line transform="translate(13,-450)" x2="0" y2="450" style="fill: none; stroke: #ddd; stroke-width: 1; opacity: 1;"></line><line transform="translate(68,-450)" x2="0" y2="450" style="fill: none; stroke: #ddd; stroke-width: 1; opacity: 1;"></line><line transform="translate(124,-450)" x2="0" y2="450" style="fill: none; stroke: #ddd; stroke-width: 1; opacity: 1;"></line><line transform="translate(179,-450)" x2="0" y2="450" style="fill: none; stroke: #ddd; stroke-width: 1; opacity: 1;"></line><line transform="translate(234,-450)" x2="0" y2="450" style="fill: none; stroke: #ddd; stroke-width: 1; opacity: 1;"></line><line transform="translate(290,-450)" x2="0" y2="450" style="fill: none; stroke: #ddd; stroke-width: 1; opacity: 1;"></line><line transform="translate(345,-450)" x2="0" y2="450" style="fill: none; stroke: #ddd; stroke-width: 1; opacity: 1;"></line><line transform="translate(400,-450)" x2="0" y2="450" style="fill: none; stroke: #ddd; stroke-width: 1; opacity: 1;"></line><line transform="translate(455,-450)" x2="0" y2="450" style="fill: none; stroke: #ddd; stroke-width: 1; opacity: 1;"></line><line transform="translate(510,-450)" x2="0" y2="450" style="fill: none; stroke: #ddd; stroke-width: 1; opacity: 1;"></line><line transform="translate(566,-450)" x2="0" y2="450" style="fill: none; stroke: #ddd; stroke-width: 1; opacity: 1;"></line><line transform="translate(621,-450)" x2="0" y2="450" style="fill: none; stroke: #ddd; stroke-width: 1; opacity: 1;"></line><line transform="translate(676,-450)" x2="0" y2="450" style="fill: none; stroke: #ddd; stroke-width: 1; opacity: 1;"></line><line transform="translate(732,-450)" x2="0" y2="450" style="fill: none; stroke: #ddd; stroke-width: 1; opacity: 1;"></line><line transform="translate(787,-450)" x2="0" y2="450" style="fill: none; stroke: #ddd; stroke-width: 1; opacity: 1;"></line></g></g><path class="foreground" aria-hidden="true" d="" style="pointer-events: none; display: none; fill: none;"></path></g></g><g class="mark-group role-axis" role="graphics-symbol" aria-roledescription="axis" aria-label="Y-axis for a linear scale with values from 0 to 20,000"><g transform="translate(0.5,0.5)"><path class="background" aria-hidden="true" d="M0,0h0v0h0Z" style="pointer-events: none; fill: none;"></path><g><g class="mark-rule role-axis-grid" style="pointer-events: none;"><line transform="translate(0,450)" x2="800" y2="0" style="fill: none; stroke: #ddd; stroke-width: 1; opacity: 1;"></line><line transform="translate(0,405)" x2="800" y2="0" style="fill: none; stroke: #ddd; stroke-width: 1; opacity: 1;"></line><line transform="translate(0,360)" x2="800" y2="0" style="fill: none; stroke: #ddd; stroke-width: 1; opacity: 1;"></line><line transform="translate(0,315)" x2="800" y2="0" style="fill: none; stroke: #ddd; stroke-width: 1; opacity: 1;"></line><line transform="translate(0,270)" x2="800" y2="0" style="fill: none; stroke: #ddd; stroke-width: 1; opacity: 1;"></line><line transform="translate(0,225)" x2="800" y2="0" style="fill: none; stroke: #ddd; stroke-width: 1; opacity: 1;"></line><line transform="translate(0,180)" x2="800" y2="0" style="fill: none; stroke: #ddd; stroke-width: 1; opacity: 1;"></line><line transform="translate(0,135)" x2="800" y2="0" style="fill: none; stroke: #ddd; stroke-width: 1; opacity: 1;"></line><line transform="translate(0,90)" x2="800" y2="0" style="fill: none; stroke: #ddd; stroke-width: 1; opacity: 1;"></line><line transform="translate(0,45)" x2="800" y2="0" style="fill: none; stroke: #ddd; stroke-width: 1; opacity: 1;"></line><line transform="translate(0,0)" x2="800" y2="0" style="fill: none; stroke: #ddd; stroke-width: 1; opacity: 1;"></line></g></g><path class="foreground" aria-hidden="true" d="" style="pointer-events: none; display: none; fill: none;"></path></g></g><g class="mark-group role-axis" role="graphics-symbol" aria-roledescription="axis" aria-label="X-axis titled 'Date' for a time scale with values from Friday, 17 January 2020, 8:48:59 AM to Monday, 27 April 2020, 3:11:00 PM"><g transform="translate(0.5,450.5)"><path class="background" aria-hidden="true" d="M0,0h0v0h0Z" style="pointer-events: none; fill: none;"></path><g><g class="mark-rule role-axis-tick" style="pointer-events: none;"><line transform="translate(13,0)" x2="0" y2="3" style="fill: none; stroke: #888; stroke-width: 1; opacity: 1;"></line><line transform="translate(68,0)" x2="0" y2="3" style="fill: none; stroke: #888; stroke-width: 1; opacity: 1;"></line><line transform="translate(124,0)" x2="0" y2="3" style="fill: none; stroke: #888; stroke-width: 1; opacity: 1;"></line><line transform="translate(179,0)" x2="0" y2="3" style="fill: none; stroke: #888; stroke-width: 1; opacity: 1;"></line><line transform="translate(234,0)" x2="0" y2="3" style="fill: none; stroke: #888; stroke-width: 1; opacity: 1;"></line><line transform="translate(290,0)" x2="0" y2="3" style="fill: none; stroke: #888; stroke-width: 1; opacity: 1;"></line><line transform="translate(345,0)" x2="0" y2="3" style="fill: none; stroke: #888; stroke-width: 1; opacity: 1;"></line><line transform="translate(400,0)" x2="0" y2="3" style="fill: none; stroke: #888; stroke-width: 1; opacity: 1;"></line><line transform="translate(455,0)" x2="0" y2="3" style="fill: none; stroke: #888; stroke-width: 1; opacity: 1;"></line><line transform="translate(510,0)" x2="0" y2="3" style="fill: none; stroke: #888; stroke-width: 1; opacity: 1;"></line><line transform="translate(566,0)" x2="0" y2="3" style="fill: none; stroke: #888; stroke-width: 1; opacity: 1;"></line><line transform="translate(621,0)" x2="0" y2="3" style="fill: none; stroke: #888; stroke-width: 1; opacity: 1;"></line><line transform="translate(676,0)" x2="0" y2="3" style="fill: none; stroke: #888; stroke-width: 1; opacity: 1;"></line><line transform="translate(732,0)" x2="0" y2="3" style="fill: none; stroke: #888; stroke-width: 1; opacity: 1;"></line><line transform="translate(787,0)" x2="0" y2="3" style="fill: none; stroke: #888; stroke-width: 1; opacity: 1;"></line></g><g class="mark-text role-axis-label" style="pointer-events: none;"><text text-anchor="middle" transform="translate(12.903293085063073,16)" style="font-family: Benton Gothic, sans; font-size: 11.5px; font-weight: normal; fill: #000; opacity: 1;">Jan 19</text><text text-anchor="middle" transform="translate(68.22634435634608,16)" style="font-family: Benton Gothic, sans; font-size: 11.5px; font-weight: normal; fill: #000; opacity: 1;">Jan 26</text><text text-anchor="middle" transform="translate(123.54939562762905,16)" style="font-family: Benton Gothic, sans; font-size: 11.5px; font-weight: normal; fill: #000; opacity: 1;">Feb 02</text><text text-anchor="middle" transform="translate(178.87244689891207,16)" style="font-family: Benton Gothic, sans; font-size: 11.5px; font-weight: normal; fill: #000; opacity: 1;">Feb 09</text><text text-anchor="middle" transform="translate(234.19549817019507,16)" style="font-family: Benton Gothic, sans; font-size: 11.5px; font-weight: normal; fill: #000; opacity: 1;">Feb 16</text><text text-anchor="middle" transform="translate(289.51854944147806,16)" style="font-family: Benton Gothic, sans; font-size: 11.5px; font-weight: normal; fill: #000; opacity: 1;">Feb 23</text><text text-anchor="middle" transform="translate(344.841600712761,16)" style="font-family: Benton Gothic, sans; font-size: 11.5px; font-weight: normal; fill: #000; opacity: 1;">March</text><text text-anchor="middle" transform="translate(400.164651984044,16)" style="font-family: Benton Gothic, sans; font-size: 11.5px; font-weight: normal; fill: #000; opacity: 1;">Mar 08</text><text text-anchor="middle" transform="translate(455.15839937871226,16)" style="font-family: Benton Gothic, sans; font-size: 11.5px; font-weight: normal; fill: #000; opacity: 1;">Mar 15</text><text text-anchor="middle" transform="translate(510.4814506499952,16)" style="font-family: Benton Gothic, sans; font-size: 11.5px; font-weight: normal; fill: #000; opacity: 1;">Mar 22</text><text text-anchor="middle" transform="translate(565.8045019212782,16)" style="font-family: Benton Gothic, sans; font-size: 11.5px; font-weight: normal; fill: #000; opacity: 1;">Mar 29</text><text text-anchor="middle" transform="translate(621.1275531925612,16)" style="font-family: Benton Gothic, sans; font-size: 11.5px; font-weight: normal; fill: #000; opacity: 1;">Apr 05</text><text text-anchor="middle" transform="translate(676.4506044638442,16)" style="font-family: Benton Gothic, sans; font-size: 11.5px; font-weight: normal; fill: #000; opacity: 1;">Apr 12</text><text text-anchor="middle" transform="translate(731.7736557351272,16)" style="font-family: Benton Gothic, sans; font-size: 11.5px; font-weight: normal; fill: #000; opacity: 1;">Apr 19</text><text text-anchor="middle" transform="translate(787.0967070064103,16)" style="font-family: Benton Gothic, sans; font-size: 11.5px; font-weight: normal; fill: #000; opacity: 1;">Apr 26</text></g><g class="mark-rule role-axis-domain" style="pointer-events: none;"><line transform="translate(0,0)" x2="800" y2="0" style="fill: none; stroke: #888; stroke-width: 1; opacity: 1;"></line></g><g class="mark-text role-axis-title" style="pointer-events: none;"><text text-anchor="middle" transform="translate(400,32.5)" style="font-family: Benton Gothic Bold, sans; font-size: 13px; font-weight: normal; fill: #000; opacity: 1;">Date</text></g></g><path class="foreground" aria-hidden="true" d="" style="pointer-events: none; display: none; fill: none;"></path></g></g><g class="mark-group role-axis" role="graphics-symbol" aria-roledescription="axis" aria-label="Y-axis for a linear scale with values from 0 to 20,000"><g transform="translate(0.5,0.5)"><path class="background" aria-hidden="true" d="M0,0h0v0h0Z" style="pointer-events: none; fill: none;"></path><g><g class="mark-rule role-axis-tick" style="pointer-events: none;"><line transform="translate(0,450)" x2="-2" y2="0" style="fill: none; stroke: #888; stroke-width: 1; opacity: 1;"></line><line transform="translate(0,405)" x2="-2" y2="0" style="fill: none; stroke: #888; stroke-width: 1; opacity: 1;"></line><line transform="translate(0,360)" x2="-2" y2="0" style="fill: none; stroke: #888; stroke-width: 1; opacity: 1;"></line><line transform="translate(0,315)" x2="-2" y2="0" style="fill: none; stroke: #888; stroke-width: 1; opacity: 1;"></line><line transform="translate(0,270)" x2="-2" y2="0" style="fill: none; stroke: #888; stroke-width: 1; opacity: 1;"></line><line transform="translate(0,225)" x2="-2" y2="0" style="fill: none; stroke: #888; stroke-width: 1; opacity: 1;"></line><line transform="translate(0,180)" x2="-2" y2="0" style="fill: none; stroke: #888; stroke-width: 1; opacity: 1;"></line><line transform="translate(0,135)" x2="-2" y2="0" style="fill: none; stroke: #888; stroke-width: 1; opacity: 1;"></line><line transform="translate(0,90)" x2="-2" y2="0" style="fill: none; stroke: #888; stroke-width: 1; opacity: 1;"></line><line transform="translate(0,45)" x2="-2" y2="0" style="fill: none; stroke: #888; stroke-width: 1; opacity: 1;"></line><line transform="translate(0,0)" x2="-2" y2="0" style="fill: none; stroke: #888; stroke-width: 1; opacity: 1;"></line></g><g class="mark-text role-axis-label" style="pointer-events: none;"><text text-anchor="end" transform="translate(-4,453)" style="font-family: Benton Gothic, sans; font-size: 11.5px; font-weight: normal; fill: #000; opacity: 1;">0</text><text text-anchor="end" transform="translate(-4,408)" style="font-family: Benton Gothic, sans; font-size: 11.5px; font-weight: normal; fill: #000; opacity: 1;">2,000</text><text text-anchor="end" transform="translate(-4,363)" style="font-family: Benton Gothic, sans; font-size: 11.5px; font-weight: normal; fill: #000; opacity: 1;">4,000</text><text text-anchor="end" transform="translate(-4,318)" style="font-family: Benton Gothic, sans; font-size: 11.5px; font-weight: normal; fill: #000; opacity: 1;">6,000</text><text text-anchor="end" transform="translate(-4,273)" style="font-family: Benton Gothic, sans; font-size: 11.5px; font-weight: normal; fill: #000; opacity: 1;">8,000</text><text text-anchor="end" transform="translate(-4,228)" style="font-family: Benton Gothic, sans; font-size: 11.5px; font-weight: normal; fill: #000; opacity: 1;">10,000</text><text text-anchor="end" transform="translate(-4,183)" style="font-family: Benton Gothic, sans; font-size: 11.5px; font-weight: normal; fill: #000; opacity: 1;">12,000</text><text text-anchor="end" transform="translate(-4,138.00000000000003)" style="font-family: Benton Gothic, sans; font-size: 11.5px; font-weight: normal; fill: #000; opacity: 1;">14,000</text><text text-anchor="end" transform="translate(-4,92.99999999999999)" style="font-family: Benton Gothic, sans; font-size: 11.5px; font-weight: normal; fill: #000; opacity: 1;">16,000</text><text text-anchor="end" transform="translate(-4,47.99999999999999)" style="font-family: Benton Gothic, sans; font-size: 11.5px; font-weight: normal; fill: #000; opacity: 1;">18,000</text><text text-anchor="end" transform="translate(-4,3)" style="font-family: Benton Gothic, sans; font-size: 11.5px; font-weight: normal; fill: #000; opacity: 1;">20,000</text></g><g class="mark-rule role-axis-domain" style="pointer-events: none;"><line transform="translate(0,450)" x2="0" y2="-450" style="fill: none; stroke: #888; stroke-width: 1; opacity: 1;"></line></g></g><path class="foreground" aria-hidden="true" d="" style="pointer-events: none; display: none; fill: none;"></path></g></g><g class="mark-rect role-mark marks" role="graphics-symbol" aria-roledescription="rect mark container"><path d="M4.630835714891646e-8,449.91h10v0h-10Z" style="fill: #ec8431;"></path><path d="M7.903293085063073,450h10v0h-10Z" style="fill: #ec8431;"></path><path d="M15.806586123817787,449.84250000000003h10v0h-10Z" style="fill: #ec8431;"></path><path d="M23.7098791625725,449.9325h10v0h-10Z" style="fill: #ec8431;"></path><path d="M31.61317220132721,449.77500000000003h10v0h-10Z" style="fill: #ec8431;"></path><path d="M39.51646524008193,449.19h10v0h-10Z" style="fill: #ec8431;"></path><path d="M47.41975827883664,448.8075h10v0h-10Z" style="fill: #ec8431;"></path><path d="M55.32305131759136,447.7275h10v0h-10Z" style="fill: #ec8431;"></path><path d="M63.226344356346075,448.22249999999997h10v0h-10Z" style="fill: #ec8431;"></path><path d="M71.12963739510079,448.2675h10v0h-10Z" style="fill: #ec8431;"></path><path d="M79.03293043385548,448.5375h10v0h-10Z" style="fill: #ec8431;"></path><path d="M86.93622347261021,447.705h10v0h-10Z" style="fill: #ec8431;"></path><path d="M94.83951651136492,444.24h10v0h-10Z" style="fill: #ec8431;"></path><path d="M102.74280955011963,448.5825h10v0h-10Z" style="fill: #ec8431;"></path><path d="M110.64610258887436,442.9575h10v0.0675000000000523h-10Z" style="fill: #ec8431;"></path><path d="M118.54939562762905,449.23499999999996h10v0.02250000000003638h-10Z" style="fill: #ec8431;"></path><path d="M126.45268866638378,447.03h10v0.022499999999979536h-10Z" style="fill: #ec8431;"></path><path d="M134.3559817051385,447.90749999999997h10v0h-10Z" style="fill: #ec8431;"></path><path d="M142.2592747438932,447.59250000000003h10v0.06749999999999545h-10Z" style="fill: #ec8431;"></path><path d="M150.16256778264793,448.245h10v0.08999999999997499h-10Z" style="fill: #ec8431;"></path><path d="M158.06586082140262,447.90749999999997h10v0h-10Z" style="fill: #ec8431;"></path><path d="M165.96915386015735,448.22249999999997h10v0h-10Z" style="fill: #ec8431;"></path><path d="M173.87244689891207,449.145h10v0.045000000000015916h-10Z" style="fill: #ec8431;"></path><path d="M181.77573993766677,449.145h10v0.02250000000003638h-10Z" style="fill: #ec8431;"></path><path d="M189.6790329764215,447.8175h10v0.045000000000015916h-10Z" style="fill: #ec8431;"></path><path d="M197.5823260151762,448.695h10v0.045000000000015916h-10Z" style="fill: #ec8431;"></path><path d="M205.48561905393092,448.92h10v0.022499999999979536h-10Z" style="fill: #ec8431;"></path><path d="M213.38891209268562,449.0775h10v0.11250000000001137h-10Z" style="fill: #ec8431;"></path><path d="M221.29220513144034,448.7625h10v0.08999999999997499h-10Z" style="fill: #ec8431;"></path><path d="M229.19549817019507,449.4375h10v0.02250000000003638h-10Z" style="fill: #ec8431;"></path><path d="M237.09879120894976,449.19h10v0.6525000000000318h-10Z" style="fill: #ec8431;"></path><path d="M245.00208424770446,449.0325h10v0.24749999999994543h-10Z" style="fill: #ec8431;"></path><path d="M252.9053772864592,448.44750000000005h10v0.13499999999993406h-10Z" style="fill: #ec8431;"></path><path d="M260.80867032521394,448.65h10v0.11250000000001137h-10Z" style="fill: #ec8431;"></path><path d="M268.7119633639686,444.3075h10v0.09000000000003183h-10Z" style="fill: #ec8431;"></path><path d="M276.61525640272333,444.195h10v0.08999999999997499h-10Z" style="fill: #ec8431;"></path><path d="M284.51854944147806,448.4025h10v0.09000000000003183h-10Z" style="fill: #ec8431;"></path><path d="M292.4218424802328,448.4025h10v0.472500000000025h-10Z" style="fill: #ec8431;"></path><path d="M300.32513551898745,448.5375h10v0.33749999999997726h-10Z" style="fill: #ec8431;"></path><path d="M308.2284285577422,447.5025h10v0.6974999999999909h-10Z" style="fill: #ec8431;"></path><path d="M316.1317215964969,445.41h10v3.194999999999993h-10Z" style="fill: #ec8431;"></path><path d="M324.0350146352516,443.835h10v4.230000000000018h-10Z" style="fill: #ec8431;"></path><path d="M331.9383076740063,441.6975h10v6.502499999999998h-10Z" style="fill: #ec8431;"></path><path d="M339.841600712761,443.36249999999995h10v5.939999999999998h-10Z" style="fill: #ec8431;"></path><path d="M347.74489375151575,434.88h10v13.004999999999995h-10Z" style="fill: #ec8431;"></path><path d="M355.6481867902705,429.7725h10v18.58499999999998h-10Z" style="fill: #ec8431;"></path><path d="M363.55147982902514,420.39h10v27.11250000000001h-10Z" style="fill: #ec8431;"></path><path d="M371.45477286777987,408.41999999999996h10v39.64500000000004h-10Z" style="fill: #ec8431;"></path><path d="M379.3580659065346,404.3025h10v45.58499999999998h-10Z" style="fill: #ec8431;"></path><path d="M387.2613589452893,409.77h10v36.202499999999986h-10Z" style="fill: #ec8431;"></path><path d="M395.164651984044,408.7125h10v39.44250000000005h-10Z" style="fill: #ec8431;"></path><path d="M402.73864114618397,369.65250000000003h10v79.53749999999997h-10Z" style="fill: #ec8431;"></path><path d="M410.6419341849387,361.66499999999996h10v84.46500000000003h-10Z" style="fill: #ec8431;"></path><path d="M418.54522722369336,343.2375h10v103.54500000000002h-10Z" style="fill: #ec8431;"></path><path d="M426.4485202624481,299.22749999999996h10v146.16000000000003h-10Z" style="fill: #ec8431;"></path><path d="M434.3518133012028,290.655h10v158.69250000000005h-10Z" style="fill: #ec8431;"></path><path d="M442.25510633995754,309.7575h10v139.79250000000002h-10Z" style="fill: #ec8431;"></path><path d="M450.15839937871226,316.41749999999996h10v133.56000000000006h-10Z" style="fill: #ec8431;"></path><path d="M458.061692417467,192.46499999999997h10v257.46750000000003h-10Z" style="fill: #ec8431;"></path><path d="M465.9649854562217,188.2125h10v261.44999999999993h-10Z" style="fill: #ec8431;"></path><path d="M473.86827849497644,204.48000000000002h10v244.82249999999993h-10Z" style="fill: #ec8431;"></path><path d="M481.77157153373105,208.755h10v240.90749999999997h-10Z" style="fill: #ec8431;"></path><path d="M489.6748645724858,215.18999999999997h10v234.56250000000003h-10Z" style="fill: #ec8431;"></path><path d="M497.5781576112405,313.9425h10v135.33749999999998h-10Z" style="fill: #ec8431;"></path><path d="M505.4814506499952,330.86249999999995h10v119.11500000000007h-10Z" style="fill: #ec8431;"></path><path d="M513.38474368875,231.93000000000004h10v218.02499999999995h-10Z" style="fill: #ec8431;"></path><path d="M521.2880367275047,231.3675h10v218.54250000000002h-10Z" style="fill: #ec8431;"></path><path d="M529.1913297662594,218.7h10v230.64750000000004h-10Z" style="fill: #ec8431;"></path><path d="M537.0946228050141,203.94000000000003h10v245.11499999999998h-10Z" style="fill: #ec8431;"></path><path d="M544.9979158437689,208.2375h10v241.1775h-10Z" style="fill: #ec8431;"></path><path d="M552.9012088825235,285.16499999999996h10v164.63250000000005h-10Z" style="fill: #ec8431;"></path><path d="M560.8045019212782,314.865h10v135.1125h-10Z" style="fill: #ec8431;"></path><path d="M568.707794960033,177.5025h10v272.385h-10Z" style="fill: #ec8431;"></path><path d="M576.6110879987876,167.5125h10v281.72249999999997h-10Z" style="fill: #ec8431;"></path><path d="M584.5143810375424,175.79250000000002h10v273.9825h-10Z" style="fill: #ec8431;"></path><path d="M592.4176740762971,149.22h10v300.05999999999995h-10Z" style="fill: #ec8431;"></path><path d="M600.3209671150518,140.87250000000003h10v308.385h-10Z" style="fill: #ec8431;"></path><path d="M608.2242601538065,267.615h10v182.0025h-10Z" style="fill: #ec8431;"></path><path d="M616.1275531925612,280.8h10v169.08749999999998h-10Z" style="fill: #ec8431;"></path><path d="M624.030846231316,136.77750000000003h10v312.97499999999997h-10Z" style="fill: #ec8431;"></path><path d="M631.9341392700707,152.3025h10v297.0675h-10Z" style="fill: #ec8431;"></path><path d="M639.8374323088254,142.69500000000002h10v306.60749999999996h-10Z" style="fill: #ec8431;"></path><path d="M647.7407253475801,166.61249999999998h10v282.7125000000001h-10Z" style="fill: #ec8431;"></path><path d="M655.6440183863348,155.6325h10v293.82750000000004h-10Z" style="fill: #ec8431;"></path><path d="M663.5473114250894,294.39h10v155.61h-10Z" style="fill: #ec8431;"></path><path d="M671.4506044638442,361.30499999999995h10v88.69500000000005h-10Z" style="fill: #ec8431;"></path><path d="M679.3538975025989,174.7575h10v275.22h-10Z" style="fill: #ec8431;"></path><path d="M687.2571905413537,170.23499999999999h10v279.2925h-10Z" style="fill: #ec8431;"></path><path d="M695.1604835801083,156.51h10v293.49h-10Z" style="fill: #ec8431;"></path><path d="M703.0637766188631,149.31h10v299.96999999999997h-10Z" style="fill: #ec8431;"></path><path d="M710.9670696576178,103.11749999999998h10v346.74750000000006h-10Z" style="fill: #ec8431;"></path><path d="M718.8703626963726,290.925h10v158.6925h-10Z" style="fill: #ec8431;"></path><path d="M726.7736557351272,327.78h10v122.19750000000005h-10Z" style="fill: #ec8431;"></path><path d="M734.6769487738819,113.67000000000002h10v336.33h-10Z" style="fill: #ec8431;"></path><path d="M742.5802418126366,96.57000000000001h10v352.5525h-10Z" style="fill: #ec8431;"></path><path d="M750.4835348513914,26.95499999999998h10v422.91h-10Z" style="fill: #ec8431;"></path><path d="M758.386827890146,51.34499999999999h10v397.9575h-10Z" style="fill: #ec8431;"></path><path d="M766.2901209289008,112.4325h10v337.14h-10Z" style="fill: #ec8431;"></path><path d="M774.1934139676555,374.01750000000004h10v75.57749999999993h-10Z" style="fill: #ec8431;"></path><path d="M782.0967070064103,443.88000000000005h10v6.119999999999948h-10Z" style="fill: #ec8431;"></path><path d="M790.0000000451649,449.55h10v0.44999999999998863h-10Z" style="fill: #ec8431;"></path><path d="M4.630835714891646e-8,449.91h10v0.08999999999997499h-10Z" style="fill: #3580b1;"></path><path d="M7.903293085063073,450h10v0h-10Z" style="fill: #3580b1;"></path><path d="M15.806586123817787,449.84250000000003h10v0.15749999999997044h-10Z" style="fill: #3580b1;"></path><path d="M23.7098791625725,449.9325h10v0.06749999999999545h-10Z" style="fill: #3580b1;"></path><path d="M31.61317220132721,449.77500000000003h10v0.2249999999999659h-10Z" style="fill: #3580b1;"></path><path d="M39.51646524008193,449.19h10v0.8100000000000023h-10Z" style="fill: #3580b1;"></path><path d="M47.41975827883664,448.8075h10v1.1924999999999955h-10Z" style="fill: #3580b1;"></path><path d="M55.32305131759136,447.7275h10v2.2724999999999795h-10Z" style="fill: #3580b1;"></path><path d="M63.226344356346075,448.22249999999997h10v1.7775000000000318h-10Z" style="fill: #3580b1;"></path><path d="M71.12963739510079,448.2675h10v1.732500000000016h-10Z" style="fill: #3580b1;"></path><path d="M79.03293043385548,448.5375h10v1.4624999999999773h-10Z" style="fill: #3580b1;"></path><path d="M86.93622347261021,447.705h10v2.295000000000016h-10Z" style="fill: #3580b1;"></path><path d="M94.83951651136492,444.24h10v5.759999999999991h-10Z" style="fill: #3580b1;"></path><path d="M102.74280955011963,448.5825h10v1.4175000000000182h-10Z" style="fill: #3580b1;"></path><path d="M110.64610258887436,443.02500000000003h10v6.974999999999966h-10Z" style="fill: #3580b1;"></path><path d="M118.54939562762905,449.2575h10v0.7425000000000068h-10Z" style="fill: #3580b1;"></path><path d="M126.45268866638378,447.05249999999995h10v2.9475000000000477h-10Z" style="fill: #3580b1;"></path><path d="M134.3559817051385,447.90749999999997h10v2.0925000000000296h-10Z" style="fill: #3580b1;"></path><path d="M142.2592747438932,447.66h10v2.339999999999975h-10Z" style="fill: #3580b1;"></path><path d="M150.16256778264793,448.335h10v1.6650000000000205h-10Z" style="fill: #3580b1;"></path><path d="M158.06586082140262,447.90749999999997h10v2.0925000000000296h-10Z" style="fill: #3580b1;"></path><path d="M165.96915386015735,448.22249999999997h10v1.7775000000000318h-10Z" style="fill: #3580b1;"></path><path d="M173.87244689891207,449.19h10v0.8100000000000023h-10Z" style="fill: #3580b1;"></path><path d="M181.77573993766677,449.1675h10v0.8324999999999818h-10Z" style="fill: #3580b1;"></path><path d="M189.6790329764215,447.8625h10v2.1374999999999886h-10Z" style="fill: #3580b1;"></path><path d="M197.5823260151762,448.74h10v1.259999999999991h-10Z" style="fill: #3580b1;"></path><path d="M205.48561905393092,448.9425h10v1.0575000000000045h-10Z" style="fill: #3580b1;"></path><path d="M213.38891209268562,449.19h10v0.8100000000000023h-10Z" style="fill: #3580b1;"></path><path d="M221.29220513144034,448.85249999999996h10v1.1475000000000364h-10Z" style="fill: #3580b1;"></path><path d="M229.19549817019507,449.46000000000004h10v0.5399999999999636h-10Z" style="fill: #3580b1;"></path><path d="M237.09879120894976,449.84250000000003h10v0.15749999999997044h-10Z" style="fill: #3580b1;"></path><path d="M245.00208424770446,449.28h10v0.7200000000000273h-10Z" style="fill: #3580b1;"></path><path d="M252.9053772864592,448.5825h10v1.4175000000000182h-10Z" style="fill: #3580b1;"></path><path d="M260.80867032521394,448.7625h10v1.2375000000000114h-10Z" style="fill: #3580b1;"></path><path d="M268.7119633639686,444.39750000000004h10v5.602499999999964h-10Z" style="fill: #3580b1;"></path><path d="M276.61525640272333,444.28499999999997h10v5.715000000000032h-10Z" style="fill: #3580b1;"></path><path d="M284.51854944147806,448.4925h10v1.5074999999999932h-10Z" style="fill: #3580b1;"></path><path d="M292.4218424802328,448.875h10v1.125h-10Z" style="fill: #3580b1;"></path><path d="M300.32513551898745,448.875h10v1.125h-10Z" style="fill: #3580b1;"></path><path d="M308.2284285577422,448.2h10v1.8000000000000114h-10Z" style="fill: #3580b1;"></path><path d="M316.1317215964969,448.605h10v1.3949999999999818h-10Z" style="fill: #3580b1;"></path><path d="M324.0350146352516,448.065h10v1.9350000000000023h-10Z" style="fill: #3580b1;"></path><path d="M331.9383076740063,448.2h10v1.8000000000000114h-10Z" style="fill: #3580b1;"></path><path d="M339.841600712761,449.30249999999995h10v0.6975000000000477h-10Z" style="fill: #3580b1;"></path><path d="M347.74489375151575,447.885h10v2.115000000000009h-10Z" style="fill: #3580b1;"></path><path d="M355.6481867902705,448.35749999999996h10v1.642500000000041h-10Z" style="fill: #3580b1;"></path><path d="M363.55147982902514,447.5025h10v2.4975000000000023h-10Z" style="fill: #3580b1;"></path><path d="M371.45477286777987,448.065h10v1.9350000000000023h-10Z" style="fill: #3580b1;"></path><path d="M379.3580659065346,449.8875h10v0.11250000000001137h-10Z" style="fill: #3580b1;"></path><path d="M387.2613589452893,445.97249999999997h10v4.027500000000032h-10Z" style="fill: #3580b1;"></path><path d="M395.164651984044,448.15500000000003h10v1.8449999999999704h-10Z" style="fill: #3580b1;"></path><path d="M402.73864114618397,449.19h10v0.8100000000000023h-10Z" style="fill: #3580b1;"></path><path d="M410.6419341849387,446.13h10v3.8700000000000045h-10Z" style="fill: #3580b1;"></path><path d="M418.54522722369336,446.7825h10v3.2174999999999727h-10Z" style="fill: #3580b1;"></path><path d="M426.4485202624481,445.3875h10v4.612500000000011h-10Z" style="fill: #3580b1;"></path><path d="M434.3518133012028,449.3475h10v0.652499999999975h-10Z" style="fill: #3580b1;"></path><path d="M442.25510633995754,449.55h10v0.44999999999998863h-10Z" style="fill: #3580b1;"></path><path d="M450.15839937871226,449.9775h10v0.022499999999979536h-10Z" style="fill: #3580b1;"></path><path d="M458.061692417467,449.9325h10v0.06749999999999545h-10Z" style="fill: #3580b1;"></path><path d="M465.9649854562217,449.66249999999997h10v0.3375000000000341h-10Z" style="fill: #3580b1;"></path><path d="M473.86827849497644,449.30249999999995h10v0.6975000000000477h-10Z" style="fill: #3580b1;"></path><path d="M481.77157153373105,449.66249999999997h10v0.3375000000000341h-10Z" style="fill: #3580b1;"></path><path d="M489.6748645724858,449.7525h10v0.24750000000000227h-10Z" style="fill: #3580b1;"></path><path d="M497.5781576112405,449.28h10v0.7200000000000273h-10Z" style="fill: #3580b1;"></path><path d="M505.4814506499952,449.9775h10v0.022499999999979536h-10Z" style="fill: #3580b1;"></path><path d="M513.38474368875,449.955h10v0.045000000000015916h-10Z" style="fill: #3580b1;"></path><path d="M521.2880367275047,449.91h10v0.08999999999997499h-10Z" style="fill: #3580b1;"></path><path d="M529.1913297662594,449.3475h10v0.652499999999975h-10Z" style="fill: #3580b1;"></path><path d="M537.0946228050141,449.055h10v0.9449999999999932h-10Z" style="fill: #3580b1;"></path><path d="M544.9979158437689,449.415h10v0.5849999999999795h-10Z" style="fill: #3580b1;"></path><path d="M552.9012088825235,449.7975h10v0.20249999999998636h-10Z" style="fill: #3580b1;"></path><path d="M560.8045019212782,449.9775h10v0.022499999999979536h-10Z" style="fill: #3580b1;"></path><path d="M568.707794960033,449.8875h10v0.11250000000001137h-10Z" style="fill: #3580b1;"></path><path d="M576.6110879987876,449.23499999999996h10v0.7650000000000432h-10Z" style="fill: #3580b1;"></path><path d="M584.5143810375424,449.77500000000003h10v0.2249999999999659h-10Z" style="fill: #3580b1;"></path><path d="M592.4176740762971,449.28h10v0.7200000000000273h-10Z" style="fill: #3580b1;"></path><path d="M600.3209671150518,449.2575h10v0.7425000000000068h-10Z" style="fill: #3580b1;"></path><path d="M608.2242601538065,449.6175h10v0.3824999999999932h-10Z" style="fill: #3580b1;"></path><path d="M616.1275531925612,449.8875h10v0.11250000000001137h-10Z" style="fill: #3580b1;"></path><path d="M624.030846231316,449.7525h10v0.24750000000000227h-10Z" style="fill: #3580b1;"></path><path d="M631.9341392700707,449.37h10v0.6299999999999955h-10Z" style="fill: #3580b1;"></path><path d="M639.8374323088254,449.30249999999995h10v0.6975000000000477h-10Z" style="fill: #3580b1;"></path><path d="M647.7407253475801,449.32500000000005h10v0.6749999999999545h-10Z" style="fill: #3580b1;"></path><path d="M655.6440183863348,449.46000000000004h10v0.5399999999999636h-10Z" style="fill: #3580b1;"></path><path d="M663.5473114250894,450h10v0h-10Z" style="fill: #3580b1;"></path><path d="M671.4506044638442,450h10v0h-10Z" style="fill: #3580b1;"></path><path d="M679.3538975025989,449.9775h10v0.022499999999979536h-10Z" style="fill: #3580b1;"></path><path d="M687.2571905413537,449.5275h10v0.472500000000025h-10Z" style="fill: #3580b1;"></path><path d="M695.1604835801083,450h10v0h-10Z" style="fill: #3580b1;"></path><path d="M703.0637766188631,449.28h10v0.7200000000000273h-10Z" style="fill: #3580b1;"></path><path d="M710.9670696576178,449.865h10v0.1349999999999909h-10Z" style="fill: #3580b1;"></path><path d="M718.8703626963726,449.6175h10v0.3824999999999932h-10Z" style="fill: #3580b1;"></path><path d="M726.7736557351272,449.9775h10v0.022499999999979536h-10Z" style="fill: #3580b1;"></path><path d="M734.6769487738819,450h10v0h-10Z" style="fill: #3580b1;"></path><path d="M742.5802418126366,449.1225h10v0.8774999999999977h-10Z" style="fill: #3580b1;"></path><path d="M750.4835348513914,449.865h10v0.1349999999999909h-10Z" style="fill: #3580b1;"></path><path d="M758.386827890146,449.30249999999995h10v0.6975000000000477h-10Z" style="fill: #3580b1;"></path><path d="M766.2901209289008,449.5725h10v0.4275000000000091h-10Z" style="fill: #3580b1;"></path><path d="M774.1934139676555,449.59499999999997h10v0.40500000000002956h-10Z" style="fill: #3580b1;"></path><path d="M782.0967070064103,450h10v0h-10Z" style="fill: #3580b1;"></path><path d="M790.0000000451649,450h10v0h-10Z" style="fill: #3580b1;"></path></g><g class="mark-group role-legend" role="graphics-symbol" aria-roledescription="legend" aria-label="Symbol legend for fill color with 2 values: CDC Labs, US Public Health Labs"><g transform="translate(0,-30)"><path class="background" aria-hidden="true" d="M0,0h215v12h-215Z" style="pointer-events: none; fill: none;"></path><g><g class="mark-group role-legend-entry"><g transform="translate(0,0)"><path class="background" aria-hidden="true" d="M0,0h0v0h0Z" style="pointer-events: none; fill: none;"></path><g><g class="mark-group role-scope" role="graphics-object" aria-roledescription="group mark container"><g transform="translate(0,0.25)"><path class="background" aria-hidden="true" d="M0,0h68.98043823242188v11.5h-68.98043823242188Z" style="pointer-events: none; fill: none; opacity: 1;"></path><g><g class="mark-symbol role-legend-symbol" style="pointer-events: none;"><path transform="translate(6,6)" d="M-5,-5h10v10h-10Z" style="fill: #3580b1; stroke-width: 1.5; opacity: 1;"></path></g><g class="mark-text role-legend-label" style="pointer-events: none;"><text text-anchor="start" transform="translate(16,9)" style="font-family: Benton Gothic, sans; font-size: 11.5px; fill: #000; opacity: 1;">CDC Labs</text></g></g><path class="foreground" aria-hidden="true" d="" style="pointer-events: none; display: none; fill: none;"></path></g><g transform="translate(79,0.25)"><path class="background" aria-hidden="true" d="M0,0h135.54232788085938v11.5h-135.54232788085938Z" style="pointer-events: none; fill: none; opacity: 1;"></path><g><g class="mark-symbol role-legend-symbol" style="pointer-events: none;"><path transform="translate(6,6)" d="M-5,-5h10v10h-10Z" style="fill: #ec8431; stroke-width: 1.5; opacity: 1;"></path></g><g class="mark-text role-legend-label" style="pointer-events: none;"><text text-anchor="start" transform="translate(16,9)" style="font-family: Benton Gothic, sans; font-size: 11.5px; fill: #000; opacity: 1;">US Public Health Labs</text></g></g><path class="foreground" aria-hidden="true" d="" style="pointer-events: none; display: none; fill: none;"></path></g></g></g><path class="foreground" aria-hidden="true" d="" style="pointer-events: none; display: none; fill: none;"></path></g></g></g><path class="foreground" aria-hidden="true" d="" style="pointer-events: none; display: none; fill: none;"></path></g></g><g class="mark-group role-title"><g transform="translate(-45,-71)"><path class="background" aria-hidden="true" d="M0,0h0v0h0Z" style="pointer-events: none; fill: none;"></path><g><g class="mark-text role-title-text" role="graphics-symbol" aria-roledescription="title" aria-label="Title text 'CDC: Daily U.S. coronavirus specimens tested, by lab type'" style="pointer-events: none;"><text text-anchor="start" transform="translate(0,17)" style="font-family: Benton Gothic Bold, sans; font-size: 22px; font-weight: normal; fill: black; opacity: 1;">CDC: Daily U.S. coronavirus specimens tested, by lab type</text></g><g class="mark-text role-title-subtitle" role="graphics-symbol" aria-roledescription="subtitle" aria-label="Subtitle text 'Figures from last four days reported as 'pending''" style="pointer-events: none;"><text text-anchor="start" transform="translate(0,34)" style="font-family: sans-serif; font-size: 12px; fill: gray; opacity: 1;">Figures from last four days reported as 'pending'</text></g></g><path class="foreground" aria-hidden="true" d="" style="pointer-events: none; display: none; fill: none;"></path></g></g></g><path class="foreground" aria-hidden="true" d="" style="display: none; fill: none;"></path></g></g></g></svg>