<svg xmlns="http://www.w3.org/2000/svg" xmlns:xlink="http://www.w3.org/1999/xlink" version="1.1" class="marks" width="662" height="430" viewBox="0 0 662 430"><rect width="662" height="430" fill="#ffffff"/><g fill="none" stroke-miterlimit="10" transform="translate(56,56)"><g class="mark-group role-frame root" role="graphics-object" aria-roledescription="group mark container"><g transform="translate(0,0)"><path class="background" aria-hidden="true" d="M0.5,0.5h600v350h-600Z" stroke="#ddd" stroke-opacity="0"/><g><g class="mark-group role-axis" role="graphics-symbol" aria-roledescription="axis" aria-label="Y-axis for a linear scale with values from 0 to 5"><g transform="translate(0.5,0.5)"><path class="background" aria-hidden="true" d="M0,0h0v0h0Z" pointer-events="none"/><g><g class="mark-rule role-axis-grid" pointer-events="none"><line transform="translate(0,350)" x2="600" y2="0" stroke="#dddddd" stroke-width="1" opacity="1"/><line transform="translate(0,210)" x2="600" y2="0" stroke="#dddddd" stroke-width="1" opacity="1"/><line transform="translate(0,70)" x2="600" y2="0" stroke="#dddddd" stroke-width="1" opacity="1"/></g></g><path class="foreground" aria-hidden="true" d="" pointer-events="none" display="none"/></g></g><g class="mark-group role-axis" role="graphics-symbol" aria-roledescription="axis" aria-label="X-axis for a time scale with values from Tuesday, 23 March 2021, 3:27:27 PM to Wednesday, 05 May 2021, 8:32:32 AM"><g transform="translate(0.5,350.5)"><path class="background" aria-hidden="true" d="M0,0h0v0h0Z" pointer-events="none"/><g><g class="mark-rule role-axis-tick" pointer-events="none"><line transform="translate(61,0)" x2="0" y2="3" stroke="#888" stroke-width="1" opacity="1"/><line transform="translate(160,0)" x2="0" y2="3" stroke="#888" stroke-width="1" opacity="1"/><line transform="translate(258,0)" x2="0" y2="3" stroke="#888" stroke-width="1" opacity="1"/><line transform="translate(356,0)" x2="0" y2="3" stroke="#888" stroke-width="1" opacity="1"/><line transform="translate(455,0)" x2="0" y2="3" stroke="#888" stroke-width="1" opacity="1"/><line transform="translate(553,0)" x2="0" y2="3" stroke="#888" stroke-width="1" opacity="1"/></g><g class="mark-text role-axis-label" pointer-events="none"><text text-anchor="middle" transform="translate(61.19047628822266,16)" font-family="Benton Gothic, sans" font-size="11.5px" font-weight="normal" fill="#000" opacity="1">March 28</text><text text-anchor="middle" transform="translate(159.5238096147815,16)" font-family="Benton Gothic, sans" font-size="11.5px" font-weight="normal" fill="#000" opacity="1">April 4</text><text text-anchor="middle" transform="translate(257.8571429413403,16)" font-family="Benton Gothic, sans" font-size="11.5px" font-weight="normal" fill="#000" opacity="1">April 11</text><text text-anchor="middle" transform="translate(356.1904762678991,16)" font-family="Benton Gothic, sans" font-size="11.5px" font-weight="normal" fill="#000" opacity="1">April 18</text><text text-anchor="middle" transform="translate(454.52380959445793,16)" font-family="Benton Gothic, sans" font-size="11.5px" font-weight="normal" fill="#000" opacity="1">April 25</text><text text-anchor="middle" transform="translate(552.8571429210168,16)" font-family="Benton Gothic, sans" font-size="11.5px" font-weight="normal" fill="#000" opacity="1">May 2</text></g><g class="mark-rule role-axis-domain" pointer-events="none"><line transform="translate(0,0)" x2="600" y2="0" stroke="#888" stroke-width="1" opacity="1"/></g></g><path class="foreground" aria-hidden="true" d="" pointer-events="none" display="none"/></g></g><g class="mark-group role-axis" role="graphics-symbol" aria-roledescription="axis" aria-label="Y-axis titled 'Daily post count and mean' for a linear scale with values from 0 to 5"><g transform="translate(-5.5,0.5)"><path class="background" aria-hidden="true" d="M0,0h0v0h0Z" pointer-events="none"/><g><g class="mark-rule role-axis-tick" pointer-events="none"><line transform="translate(0,350)" x2="0" y2="0" stroke="#888" stroke-width="1" opacity="1"/><line transform="translate(0,210)" x2="0" y2="0" stroke="#888" stroke-width="1" opacity="1"/><line transform="translate(0,70)" x2="0" y2="0" stroke="#888" stroke-width="1" opacity="1"/></g><g class="mark-text role-axis-label" pointer-events="none"><text text-anchor="end" transform="translate(-2,353)" font-family="Benton Gothic, sans" font-size="11.5px" font-weight="normal" fill="#000" opacity="1">0</text><text text-anchor="end" transform="translate(-2,213)" font-family="Benton Gothic, sans" font-size="11.5px" font-weight="normal" fill="#000" opacity="1">2</text><text text-anchor="end" transform="translate(-2,72.99999999999999)" font-family="Benton Gothic, sans" font-size="11.5px" font-weight="normal" fill="#000" opacity="1">4</text></g><g class="mark-rule role-axis-domain" pointer-events="none"><line transform="translate(0,350)" x2="0" y2="-350" stroke="#888" stroke-opacity="0" stroke-width="1" opacity="1"/></g><g class="mark-text role-axis-title" pointer-events="none"><text text-anchor="start" transform="translate(-45,-14)" font-family="Benton Gothic Bold, sans" font-size="13px" font-weight="normal" fill="#000" opacity="1">Daily post count and mean</text></g></g><path class="foreground" aria-hidden="true" d="" pointer-events="none" display="none"/></g></g><g class="mark-rect role-mark layer_0_marks" role="graphics-symbol" aria-roledescription="rect mark container"><path d="M1.0161761387905699e-7,280h10v70h-10Z" fill="#82c6df"/><path d="M28.095238194920135,280h10v70h-10Z" fill="#82c6df"/><path d="M84.28571438152518,280h10v70h-10Z" fill="#82c6df"/><path d="M126.42857152147897,210h10v140h-10Z" fill="#82c6df"/><path d="M140.47619056813022,280h10v70h-10Z" fill="#82c6df"/><path d="M154.5238096147815,280h10v70h-10Z" fill="#82c6df"/><path d="M168.57142866143275,210h10v140h-10Z" fill="#82c6df"/><path d="M182.619047708084,280h10v70h-10Z" fill="#82c6df"/><path d="M196.66666675473527,140h10v210h-10Z" fill="#82c6df"/><path d="M210.71428580138655,140h10v210h-10Z" fill="#82c6df"/><path d="M224.76190484803777,280h10v70h-10Z" fill="#82c6df"/><path d="M266.90476198799155,210h10v140h-10Z" fill="#82c6df"/><path d="M280.9523810346428,210h10v140h-10Z" fill="#82c6df"/><path d="M295.0000000812941,280h10v70h-10Z" fill="#82c6df"/><path d="M309.0476191279453,280h10v70h-10Z" fill="#82c6df"/><path d="M379.28571436120166,280h10v70h-10Z" fill="#82c6df"/><path d="M421.42857150115543,210h10v140h-10Z" fill="#82c6df"/><path d="M435.4761905478067,210h10v140h-10Z" fill="#82c6df"/><path d="M463.5714286411092,280h10v70h-10Z" fill="#82c6df"/><path d="M477.6190476877605,140h10v210h-10Z" fill="#82c6df"/><path d="M491.6666667344117,280h10v70h-10Z" fill="#82c6df"/><path d="M519.7619048277143,280h10v70h-10Z" fill="#82c6df"/><path d="M533.8095238743655,280h10v70h-10Z" fill="#82c6df"/><path d="M561.904761967668,69.99999999999999h10v280h-10Z" fill="#82c6df"/><path d="M575.9523810143194,280h10v70h-10Z" fill="#82c6df"/><path d="M590.0000000609706,69.99999999999999h10v280h-10Z" fill="#82c6df"/></g><g class="mark-rule role-mark layer_1_marks" role="graphics-symbol" aria-roledescription="rule mark container"><line transform="translate(0,231.53846153846152)" x2="600" y2="0" stroke="red"/></g><g class="mark-text role-mark layer_2_marks" role="graphics-object" aria-roledescription="text mark container"><text text-anchor="middle" transform="translate(520,244.53846153846152)" font-family="sans-serif" font-size="11px" font-weight="bold" fill="black">1.7</text></g><g class="mark-group role-title"><g transform="translate(-51,-50)"><path class="background" aria-hidden="true" d="M0,0h0v0h0Z" pointer-events="none"/><g><g class="mark-text role-title-text" role="graphics-symbol" aria-roledescription="title" aria-label="Title text 'Trump posts to the 'desk' since it launched'" pointer-events="none"><text text-anchor="start" transform="translate(0,17)" font-family="Benton Gothic Bold, sans" font-size="22px" font-weight="normal" fill="#000" opacity="1">Trump posts to the 'desk' since it launched</text></g></g><path class="foreground" aria-hidden="true" d="" pointer-events="none" display="none"/></g></g></g><path class="foreground" aria-hidden="true" d="" display="none"/></g></g></g></svg>