<svg xmlns="http://www.w3.org/2000/svg" xmlns:xlink="http://www.w3.org/1999/xlink" version="1.1" class="marks" width="662" height="430" viewBox="0 0 662 430"><rect width="662" height="430" fill="#ffffff"/><g fill="none" stroke-miterlimit="10" transform="translate(56,56)"><g class="mark-group role-frame root" role="graphics-object" aria-roledescription="group mark container"><g transform="translate(0,0)"><path class="background" aria-hidden="true" d="M0.5,0.5h600v350h-600Z" stroke="#ddd" stroke-opacity="0"/><g><g class="mark-group role-axis" role="graphics-symbol" aria-roledescription="axis" aria-label="Y-axis for a linear scale with values from 0 to 5"><g transform="translate(0.5,0.5)"><path class="background" aria-hidden="true" d="M0,0h0v0h0Z" pointer-events="none"/><g><g class="mark-rule role-axis-grid" pointer-events="none"><line transform="translate(0,350)" x2="600" y2="0" stroke="#dddddd" stroke-width="1" opacity="1"/><line transform="translate(0,210)" x2="600" y2="0" stroke="#dddddd" stroke-width="1" opacity="1"/><line transform="translate(0,70)" x2="600" y2="0" stroke="#dddddd" stroke-width="1" opacity="1"/></g></g><path class="foreground" aria-hidden="true" d="" pointer-events="none" display="none"/></g></g><g class="mark-group role-axis" role="graphics-symbol" aria-roledescription="axis" aria-label="X-axis for a time scale with values from Tuesday, 23 March 2021, 3:15:15 PM to Thursday, 06 May 2021, 8:44:44 AM"><g transform="translate(0.5,350.5)"><path class="background" aria-hidden="true" d="M0,0h0v0h0Z" pointer-events="none"/><g><g class="mark-rule role-axis-tick" pointer-events="none"><line transform="translate(60,0)" x2="0" y2="3" stroke="#888" stroke-width="1" opacity="1"/><line transform="translate(156,0)" x2="0" y2="3" stroke="#888" stroke-width="1" opacity="1"/><line transform="translate(252,0)" x2="0" y2="3" stroke="#888" stroke-width="1" opacity="1"/><line transform="translate(348,0)" x2="0" y2="3" stroke="#888" stroke-width="1" opacity="1"/><line transform="translate(444,0)" x2="0" y2="3" stroke="#888" stroke-width="1" opacity="1"/><line transform="translate(540,0)" x2="0" y2="3" stroke="#888" stroke-width="1" opacity="1"/></g><g class="mark-text role-axis-label" pointer-events="none"><text text-anchor="middle" transform="translate(59.88372097624352,16)" font-family="Benton Gothic, sans" font-size="11.5px" font-weight="normal" fill="#000" opacity="1">March 28</text><text text-anchor="middle" transform="translate(155.93023261750753,16)" font-family="Benton Gothic, sans" font-size="11.5px" font-weight="normal" fill="#000" opacity="1">April 4</text><text text-anchor="middle" transform="translate(251.97674425877153,16)" font-family="Benton Gothic, sans" font-size="11.5px" font-weight="normal" fill="#000" opacity="1">April 11</text><text text-anchor="middle" transform="translate(348.02325590003556,16)" font-family="Benton Gothic, sans" font-size="11.5px" font-weight="normal" fill="#000" opacity="1">April 18</text><text text-anchor="middle" transform="translate(444.06976754129954,16)" font-family="Benton Gothic, sans" font-size="11.5px" font-weight="normal" fill="#000" opacity="1">April 25</text><text text-anchor="middle" transform="translate(540.1162791825636,16)" font-family="Benton Gothic, sans" font-size="11.5px" font-weight="normal" fill="#000" opacity="1">May 2</text></g><g class="mark-rule role-axis-domain" pointer-events="none"><line transform="translate(0,0)" x2="600" y2="0" stroke="#888" stroke-width="1" opacity="1"/></g></g><path class="foreground" aria-hidden="true" d="" pointer-events="none" display="none"/></g></g><g class="mark-group role-axis" role="graphics-symbol" aria-roledescription="axis" aria-label="Y-axis titled 'Daily post count and mean' for a linear scale with values from 0 to 5"><g transform="translate(-5.5,0.5)"><path class="background" aria-hidden="true" d="M0,0h0v0h0Z" pointer-events="none"/><g><g class="mark-rule role-axis-tick" pointer-events="none"><line transform="translate(0,350)" x2="0" y2="0" stroke="#888" stroke-width="1" opacity="1"/><line transform="translate(0,210)" x2="0" y2="0" stroke="#888" stroke-width="1" opacity="1"/><line transform="translate(0,70)" x2="0" y2="0" stroke="#888" stroke-width="1" opacity="1"/></g><g class="mark-text role-axis-label" pointer-events="none"><text text-anchor="end" transform="translate(-2,353)" font-family="Benton Gothic, sans" font-size="11.5px" font-weight="normal" fill="#000" opacity="1">0</text><text text-anchor="end" transform="translate(-2,213)" font-family="Benton Gothic, sans" font-size="11.5px" font-weight="normal" fill="#000" opacity="1">2</text><text text-anchor="end" transform="translate(-2,72.99999999999999)" font-family="Benton Gothic, sans" font-size="11.5px" font-weight="normal" fill="#000" opacity="1">4</text></g><g class="mark-rule role-axis-domain" pointer-events="none"><line transform="translate(0,350)" x2="0" y2="-350" stroke="#888" stroke-opacity="0" stroke-width="1" opacity="1"/></g><g class="mark-text role-axis-title" pointer-events="none"><text text-anchor="start" transform="translate(-45,-14)" font-family="Benton Gothic Bold, sans" font-size="13px" font-weight="normal" fill="#000" opacity="1">Daily post count and mean</text></g></g><path class="foreground" aria-hidden="true" d="" pointer-events="none" display="none"/></g></g><g class="mark-rect role-mark layer_0_marks" role="graphics-symbol" aria-roledescription="rect mark container"><path d="M3.837837336817529e-8,280h10v70h-10Z" fill="#82c6df"/><path d="M27.44186050731095,280h10v70h-10Z" fill="#82c6df"/><path d="M82.3255814451761,280h10v70h-10Z" fill="#82c6df"/><path d="M123.48837214857494,210h10v140h-10Z" fill="#82c6df"/><path d="M137.20930238304123,280h10v70h-10Z" fill="#82c6df"/><path d="M150.93023261750753,280h10v70h-10Z" fill="#82c6df"/><path d="M164.65116285197382,210h10v140h-10Z" fill="#82c6df"/><path d="M178.3720930864401,280h10v70h-10Z" fill="#82c6df"/><path d="M192.09302332090635,140h10v210h-10Z" fill="#82c6df"/><path d="M205.81395355537268,140h10v210h-10Z" fill="#82c6df"/><path d="M219.53488378983894,280h10v70h-10Z" fill="#82c6df"/><path d="M260.6976744932378,210h10v140h-10Z" fill="#82c6df"/><path d="M274.4186047277041,210h10v140h-10Z" fill="#82c6df"/><path d="M288.1395349621704,280h10v70h-10Z" fill="#82c6df"/><path d="M301.86046519663665,280h10v70h-10Z" fill="#82c6df"/><path d="M370.4651163689681,280h10v70h-10Z" fill="#82c6df"/><path d="M411.62790707236695,210h10v140h-10Z" fill="#82c6df"/><path d="M425.3488373068332,210h10v140h-10Z" fill="#82c6df"/><path d="M452.79069777576586,280h10v70h-10Z" fill="#82c6df"/><path d="M466.51162801023213,140h10v210h-10Z" fill="#82c6df"/><path d="M480.2325582446984,280h10v70h-10Z" fill="#82c6df"/><path d="M507.674418713631,280h10v70h-10Z" fill="#82c6df"/><path d="M521.3953489480972,280h10v70h-10Z" fill="#82c6df"/><path d="M548.8372094170298,69.99999999999999h10v280h-10Z" fill="#82c6df"/><path d="M562.5581396514962,280h10v70h-10Z" fill="#82c6df"/><path d="M576.2790698859624,69.99999999999999h10v280h-10Z" fill="#82c6df"/><path d="M590.0000001204287,280h10v70h-10Z" fill="#82c6df"/></g><g class="mark-rule role-mark layer_1_marks" role="graphics-symbol" aria-roledescription="rule mark container"><line transform="translate(0,233.33333333333331)" x2="600" y2="0" stroke="red"/></g><g class="mark-text role-mark layer_2_marks" role="graphics-object" aria-roledescription="text mark container"><text text-anchor="middle" transform="translate(520,246.33333333333331)" font-family="sans-serif" font-size="11px" font-weight="bold" fill="black">1.7</text></g><g class="mark-group role-title"><g transform="translate(-51,-50)"><path class="background" aria-hidden="true" d="M0,0h0v0h0Z" pointer-events="none"/><g><g class="mark-text role-title-text" role="graphics-symbol" aria-roledescription="title" aria-label="Title text 'Trump posts to the 'desk' since it launched'" pointer-events="none"><text text-anchor="start" transform="translate(0,17)" font-family="Benton Gothic Bold, sans" font-size="22px" font-weight="normal" fill="#000" opacity="1">Trump posts to the 'desk' since it launched</text></g></g><path class="foreground" aria-hidden="true" d="" pointer-events="none" display="none"/></g></g></g><path class="foreground" aria-hidden="true" d="" display="none"/></g></g></g></svg>