<svg class="marks" width="858" height="553" viewBox="0 0 858 553" version="1.1" xmlns="http://www.w3.org/2000/svg" xmlns:xlink="http://www.w3.org/1999/xlink"><rect width="858" height="553" style="fill: #ffffff;"></rect><g transform="translate(50,62)"><g class="mark-group role-frame root"><g transform="translate(0,0)"><path class="background" d="M0.5,0.5h800v450h-800Z" style="fill: none; stroke: #ddd;"></path><g><g class="mark-group role-axis"><g transform="translate(0.5,450.5)"><path class="background" d="M0,0h0v0h0Z" style="pointer-events: none; fill: none;"></path><g><g class="mark-rule role-axis-grid" style="pointer-events: none;"><line transform="translate(21,-450)" x2="0" y2="450" style="fill: none; stroke: #ddd; stroke-width: 1; opacity: 1;"></line><line transform="translate(134,-450)" x2="0" y2="450" style="fill: none; stroke: #ddd; stroke-width: 1; opacity: 1;"></line><line transform="translate(247,-450)" x2="0" y2="450" style="fill: none; stroke: #ddd; stroke-width: 1; opacity: 1;"></line><line transform="translate(360,-450)" x2="0" y2="450" style="fill: none; stroke: #ddd; stroke-width: 1; opacity: 1;"></line><line transform="translate(473,-450)" x2="0" y2="450" style="fill: none; stroke: #ddd; stroke-width: 1; opacity: 1;"></line><line transform="translate(585,-450)" x2="0" y2="450" style="fill: none; stroke: #ddd; stroke-width: 1; opacity: 1;"></line><line transform="translate(698,-450)" x2="0" y2="450" style="fill: none; stroke: #ddd; stroke-width: 1; opacity: 1;"></line></g></g><path class="foreground" d="" style="pointer-events: none; display: none; fill: none;"></path></g></g><g class="mark-group role-axis"><g transform="translate(0.5,0.5)"><path class="background" d="M0,0h0v0h0Z" style="pointer-events: none; fill: none;"></path><g><g class="mark-rule role-axis-grid" style="pointer-events: none;"><line transform="translate(0,450)" x2="800" y2="0" style="fill: none; stroke: #ddd; stroke-width: 1; opacity: 1;"></line><line transform="translate(0,415)" x2="800" y2="0" style="fill: none; stroke: #ddd; stroke-width: 1; opacity: 1;"></line><line transform="translate(0,381)" x2="800" y2="0" style="fill: none; stroke: #ddd; stroke-width: 1; opacity: 1;"></line><line transform="translate(0,346)" x2="800" y2="0" style="fill: none; stroke: #ddd; stroke-width: 1; opacity: 1;"></line><line transform="translate(0,312)" x2="800" y2="0" style="fill: none; stroke: #ddd; stroke-width: 1; opacity: 1;"></line><line transform="translate(0,277)" x2="800" y2="0" style="fill: none; stroke: #ddd; stroke-width: 1; opacity: 1;"></line><line transform="translate(0,242)" x2="800" y2="0" style="fill: none; stroke: #ddd; stroke-width: 1; opacity: 1;"></line><line transform="translate(0,208)" x2="800" y2="0" style="fill: none; stroke: #ddd; stroke-width: 1; opacity: 1;"></line><line transform="translate(0,173)" x2="800" y2="0" style="fill: none; stroke: #ddd; stroke-width: 1; opacity: 1;"></line><line transform="translate(0,138)" x2="800" y2="0" style="fill: none; stroke: #ddd; stroke-width: 1; opacity: 1;"></line><line transform="translate(0,104)" x2="800" y2="0" style="fill: none; stroke: #ddd; stroke-width: 1; opacity: 1;"></line><line transform="translate(0,69)" x2="800" y2="0" style="fill: none; stroke: #ddd; stroke-width: 1; opacity: 1;"></line><line transform="translate(0,35)" x2="800" y2="0" style="fill: none; stroke: #ddd; stroke-width: 1; opacity: 1;"></line><line transform="translate(0,0)" x2="800" y2="0" style="fill: none; stroke: #ddd; stroke-width: 1; opacity: 1;"></line></g></g><path class="foreground" d="" style="pointer-events: none; display: none; fill: none;"></path></g></g><g class="mark-group role-axis"><g transform="translate(0.5,450.5)"><path class="background" d="M0,0h0v0h0Z" style="pointer-events: none; fill: none;"></path><g><g class="mark-rule role-axis-tick" style="pointer-events: none;"><line transform="translate(21,0)" x2="0" y2="3" style="fill: none; stroke: #888; stroke-width: 1; opacity: 1;"></line><line transform="translate(134,0)" x2="0" y2="3" style="fill: none; stroke: #888; stroke-width: 1; opacity: 1;"></line><line transform="translate(247,0)" x2="0" y2="3" style="fill: none; stroke: #888; stroke-width: 1; opacity: 1;"></line><line transform="translate(360,0)" x2="0" y2="3" style="fill: none; stroke: #888; stroke-width: 1; opacity: 1;"></line><line transform="translate(473,0)" x2="0" y2="3" style="fill: none; stroke: #888; stroke-width: 1; opacity: 1;"></line><line transform="translate(585,0)" x2="0" y2="3" style="fill: none; stroke: #888; stroke-width: 1; opacity: 1;"></line><line transform="translate(698,0)" x2="0" y2="3" style="fill: none; stroke: #888; stroke-width: 1; opacity: 1;"></line></g><g class="mark-text role-axis-label" style="pointer-events: none;"><text text-anchor="middle" transform="translate(21.122449035977183,16)" style="font-family: Benton Gothic, sans; font-size: 11.5px; font-weight: normal; fill: #000; opacity: 1;">Jan 19</text><text text-anchor="middle" transform="translate(133.97959190411626,16)" style="font-family: Benton Gothic, sans; font-size: 11.5px; font-weight: normal; fill: #000; opacity: 1;">Jan 26</text><text text-anchor="middle" transform="translate(246.8367347722553,16)" style="font-family: Benton Gothic, sans; font-size: 11.5px; font-weight: normal; fill: #000; opacity: 1;">Feb 02</text><text text-anchor="middle" transform="translate(359.6938776403944,16)" style="font-family: Benton Gothic, sans; font-size: 11.5px; font-weight: normal; fill: #000; opacity: 1;">Feb 09</text><text text-anchor="middle" transform="translate(472.55102050853344,16)" style="font-family: Benton Gothic, sans; font-size: 11.5px; font-weight: normal; fill: #000; opacity: 1;">Feb 16</text><text text-anchor="middle" transform="translate(585.4081633766725,16)" style="font-family: Benton Gothic, sans; font-size: 11.5px; font-weight: normal; fill: #000; opacity: 1;">Feb 23</text><text text-anchor="middle" transform="translate(698.2653062448117,16)" style="font-family: Benton Gothic, sans; font-size: 11.5px; font-weight: normal; fill: #000; opacity: 1;">March</text></g><g class="mark-rule role-axis-domain" style="pointer-events: none;"><line transform="translate(0,0)" x2="800" y2="0" style="fill: none; stroke: #888; stroke-width: 1; opacity: 1;"></line></g><g class="mark-text role-axis-title" style="pointer-events: none;"><text text-anchor="middle" transform="translate(400,32.5)" style="font-family: Benton Gothic Bold, sans; font-size: 13px; font-weight: normal; fill: #000; opacity: 1;">Date</text></g></g><path class="foreground" d="" style="pointer-events: none; display: none; fill: none;"></path></g></g><g class="mark-group role-axis"><g transform="translate(0.5,0.5)"><path class="background" d="M0,0h0v0h0Z" style="pointer-events: none; fill: none;"></path><g><g class="mark-rule role-axis-tick" style="pointer-events: none;"><line transform="translate(0,450)" x2="-2" y2="0" style="fill: none; stroke: #888; stroke-width: 1; opacity: 1;"></line><line transform="translate(0,415)" x2="-2" y2="0" style="fill: none; stroke: #888; stroke-width: 1; opacity: 1;"></line><line transform="translate(0,381)" x2="-2" y2="0" style="fill: none; stroke: #888; stroke-width: 1; opacity: 1;"></line><line transform="translate(0,346)" x2="-2" y2="0" style="fill: none; stroke: #888; stroke-width: 1; opacity: 1;"></line><line transform="translate(0,312)" x2="-2" y2="0" style="fill: none; stroke: #888; stroke-width: 1; opacity: 1;"></line><line transform="translate(0,277)" x2="-2" y2="0" style="fill: none; stroke: #888; stroke-width: 1; opacity: 1;"></line><line transform="translate(0,242)" x2="-2" y2="0" style="fill: none; stroke: #888; stroke-width: 1; opacity: 1;"></line><line transform="translate(0,208)" x2="-2" y2="0" style="fill: none; stroke: #888; stroke-width: 1; opacity: 1;"></line><line transform="translate(0,173)" x2="-2" y2="0" style="fill: none; stroke: #888; stroke-width: 1; opacity: 1;"></line><line transform="translate(0,138)" x2="-2" y2="0" style="fill: none; stroke: #888; stroke-width: 1; opacity: 1;"></line><line transform="translate(0,104)" x2="-2" y2="0" style="fill: none; stroke: #888; stroke-width: 1; opacity: 1;"></line><line transform="translate(0,69)" x2="-2" y2="0" style="fill: none; stroke: #888; stroke-width: 1; opacity: 1;"></line><line transform="translate(0,35)" x2="-2" y2="0" style="fill: none; stroke: #888; stroke-width: 1; opacity: 1;"></line><line transform="translate(0,0)" x2="-2" y2="0" style="fill: none; stroke: #888; stroke-width: 1; opacity: 1;"></line></g><g class="mark-text role-axis-label" style="pointer-events: none;"><text text-anchor="end" transform="translate(-4,453)" style="font-family: Benton Gothic, sans; font-size: 11.5px; font-weight: normal; fill: #000; opacity: 1;">0</text><text text-anchor="end" transform="translate(-4,418.3846153846154)" style="font-family: Benton Gothic, sans; font-size: 11.5px; font-weight: normal; fill: #000; opacity: 1;">100</text><text text-anchor="end" transform="translate(-4,383.7692307692308)" style="font-family: Benton Gothic, sans; font-size: 11.5px; font-weight: normal; fill: #000; opacity: 1;">200</text><text text-anchor="end" transform="translate(-4,349.15384615384613)" style="font-family: Benton Gothic, sans; font-size: 11.5px; font-weight: normal; fill: #000; opacity: 1;">300</text><text text-anchor="end" transform="translate(-4,314.53846153846155)" style="font-family: Benton Gothic, sans; font-size: 11.5px; font-weight: normal; fill: #000; opacity: 1;">400</text><text text-anchor="end" transform="translate(-4,279.92307692307696)" style="font-family: Benton Gothic, sans; font-size: 11.5px; font-weight: normal; fill: #000; opacity: 1;">500</text><text text-anchor="end" transform="translate(-4,245.3076923076923)" style="font-family: Benton Gothic, sans; font-size: 11.5px; font-weight: normal; fill: #000; opacity: 1;">600</text><text text-anchor="end" transform="translate(-4,210.6923076923077)" style="font-family: Benton Gothic, sans; font-size: 11.5px; font-weight: normal; fill: #000; opacity: 1;">700</text><text text-anchor="end" transform="translate(-4,176.07692307692307)" style="font-family: Benton Gothic, sans; font-size: 11.5px; font-weight: normal; fill: #000; opacity: 1;">800</text><text text-anchor="end" transform="translate(-4,141.46153846153848)" style="font-family: Benton Gothic, sans; font-size: 11.5px; font-weight: normal; fill: #000; opacity: 1;">900</text><text text-anchor="end" transform="translate(-4,106.84615384615383)" style="font-family: Benton Gothic, sans; font-size: 11.5px; font-weight: normal; fill: #000; opacity: 1;">1,000</text><text text-anchor="end" transform="translate(-4,72.23076923076924)" style="font-family: Benton Gothic, sans; font-size: 11.5px; font-weight: normal; fill: #000; opacity: 1;">1,100</text><text text-anchor="end" transform="translate(-4,37.61538461538459)" style="font-family: Benton Gothic, sans; font-size: 11.5px; font-weight: normal; fill: #000; opacity: 1;">1,200</text><text text-anchor="end" transform="translate(-4,3)" style="font-family: Benton Gothic, sans; font-size: 11.5px; font-weight: normal; fill: #000; opacity: 1;">1,300</text></g><g class="mark-rule role-axis-domain" style="pointer-events: none;"><line transform="translate(0,450)" x2="0" y2="-450" style="fill: none; stroke: #888; stroke-width: 1; opacity: 1;"></line></g></g><path class="foreground" d="" style="pointer-events: none; display: none; fill: none;"></path></g></g><g class="mark-rect role-mark marks"><path d="M-2.4999999451855395,448.6153846153846h15v0h-15Z" style="fill: #ec8431;"></path><path d="M13.622449035977183,450h15v0h-15Z" style="fill: #ec8431;"></path><path d="M29.74489801713991,447.57692307692304h15v0h-15Z" style="fill: #ec8431;"></path><path d="M45.86734699830264,447.57692307692304h15v0h-15Z" style="fill: #ec8431;"></path><path d="M61.989795979465356,444.1153846153846h15v0h-15Z" style="fill: #ec8431;"></path><path d="M78.11224496062808,429.9230769230769h15v0h-15Z" style="fill: #ec8431;"></path><path d="M94.2346939417908,422.65384615384613h15v0h-15Z" style="fill: #ec8431;"></path><path d="M110.35714292295353,394.6153846153846h15v0h-15Z" style="fill: #ec8431;"></path><path d="M126.47959190411626,420.2307692307692h15v0h-15Z" style="fill: #ec8431;"></path><path d="M142.602040885279,396.6923076923077h15v0h-15Z" style="fill: #ec8431;"></path><path d="M158.72448986644173,420.9230769230769h15v0h-15Z" style="fill: #ec8431;"></path><path d="M174.84693884760443,310.1538461538462h15v0h-15Z" style="fill: #ec8431;"></path><path d="M190.96938782876714,389.42307692307696h15v0h-15Z" style="fill: #ec8431;"></path><path d="M207.09183680992987,410.53846153846155h15v0h-15Z" style="fill: #ec8431;"></path><path d="M223.2142857910926,433.7307692307692h15v0h-15Z" style="fill: #ec8431;"></path><path d="M239.3367347722553,431.65384615384613h15v0h-15Z" style="fill: #ec8431;"></path><path d="M255.45918375341807,416.7692307692308h15v0h-15Z" style="fill: #ec8431;"></path><path d="M271.58163273458075,425.0769230769231h15v0h-15Z" style="fill: #ec8431;"></path><path d="M287.7040817157435,420.2307692307692h15v0h-15Z" style="fill: #ec8431;"></path><path d="M303.8265306969062,428.1923076923077h15v0.346153846153868h-15Z" style="fill: #ec8431;"></path><path d="M319.94897967806895,421.2692307692308h15v0h-15Z" style="fill: #ec8431;"></path><path d="M336.0714286592317,437.19230769230774h15v0h-15Z" style="fill: #ec8431;"></path><path d="M352.1938776403944,433.7307692307692h15v0.6923076923076792h-15Z" style="fill: #ec8431;"></path><path d="M368.3163266215571,426.11538461538464h15v0h-15Z" style="fill: #ec8431;"></path><path d="M384.43877560271983,432.6923076923077h15v0h-15Z" style="fill: #ec8431;"></path><path d="M400.5612245838826,437.53846153846155h15v0h-15Z" style="fill: #ec8431;"></path><path d="M416.6836735650453,436.5h15v0h-15Z" style="fill: #ec8431;"></path><path d="M432.80612254620803,435.1153846153846h15v1.3846153846154152h-15Z" style="fill: #ec8431;"></path><path d="M448.92857152737076,445.1538461538462h15v1.0384615384615472h-15Z" style="fill: #ec8431;"></path><path d="M465.05102050853344,445.8461538461538h15v0h-15Z" style="fill: #ec8431;"></path><path d="M481.1734694896962,419.53846153846155h15v9h-15Z" style="fill: #ec8431;"></path><path d="M497.29591847085896,426.8076923076923h15v0.6923076923076792h-15Z" style="fill: #ec8431;"></path><path d="M513.4183674520216,430.2692307692308h15v1.0384615384615472h-15Z" style="fill: #ec8431;"></path><path d="M529.5408164331843,371.7692307692308h15v0h-15Z" style="fill: #ec8431;"></path><path d="M545.663265414347,349.61538461538464h15v0h-15Z" style="fill: #ec8431;"></path><path d="M561.7857143955099,441h15v1.0384615384615472h-15Z" style="fill: #ec8431;"></path><path d="M577.9081633766725,433.38461538461536h15v0.692307692307736h-15Z" style="fill: #ec8431;"></path><path d="M594.0306123578353,429.9230769230769h15v4.153846153846189h-15Z" style="fill: #ec8431;"></path><path d="M610.153061338998,408.46153846153845h15v3.807692307692264h-15Z" style="fill: #ec8431;"></path><path d="M626.2755103201607,420.2307692307692h15v7.961538461538453h-15Z" style="fill: #ec8431;"></path><path d="M642.3979593013235,376.2692307692308h15v37.730769230769226h-15Z" style="fill: #ec8431;"></path><path d="M658.5204082824862,370.03846153846155h15v49.5h-15Z" style="fill: #ec8431;"></path><path d="M674.6428572636488,334.03846153846155h15v86.88461538461536h-15Z" style="fill: #ec8431;"></path><path d="M690.7653062448117,359.3076923076923h15v66.46153846153845h-15Z" style="fill: #ec8431;"></path><path d="M706.8877552259744,255.46153846153848h15v158.19230769230765h-15Z" style="fill: #ec8431;"></path><path d="M723.0102042071371,208.03846153846155h15v230.19230769230768h-15Z" style="fill: #ec8431;"></path><path d="M739.1326531882997,102.1153846153846h15v325.03846153846155h-15Z" style="fill: #ec8431;"></path><path d="M755.2551021694625,18.692307692307686h15v412.61538461538464h-15Z" style="fill: #ec8431;"></path><path d="M771.3775511506253,44.65384615384615h15v399.8076923076923h-15Z" style="fill: #ec8431;"></path><path d="M787.5000001317879,122.19230769230768h15v327.8076923076923h-15Z" style="fill: #ec8431;"></path><path d="M-2.4999999451855395,448.6153846153846h15v1.3846153846154152h-15Z" style="fill: #3580b1;"></path><path d="M13.622449035977183,450h15v0h-15Z" style="fill: #3580b1;"></path><path d="M29.74489801713991,447.57692307692304h15v2.4230769230769624h-15Z" style="fill: #3580b1;"></path><path d="M45.86734699830264,447.57692307692304h15v2.4230769230769624h-15Z" style="fill: #3580b1;"></path><path d="M61.989795979465356,444.1153846153846h15v5.884615384615415h-15Z" style="fill: #3580b1;"></path><path d="M78.11224496062808,429.9230769230769h15v20.076923076923094h-15Z" style="fill: #3580b1;"></path><path d="M94.2346939417908,422.65384615384613h15v27.346153846153868h-15Z" style="fill: #3580b1;"></path><path d="M110.35714292295353,394.6153846153846h15v55.384615384615415h-15Z" style="fill: #3580b1;"></path><path d="M126.47959190411626,420.2307692307692h15v29.769230769230774h-15Z" style="fill: #3580b1;"></path><path d="M142.602040885279,396.6923076923077h15v53.30769230769232h-15Z" style="fill: #3580b1;"></path><path d="M158.72448986644173,420.9230769230769h15v29.076923076923094h-15Z" style="fill: #3580b1;"></path><path d="M174.84693884760443,310.1538461538462h15v139.8461538461538h-15Z" style="fill: #3580b1;"></path><path d="M190.96938782876714,389.42307692307696h15v60.57692307692304h-15Z" style="fill: #3580b1;"></path><path d="M207.09183680992987,410.53846153846155h15v39.46153846153845h-15Z" style="fill: #3580b1;"></path><path d="M223.2142857910926,433.7307692307692h15v16.269230769230774h-15Z" style="fill: #3580b1;"></path><path d="M239.3367347722553,431.65384615384613h15v18.346153846153868h-15Z" style="fill: #3580b1;"></path><path d="M255.45918375341807,416.7692307692308h15v33.230769230769226h-15Z" style="fill: #3580b1;"></path><path d="M271.58163273458075,425.0769230769231h15v24.923076923076906h-15Z" style="fill: #3580b1;"></path><path d="M287.7040817157435,420.2307692307692h15v29.769230769230774h-15Z" style="fill: #3580b1;"></path><path d="M303.8265306969062,428.53846153846155h15v21.461538461538453h-15Z" style="fill: #3580b1;"></path><path d="M319.94897967806895,421.2692307692308h15v28.730769230769226h-15Z" style="fill: #3580b1;"></path><path d="M336.0714286592317,437.19230769230774h15v12.807692307692264h-15Z" style="fill: #3580b1;"></path><path d="M352.1938776403944,434.4230769230769h15v15.576923076923094h-15Z" style="fill: #3580b1;"></path><path d="M368.3163266215571,426.11538461538464h15v23.88461538461536h-15Z" style="fill: #3580b1;"></path><path d="M384.43877560271983,432.6923076923077h15v17.30769230769232h-15Z" style="fill: #3580b1;"></path><path d="M400.5612245838826,437.53846153846155h15v12.461538461538453h-15Z" style="fill: #3580b1;"></path><path d="M416.6836735650453,436.5h15v13.5h-15Z" style="fill: #3580b1;"></path><path d="M432.80612254620803,436.5h15v13.5h-15Z" style="fill: #3580b1;"></path><path d="M448.92857152737076,446.19230769230774h15v3.807692307692264h-15Z" style="fill: #3580b1;"></path><path d="M465.05102050853344,445.8461538461538h15v4.153846153846189h-15Z" style="fill: #3580b1;"></path><path d="M481.1734694896962,428.53846153846155h15v21.461538461538453h-15Z" style="fill: #3580b1;"></path><path d="M497.29591847085896,427.5h15v22.5h-15Z" style="fill: #3580b1;"></path><path d="M513.4183674520216,431.3076923076923h15v18.69230769230768h-15Z" style="fill: #3580b1;"></path><path d="M529.5408164331843,371.7692307692308h15v78.23076923076923h-15Z" style="fill: #3580b1;"></path><path d="M545.663265414347,349.61538461538464h15v100.38461538461536h-15Z" style="fill: #3580b1;"></path><path d="M561.7857143955099,442.03846153846155h15v7.961538461538453h-15Z" style="fill: #3580b1;"></path><path d="M577.9081633766725,434.0769230769231h15v15.923076923076906h-15Z" style="fill: #3580b1;"></path><path d="M594.0306123578353,434.0769230769231h15v15.923076923076906h-15Z" style="fill: #3580b1;"></path><path d="M610.153061338998,412.2692307692307h15v37.73076923076928h-15Z" style="fill: #3580b1;"></path><path d="M626.2755103201607,428.1923076923077h15v21.80769230769232h-15Z" style="fill: #3580b1;"></path><path d="M642.3979593013235,414h15v36h-15Z" style="fill: #3580b1;"></path><path d="M658.5204082824862,419.53846153846155h15v30.461538461538453h-15Z" style="fill: #3580b1;"></path><path d="M674.6428572636488,420.9230769230769h15v29.076923076923094h-15Z" style="fill: #3580b1;"></path><path d="M690.7653062448117,425.7692307692308h15v24.230769230769226h-15Z" style="fill: #3580b1;"></path><path d="M706.8877552259744,413.65384615384613h15v36.34615384615387h-15Z" style="fill: #3580b1;"></path><path d="M723.0102042071371,438.2307692307692h15v11.769230769230774h-15Z" style="fill: #3580b1;"></path><path d="M739.1326531882997,427.15384615384613h15v22.846153846153868h-15Z" style="fill: #3580b1;"></path><path d="M755.2551021694625,431.3076923076923h15v18.69230769230768h-15Z" style="fill: #3580b1;"></path><path d="M771.3775511506253,444.46153846153845h15v5.538461538461547h-15Z" style="fill: #3580b1;"></path><path d="M787.5000001317879,450h15v0h-15Z" style="fill: #3580b1;"></path></g><g class="mark-group role-legend"><g transform="translate(0,-30)"><path class="background" d="M0,0h207v12h-207Z" style="pointer-events: none; fill: none;"></path><g><g class="mark-group role-legend-entry"><g transform="translate(0,0)"><path class="background" d="M0,0h0v0h0Z" style="pointer-events: none; fill: none;"></path><g><g class="mark-group role-scope"><g transform="translate(0,0.25)"><path class="background" d="M0,0h62.4599609375v11.5h-62.4599609375Z" style="pointer-events: none; fill: none; opacity: 1;"></path><g><g class="mark-symbol role-legend-symbol" style="pointer-events: none;"><path transform="translate(6,6)" d="M-5,-5h10v10h-10Z" style="fill: #3580b1; stroke-width: 1.5; opacity: 1;"></path></g><g class="mark-text role-legend-label" style="pointer-events: none;"><text text-anchor="start" transform="translate(16,9)" style="font-family: Benton Gothic, sans; font-size: 11.5px; fill: #000; opacity: 1;">cdc_labs</text></g></g><path class="foreground" d="" style="pointer-events: none; display: none; fill: none;"></path></g><g transform="translate(73,0.25)"><path class="background" d="M0,0h133.3228759765625v11.5h-133.3228759765625Z" style="pointer-events: none; fill: none; opacity: 1;"></path><g><g class="mark-symbol role-legend-symbol" style="pointer-events: none;"><path transform="translate(6,6)" d="M-5,-5h10v10h-10Z" style="fill: #ec8431; stroke-width: 1.5; opacity: 1;"></path></g><g class="mark-text role-legend-label" style="pointer-events: none;"><text text-anchor="start" transform="translate(16,9)" style="font-family: Benton Gothic, sans; font-size: 11.5px; fill: #000; opacity: 1;">us_public_health_labs</text></g></g><path class="foreground" d="" style="pointer-events: none; display: none; fill: none;"></path></g></g></g><path class="foreground" d="" style="pointer-events: none; display: none; fill: none;"></path></g></g></g><path class="foreground" d="" style="pointer-events: none; display: none; fill: none;"></path></g></g><g class="mark-group role-title"><g transform="translate(-45,-56)"><path class="background" d="M0,0h0v0h0Z" style="pointer-events: none; fill: none;"></path><g><g class="mark-text role-title-text" style="pointer-events: none;"><text text-anchor="start" transform="translate(0,17)" style="font-family: Benton Gothic Bold, sans; font-size: 22px; font-weight: normal; fill: #000; opacity: 1;">CDC: Daily U.S. coronavirus tests by lab type</text></g></g><path class="foreground" d="" style="pointer-events: none; display: none; fill: none;"></path></g></g></g><path class="foreground" d="" style="display: none; fill: none;"></path></g></g></g></svg>