<svg class="marks" width="870" height="553" viewBox="0 0 870 553" version="1.1" xmlns="http://www.w3.org/2000/svg" xmlns:xlink="http://www.w3.org/1999/xlink"><rect width="870" height="553" style="fill: #ffffff;"></rect><g transform="translate(50,62)"><g class="mark-group role-frame root"><g transform="translate(0,0)"><path class="background" d="M0.5,0.5h800v450h-800Z" style="fill: none; stroke: #ddd;"></path><g><g class="mark-group role-axis"><g transform="translate(0.5,450.5)"><path class="background" d="M0,0h0v0h0Z" style="pointer-events: none; fill: none;"></path><g><g class="mark-rule role-axis-grid" style="pointer-events: none;"><line transform="translate(21,0)" x2="0" y2="-450" style="fill: none; stroke: #ddd; stroke-width: 1; opacity: 1;"></line><line transform="translate(131,0)" x2="0" y2="-450" style="fill: none; stroke: #ddd; stroke-width: 1; opacity: 1;"></line><line transform="translate(242,0)" x2="0" y2="-450" style="fill: none; stroke: #ddd; stroke-width: 1; opacity: 1;"></line><line transform="translate(353,0)" x2="0" y2="-450" style="fill: none; stroke: #ddd; stroke-width: 1; opacity: 1;"></line><line transform="translate(463,0)" x2="0" y2="-450" style="fill: none; stroke: #ddd; stroke-width: 1; opacity: 1;"></line><line transform="translate(574,0)" x2="0" y2="-450" style="fill: none; stroke: #ddd; stroke-width: 1; opacity: 1;"></line><line transform="translate(684,0)" x2="0" y2="-450" style="fill: none; stroke: #ddd; stroke-width: 1; opacity: 1;"></line><line transform="translate(795,0)" x2="0" y2="-450" style="fill: none; stroke: #ddd; stroke-width: 1; opacity: 1;"></line></g></g><path class="foreground" d="" style="pointer-events: none; display: none; fill: none;"></path></g></g><g class="mark-group role-axis"><g transform="translate(0.5,450.5)"><path class="background" d="M0,0h0v0h0Z" style="pointer-events: none; fill: none;"></path><g><g class="mark-rule role-axis-tick" style="pointer-events: none;"><line transform="translate(21,0)" x2="0" y2="3" style="fill: none; stroke: #888; stroke-width: 1; opacity: 1;"></line><line transform="translate(131,0)" x2="0" y2="3" style="fill: none; stroke: #888; stroke-width: 1; opacity: 1;"></line><line transform="translate(242,0)" x2="0" y2="3" style="fill: none; stroke: #888; stroke-width: 1; opacity: 1;"></line><line transform="translate(353,0)" x2="0" y2="3" style="fill: none; stroke: #888; stroke-width: 1; opacity: 1;"></line><line transform="translate(463,0)" x2="0" y2="3" style="fill: none; stroke: #888; stroke-width: 1; opacity: 1;"></line><line transform="translate(574,0)" x2="0" y2="3" style="fill: none; stroke: #888; stroke-width: 1; opacity: 1;"></line><line transform="translate(684,0)" x2="0" y2="3" style="fill: none; stroke: #888; stroke-width: 1; opacity: 1;"></line><line transform="translate(795,0)" x2="0" y2="3" style="fill: none; stroke: #888; stroke-width: 1; opacity: 1;"></line></g><g class="mark-text role-axis-label" style="pointer-events: none;"><text text-anchor="middle" transform="translate(20.80000015178241,16)" style="font-family: Benton Gothic, sans; font-size: 11.5px; font-weight: normal; fill: #000; opacity: 1;">Jan 19</text><text text-anchor="middle" transform="translate(131.40000013418114,16)" style="font-family: Benton Gothic, sans; font-size: 11.5px; font-weight: normal; fill: #000; opacity: 1;">Jan 26</text><text text-anchor="middle" transform="translate(242.00000011657986,16)" style="font-family: Benton Gothic, sans; font-size: 11.5px; font-weight: normal; fill: #000; opacity: 1;">Feb 02</text><text text-anchor="middle" transform="translate(352.60000009897857,16)" style="font-family: Benton Gothic, sans; font-size: 11.5px; font-weight: normal; fill: #000; opacity: 1;">Feb 09</text><text text-anchor="middle" transform="translate(463.20000008137725,16)" style="font-family: Benton Gothic, sans; font-size: 11.5px; font-weight: normal; fill: #000; opacity: 1;">Feb 16</text><text text-anchor="middle" transform="translate(573.800000063776,16)" style="font-family: Benton Gothic, sans; font-size: 11.5px; font-weight: normal; fill: #000; opacity: 1;">Feb 23</text><text text-anchor="middle" transform="translate(684.4000000461747,16)" style="font-family: Benton Gothic, sans; font-size: 11.5px; font-weight: normal; fill: #000; opacity: 1;">March</text><text text-anchor="middle" transform="translate(795.0000000285735,16)" style="font-family: Benton Gothic, sans; font-size: 11.5px; font-weight: normal; fill: #000; opacity: 1;">Mar 08</text></g><g class="mark-rule role-axis-domain" style="pointer-events: none;"><line transform="translate(0,0)" x2="800" y2="0" style="fill: none; stroke: #888; stroke-width: 1; opacity: 1;"></line></g><g class="mark-text role-axis-title" style="pointer-events: none;"><text text-anchor="middle" transform="translate(400,32.5)" style="font-family: Benton Gothic Bold, sans; font-size: 13px; font-weight: normal; fill: #000; opacity: 1;">Date</text></g></g><path class="foreground" d="" style="pointer-events: none; display: none; fill: none;"></path></g></g><g class="mark-group role-axis"><g transform="translate(0.5,0.5)"><path class="background" d="M0,0h0v0h0Z" style="pointer-events: none; fill: none;"></path><g><g class="mark-rule role-axis-tick" style="pointer-events: none;"><line transform="translate(0,3)" x2="-2" y2="0" style="fill: none; stroke: #888; stroke-width: 1; opacity: 1;"></line><line transform="translate(0,11)" x2="-2" y2="0" style="fill: none; stroke: #888; stroke-width: 1; opacity: 1;"></line><line transform="translate(0,19)" x2="-2" y2="0" style="fill: none; stroke: #888; stroke-width: 1; opacity: 1;"></line><line transform="translate(0,26)" x2="-2" y2="0" style="fill: none; stroke: #888; stroke-width: 1; opacity: 1;"></line><line transform="translate(0,34)" x2="-2" y2="0" style="fill: none; stroke: #888; stroke-width: 1; opacity: 1;"></line><line transform="translate(0,41)" x2="-2" y2="0" style="fill: none; stroke: #888; stroke-width: 1; opacity: 1;"></line><line transform="translate(0,49)" x2="-2" y2="0" style="fill: none; stroke: #888; stroke-width: 1; opacity: 1;"></line><line transform="translate(0,57)" x2="-2" y2="0" style="fill: none; stroke: #888; stroke-width: 1; opacity: 1;"></line><line transform="translate(0,64)" x2="-2" y2="0" style="fill: none; stroke: #888; stroke-width: 1; opacity: 1;"></line><line transform="translate(0,72)" x2="-2" y2="0" style="fill: none; stroke: #888; stroke-width: 1; opacity: 1;"></line><line transform="translate(0,80)" x2="-2" y2="0" style="fill: none; stroke: #888; stroke-width: 1; opacity: 1;"></line><line transform="translate(0,87)" x2="-2" y2="0" style="fill: none; stroke: #888; stroke-width: 1; opacity: 1;"></line><line transform="translate(0,95)" x2="-2" y2="0" style="fill: none; stroke: #888; stroke-width: 1; opacity: 1;"></line><line transform="translate(0,102)" x2="-2" y2="0" style="fill: none; stroke: #888; stroke-width: 1; opacity: 1;"></line><line transform="translate(0,110)" x2="-2" y2="0" style="fill: none; stroke: #888; stroke-width: 1; opacity: 1;"></line><line transform="translate(0,118)" x2="-2" y2="0" style="fill: none; stroke: #888; stroke-width: 1; opacity: 1;"></line><line transform="translate(0,125)" x2="-2" y2="0" style="fill: none; stroke: #888; stroke-width: 1; opacity: 1;"></line><line transform="translate(0,133)" x2="-2" y2="0" style="fill: none; stroke: #888; stroke-width: 1; opacity: 1;"></line><line transform="translate(0,141)" x2="-2" y2="0" style="fill: none; stroke: #888; stroke-width: 1; opacity: 1;"></line><line transform="translate(0,148)" x2="-2" y2="0" style="fill: none; stroke: #888; stroke-width: 1; opacity: 1;"></line><line transform="translate(0,156)" x2="-2" y2="0" style="fill: none; stroke: #888; stroke-width: 1; opacity: 1;"></line><line transform="translate(0,163)" x2="-2" y2="0" style="fill: none; stroke: #888; stroke-width: 1; opacity: 1;"></line><line transform="translate(0,171)" x2="-2" y2="0" style="fill: none; stroke: #888; stroke-width: 1; opacity: 1;"></line><line transform="translate(0,179)" x2="-2" y2="0" style="fill: none; stroke: #888; stroke-width: 1; opacity: 1;"></line><line transform="translate(0,186)" x2="-2" y2="0" style="fill: none; stroke: #888; stroke-width: 1; opacity: 1;"></line><line transform="translate(0,194)" x2="-2" y2="0" style="fill: none; stroke: #888; stroke-width: 1; opacity: 1;"></line><line transform="translate(0,202)" x2="-2" y2="0" style="fill: none; stroke: #888; stroke-width: 1; opacity: 1;"></line><line transform="translate(0,209)" x2="-2" y2="0" style="fill: none; stroke: #888; stroke-width: 1; opacity: 1;"></line><line transform="translate(0,217)" x2="-2" y2="0" style="fill: none; stroke: #888; stroke-width: 1; opacity: 1;"></line><line transform="translate(0,225)" x2="-2" y2="0" style="fill: none; stroke: #888; stroke-width: 1; opacity: 1;"></line><line transform="translate(0,232)" x2="-2" y2="0" style="fill: none; stroke: #888; stroke-width: 1; opacity: 1;"></line><line transform="translate(0,240)" x2="-2" y2="0" style="fill: none; stroke: #888; stroke-width: 1; opacity: 1;"></line><line transform="translate(0,247)" x2="-2" y2="0" style="fill: none; stroke: #888; stroke-width: 1; opacity: 1;"></line><line transform="translate(0,255)" x2="-2" y2="0" style="fill: none; stroke: #888; stroke-width: 1; opacity: 1;"></line><line transform="translate(0,263)" x2="-2" y2="0" style="fill: none; stroke: #888; stroke-width: 1; opacity: 1;"></line><line transform="translate(0,270)" x2="-2" y2="0" style="fill: none; stroke: #888; stroke-width: 1; opacity: 1;"></line><line transform="translate(0,278)" x2="-2" y2="0" style="fill: none; stroke: #888; stroke-width: 1; opacity: 1;"></line><line transform="translate(0,286)" x2="-2" y2="0" style="fill: none; stroke: #888; stroke-width: 1; opacity: 1;"></line><line transform="translate(0,293)" x2="-2" y2="0" style="fill: none; stroke: #888; stroke-width: 1; opacity: 1;"></line><line transform="translate(0,301)" x2="-2" y2="0" style="fill: none; stroke: #888; stroke-width: 1; opacity: 1;"></line><line transform="translate(0,308)" x2="-2" y2="0" style="fill: none; stroke: #888; stroke-width: 1; opacity: 1;"></line><line transform="translate(0,316)" x2="-2" y2="0" style="fill: none; stroke: #888; stroke-width: 1; opacity: 1;"></line><line transform="translate(0,324)" x2="-2" y2="0" style="fill: none; stroke: #888; stroke-width: 1; opacity: 1;"></line><line transform="translate(0,331)" x2="-2" y2="0" style="fill: none; stroke: #888; stroke-width: 1; opacity: 1;"></line><line transform="translate(0,339)" x2="-2" y2="0" style="fill: none; stroke: #888; stroke-width: 1; opacity: 1;"></line><line transform="translate(0,347)" x2="-2" y2="0" style="fill: none; stroke: #888; stroke-width: 1; opacity: 1;"></line><line transform="translate(0,354)" x2="-2" y2="0" style="fill: none; stroke: #888; stroke-width: 1; opacity: 1;"></line><line transform="translate(0,362)" x2="-2" y2="0" style="fill: none; stroke: #888; stroke-width: 1; opacity: 1;"></line><line transform="translate(0,369)" x2="-2" y2="0" style="fill: none; stroke: #888; stroke-width: 1; opacity: 1;"></line><line transform="translate(0,377)" x2="-2" y2="0" style="fill: none; stroke: #888; stroke-width: 1; opacity: 1;"></line><line transform="translate(0,385)" x2="-2" y2="0" style="fill: none; stroke: #888; stroke-width: 1; opacity: 1;"></line><line transform="translate(0,392)" x2="-2" y2="0" style="fill: none; stroke: #888; stroke-width: 1; opacity: 1;"></line><line transform="translate(0,400)" x2="-2" y2="0" style="fill: none; stroke: #888; stroke-width: 1; opacity: 1;"></line><line transform="translate(0,408)" x2="-2" y2="0" style="fill: none; stroke: #888; stroke-width: 1; opacity: 1;"></line><line transform="translate(0,415)" x2="-2" y2="0" style="fill: none; stroke: #888; stroke-width: 1; opacity: 1;"></line><line transform="translate(0,423)" x2="-2" y2="0" style="fill: none; stroke: #888; stroke-width: 1; opacity: 1;"></line><line transform="translate(0,430)" x2="-2" y2="0" style="fill: none; stroke: #888; stroke-width: 1; opacity: 1;"></line><line transform="translate(0,438)" x2="-2" y2="0" style="fill: none; stroke: #888; stroke-width: 1; opacity: 1;"></line><line transform="translate(0,446)" x2="-2" y2="0" style="fill: none; stroke: #888; stroke-width: 1; opacity: 1;"></line></g><g class="mark-text role-axis-label" style="pointer-events: none;"><text text-anchor="end" transform="translate(-4,6.313559322033914)" style="font-family: Benton Gothic, sans; font-size: 11.5px; font-weight: normal; fill: #000; opacity: 1;">NaN</text><text text-anchor="end" transform="translate(-4,13.94067796610171)" style="font-family: Benton Gothic, sans; font-size: 11.5px; font-weight: normal; fill: #000; opacity: 1;">0</text><text text-anchor="end" transform="translate(-4,21.56779661016951)" style="font-family: Benton Gothic, sans; font-size: 11.5px; font-weight: normal; fill: #000; opacity: 1;">1</text><text text-anchor="end" transform="translate(-4,29.194915254237305)" style="font-family: Benton Gothic, sans; font-size: 11.5px; font-weight: normal; fill: #000; opacity: 1;">2</text><text text-anchor="end" transform="translate(-4,36.8220338983051)" style="font-family: Benton Gothic, sans; font-size: 11.5px; font-weight: normal; fill: #000; opacity: 1;">3</text><text text-anchor="end" transform="translate(-4,44.4491525423729)" style="font-family: Benton Gothic, sans; font-size: 11.5px; font-weight: normal; fill: #000; opacity: 1;">4</text><text text-anchor="end" transform="translate(-4,52.07627118644069)" style="font-family: Benton Gothic, sans; font-size: 11.5px; font-weight: normal; fill: #000; opacity: 1;">5</text><text text-anchor="end" transform="translate(-4,59.703389830508485)" style="font-family: Benton Gothic, sans; font-size: 11.5px; font-weight: normal; fill: #000; opacity: 1;">7</text><text text-anchor="end" transform="translate(-4,67.33050847457629)" style="font-family: Benton Gothic, sans; font-size: 11.5px; font-weight: normal; fill: #000; opacity: 1;">10</text><text text-anchor="end" transform="translate(-4,74.95762711864408)" style="font-family: Benton Gothic, sans; font-size: 11.5px; font-weight: normal; fill: #000; opacity: 1;">11</text><text text-anchor="end" transform="translate(-4,82.58474576271188)" style="font-family: Benton Gothic, sans; font-size: 11.5px; font-weight: normal; fill: #000; opacity: 1;">13</text><text text-anchor="end" transform="translate(-4,90.21186440677967)" style="font-family: Benton Gothic, sans; font-size: 11.5px; font-weight: normal; fill: #000; opacity: 1;">23</text><text text-anchor="end" transform="translate(-4,97.83898305084747)" style="font-family: Benton Gothic, sans; font-size: 11.5px; font-weight: normal; fill: #000; opacity: 1;">24</text><text text-anchor="end" transform="translate(-4,105.46610169491527)" style="font-family: Benton Gothic, sans; font-size: 11.5px; font-weight: normal; fill: #000; opacity: 1;">26</text><text text-anchor="end" transform="translate(-4,113.09322033898306)" style="font-family: Benton Gothic, sans; font-size: 11.5px; font-weight: normal; fill: #000; opacity: 1;">31</text><text text-anchor="end" transform="translate(-4,120.72033898305087)" style="font-family: Benton Gothic, sans; font-size: 11.5px; font-weight: normal; fill: #000; opacity: 1;">32</text><text text-anchor="end" transform="translate(-4,128.34745762711867)" style="font-family: Benton Gothic, sans; font-size: 11.5px; font-weight: normal; fill: #000; opacity: 1;">33</text><text text-anchor="end" transform="translate(-4,135.97457627118646)" style="font-family: Benton Gothic, sans; font-size: 11.5px; font-weight: normal; fill: #000; opacity: 1;">36</text><text text-anchor="end" transform="translate(-4,143.60169491525426)" style="font-family: Benton Gothic, sans; font-size: 11.5px; font-weight: normal; fill: #000; opacity: 1;">37</text><text text-anchor="end" transform="translate(-4,151.22881355932205)" style="font-family: Benton Gothic, sans; font-size: 11.5px; font-weight: normal; fill: #000; opacity: 1;">47</text><text text-anchor="end" transform="translate(-4,158.85593220338984)" style="font-family: Benton Gothic, sans; font-size: 11.5px; font-weight: normal; fill: #000; opacity: 1;">50</text><text text-anchor="end" transform="translate(-4,166.48305084745763)" style="font-family: Benton Gothic, sans; font-size: 11.5px; font-weight: normal; fill: #000; opacity: 1;">51</text><text text-anchor="end" transform="translate(-4,174.11016949152543)" style="font-family: Benton Gothic, sans; font-size: 11.5px; font-weight: normal; fill: #000; opacity: 1;">53</text><text text-anchor="end" transform="translate(-4,181.73728813559325)" style="font-family: Benton Gothic, sans; font-size: 11.5px; font-weight: normal; fill: #000; opacity: 1;">55</text><text text-anchor="end" transform="translate(-4,189.36440677966104)" style="font-family: Benton Gothic, sans; font-size: 11.5px; font-weight: normal; fill: #000; opacity: 1;">56</text><text text-anchor="end" transform="translate(-4,196.99152542372883)" style="font-family: Benton Gothic, sans; font-size: 11.5px; font-weight: normal; fill: #000; opacity: 1;">62</text><text text-anchor="end" transform="translate(-4,204.61864406779662)" style="font-family: Benton Gothic, sans; font-size: 11.5px; font-weight: normal; fill: #000; opacity: 1;">63</text><text text-anchor="end" transform="translate(-4,212.24576271186442)" style="font-family: Benton Gothic, sans; font-size: 11.5px; font-weight: normal; fill: #000; opacity: 1;">65</text><text text-anchor="end" transform="translate(-4,219.8728813559322)" style="font-family: Benton Gothic, sans; font-size: 11.5px; font-weight: normal; fill: #000; opacity: 1;">67</text><text text-anchor="end" transform="translate(-4,227.50000000000003)" style="font-family: Benton Gothic, sans; font-size: 11.5px; font-weight: normal; fill: #000; opacity: 1;">73</text><text text-anchor="end" transform="translate(-4,235.12711864406782)" style="font-family: Benton Gothic, sans; font-size: 11.5px; font-weight: normal; fill: #000; opacity: 1;">74</text><text text-anchor="end" transform="translate(-4,242.7542372881356)" style="font-family: Benton Gothic, sans; font-size: 11.5px; font-weight: normal; fill: #000; opacity: 1;">77</text><text text-anchor="end" transform="translate(-4,250.3813559322034)" style="font-family: Benton Gothic, sans; font-size: 11.5px; font-weight: normal; fill: #000; opacity: 1;">78</text><text text-anchor="end" transform="translate(-4,258.00847457627117)" style="font-family: Benton Gothic, sans; font-size: 11.5px; font-weight: normal; fill: #000; opacity: 1;">79</text><text text-anchor="end" transform="translate(-4,265.63559322033905)" style="font-family: Benton Gothic, sans; font-size: 11.5px; font-weight: normal; fill: #000; opacity: 1;">80</text><text text-anchor="end" transform="translate(-4,273.2627118644068)" style="font-family: Benton Gothic, sans; font-size: 11.5px; font-weight: normal; fill: #000; opacity: 1;">86</text><text text-anchor="end" transform="translate(-4,280.88983050847463)" style="font-family: Benton Gothic, sans; font-size: 11.5px; font-weight: normal; fill: #000; opacity: 1;">93</text><text text-anchor="end" transform="translate(-4,288.5169491525424)" style="font-family: Benton Gothic, sans; font-size: 11.5px; font-weight: normal; fill: #000; opacity: 1;">94</text><text text-anchor="end" transform="translate(-4,296.1440677966102)" style="font-family: Benton Gothic, sans; font-size: 11.5px; font-weight: normal; fill: #000; opacity: 1;">95</text><text text-anchor="end" transform="translate(-4,303.77118644067804)" style="font-family: Benton Gothic, sans; font-size: 11.5px; font-weight: normal; fill: #000; opacity: 1;">101</text><text text-anchor="end" transform="translate(-4,311.3983050847458)" style="font-family: Benton Gothic, sans; font-size: 11.5px; font-weight: normal; fill: #000; opacity: 1;">102</text><text text-anchor="end" transform="translate(-4,319.0254237288136)" style="font-family: Benton Gothic, sans; font-size: 11.5px; font-weight: normal; fill: #000; opacity: 1;">104</text><text text-anchor="end" transform="translate(-4,326.6525423728814)" style="font-family: Benton Gothic, sans; font-size: 11.5px; font-weight: normal; fill: #000; opacity: 1;">105</text><text text-anchor="end" transform="translate(-4,334.2796610169492)" style="font-family: Benton Gothic, sans; font-size: 11.5px; font-weight: normal; fill: #000; opacity: 1;">109</text><text text-anchor="end" transform="translate(-4,341.90677966101697)" style="font-family: Benton Gothic, sans; font-size: 11.5px; font-weight: normal; fill: #000; opacity: 1;">131</text><text text-anchor="end" transform="translate(-4,349.5338983050848)" style="font-family: Benton Gothic, sans; font-size: 11.5px; font-weight: normal; fill: #000; opacity: 1;">137</text><text text-anchor="end" transform="translate(-4,357.1610169491526)" style="font-family: Benton Gothic, sans; font-size: 11.5px; font-weight: normal; fill: #000; opacity: 1;">144</text><text text-anchor="end" transform="translate(-4,364.7881355932204)" style="font-family: Benton Gothic, sans; font-size: 11.5px; font-weight: normal; fill: #000; opacity: 1;">198</text><text text-anchor="end" transform="translate(-4,372.4152542372882)" style="font-family: Benton Gothic, sans; font-size: 11.5px; font-weight: normal; fill: #000; opacity: 1;">249</text><text text-anchor="end" transform="translate(-4,380.04237288135596)" style="font-family: Benton Gothic, sans; font-size: 11.5px; font-weight: normal; fill: #000; opacity: 1;">252</text><text text-anchor="end" transform="translate(-4,387.6694915254238)" style="font-family: Benton Gothic, sans; font-size: 11.5px; font-weight: normal; fill: #000; opacity: 1;">255</text><text text-anchor="end" transform="translate(-4,395.29661016949154)" style="font-family: Benton Gothic, sans; font-size: 11.5px; font-weight: normal; fill: #000; opacity: 1;">256</text><text text-anchor="end" transform="translate(-4,402.92372881355936)" style="font-family: Benton Gothic, sans; font-size: 11.5px; font-weight: normal; fill: #000; opacity: 1;">310</text><text text-anchor="end" transform="translate(-4,410.5508474576272)" style="font-family: Benton Gothic, sans; font-size: 11.5px; font-weight: normal; fill: #000; opacity: 1;">477</text><text text-anchor="end" transform="translate(-4,418.17796610169495)" style="font-family: Benton Gothic, sans; font-size: 11.5px; font-weight: normal; fill: #000; opacity: 1;">688</text><text text-anchor="end" transform="translate(-4,425.80508474576277)" style="font-family: Benton Gothic, sans; font-size: 11.5px; font-weight: normal; fill: #000; opacity: 1;">995</text><text text-anchor="end" transform="translate(-4,433.43220338983053)" style="font-family: Benton Gothic, sans; font-size: 11.5px; font-weight: normal; fill: #000; opacity: 1;">1162</text><text text-anchor="end" transform="translate(-4,441.05932203389835)" style="font-family: Benton Gothic, sans; font-size: 11.5px; font-weight: normal; fill: #000; opacity: 1;">1338</text><text text-anchor="end" transform="translate(-4,448.6864406779662)" style="font-family: Benton Gothic, sans; font-size: 11.5px; font-weight: normal; fill: #000; opacity: 1;">1438</text></g><g class="mark-rule role-axis-domain" style="pointer-events: none;"><line transform="translate(0,0)" x2="0" y2="450" style="fill: none; stroke: #888; stroke-width: 1; opacity: 1;"></line></g></g><path class="foreground" d="" style="pointer-events: none; display: none; fill: none;"></path></g></g><g class="mark-rect role-mark marks"><path d="M-2.499999845703125,34.4491525423729h15v15h-15Z" style="fill: #3580b1;"></path><path d="M13.30000015178241,3.9406779661017097h15v15h-15Z" style="fill: #3580b1;"></path><path d="M29.10000014926794,49.703389830508485h15v15h-15Z" style="fill: #3580b1;"></path><path d="M44.90000014675347,26.8220338983051h15v15h-15Z" style="fill: #3580b1;"></path><path d="M60.700000144239,57.33050847457629h15v15h-15Z" style="fill: #3580b1;"></path><path d="M76.50000014172454,125.97457627118646h15v15h-15Z" style="fill: #3580b1;"></path><path d="M92.30000013921007,164.11016949152543h15v15h-15Z" style="fill: #3580b1;"></path><path d="M108.1000001366956,293.77118644067804h15v15h-15Z" style="fill: #3580b1;"></path><path d="M123.90000013418114,248.0084745762712h15v15h-15Z" style="fill: #3580b1;"></path><path d="M139.70000013166668,232.7542372881356h15v15h-15Z" style="fill: #3580b1;"></path><path d="M155.5000001291522,202.24576271186442h15v15h-15Z" style="fill: #3580b1;"></path><path d="M171.3000001266377,301.3983050847458h15v15h-15Z" style="fill: #3580b1;"></path><path d="M187.10000012412326,385.29661016949154h15v15h-15Z" style="fill: #3580b1;"></path><path d="M202.90000012160877,194.61864406779662h15v15h-15Z" style="fill: #3580b1;"></path><path d="M218.70000011909434,392.92372881355936h15v15h-15Z" style="fill: #3580b1;"></path><path d="M234.50000011657986,118.34745762711866h15v15h-15Z" style="fill: #3580b1;"></path><path d="M250.30000011406543,331.90677966101697h15v15h-15Z" style="fill: #3580b1;"></path><path d="M266.1000001115509,270.88983050847463h15v15h-15Z" style="fill: #3580b1;"></path><path d="M281.90000010903645,309.0254237288136h15v15h-15Z" style="fill: #3580b1;"></path><path d="M297.700000106522,225.12711864406782h15v15h-15Z" style="fill: #3580b1;"></path><path d="M313.5000001040075,270.88983050847463h15v15h-15Z" style="fill: #3580b1;"></path><path d="M329.3000001014931,248.0084745762712h15v15h-15Z" style="fill: #3580b1;"></path><path d="M345.10000009897857,125.97457627118646h15v15h-15Z" style="fill: #3580b1;"></path><path d="M360.90000009646417,133.60169491525426h15v15h-15Z" style="fill: #3580b1;"></path><path d="M376.70000009394965,286.1440677966102h15v15h-15Z" style="fill: #3580b1;"></path><path d="M392.5000000914352,179.36440677966104h15v15h-15Z" style="fill: #3580b1;"></path><path d="M408.30000008892074,141.22881355932205h15v15h-15Z" style="fill: #3580b1;"></path><path d="M424.1000000864062,125.97457627118646h15v15h-15Z" style="fill: #3580b1;"></path><path d="M439.90000008389177,156.48305084745763h15v15h-15Z" style="fill: #3580b1;"></path><path d="M455.70000008137725,87.83898305084747h15v15h-15Z" style="fill: #3580b1;"></path><path d="M471.50000007886285,49.703389830508485h15v15h-15Z" style="fill: #3580b1;"></path><path d="M487.3000000763484,110.72033898305087h15v15h-15Z" style="fill: #3580b1;"></path><path d="M503.1000000738339,194.61864406779662h15v15h-15Z" style="fill: #3580b1;"></path><path d="M518.9000000713194,171.73728813559325h15v15h-15Z" style="fill: #3580b1;"></path><path d="M534.7000000688049,362.4152542372882h15v15h-15Z" style="fill: #3580b1;"></path><path d="M550.5000000662906,377.6694915254238h15v15h-15Z" style="fill: #3580b1;"></path><path d="M566.300000063776,209.8728813559322h15v15h-15Z" style="fill: #3580b1;"></path><path d="M582.1000000612615,148.85593220338984h15v15h-15Z" style="fill: #3580b1;"></path><path d="M597.9000000587471,148.85593220338984h15v15h-15Z" style="fill: #3580b1;"></path><path d="M613.7000000562327,255.63559322033905h15v15h-15Z" style="fill: #3580b1;"></path><path d="M629.5000000537182,186.99152542372883h15v15h-15Z" style="fill: #3580b1;"></path><path d="M645.3000000512037,263.2627118644068h15v15h-15Z" style="fill: #3580b1;"></path><path d="M661.1000000486893,255.63559322033905h15v15h-15Z" style="fill: #3580b1;"></path><path d="M676.9000000461747,103.09322033898306h15v15h-15Z" style="fill: #3580b1;"></path><path d="M692.7000000436603,278.5169491525424h15v15h-15Z" style="fill: #3580b1;"></path><path d="M708.5000000411459,217.50000000000003h15v15h-15Z" style="fill: #3580b1;"></path><path d="M724.3000000386314,316.6525423728814h15v15h-15Z" style="fill: #3580b1;"></path><path d="M740.1000000361169,240.3813559322034h15v15h-15Z" style="fill: #3580b1;"></path><path d="M755.9000000336024,42.07627118644069h15v15h-15Z" style="fill: #3580b1;"></path><path d="M771.700000031088,339.5338983050848h15v15h-15Z" style="fill: #3580b1;"></path><path d="M787.5000000285735,-3.686440677966086h15v15h-15Z" style="fill: #3580b1;"></path><path d="M-2.499999845703125,3.9406779661017097h15v15h-15Z" style="fill: #ec8431;"></path><path d="M13.30000015178241,3.9406779661017097h15v15h-15Z" style="fill: #ec8431;"></path><path d="M29.10000014926794,3.9406779661017097h15v15h-15Z" style="fill: #ec8431;"></path><path d="M44.90000014675347,3.9406779661017097h15v15h-15Z" style="fill: #ec8431;"></path><path d="M60.700000144239,3.9406779661017097h15v15h-15Z" style="fill: #ec8431;"></path><path d="M76.50000014172454,3.9406779661017097h15v15h-15Z" style="fill: #ec8431;"></path><path d="M92.30000013921007,3.9406779661017097h15v15h-15Z" style="fill: #ec8431;"></path><path d="M108.1000001366956,3.9406779661017097h15v15h-15Z" style="fill: #ec8431;"></path><path d="M123.90000013418114,3.9406779661017097h15v15h-15Z" style="fill: #ec8431;"></path><path d="M139.70000013166668,3.9406779661017097h15v15h-15Z" style="fill: #ec8431;"></path><path d="M155.5000001291522,3.9406779661017097h15v15h-15Z" style="fill: #ec8431;"></path><path d="M171.3000001266377,3.9406779661017097h15v15h-15Z" style="fill: #ec8431;"></path><path d="M187.10000012412326,3.9406779661017097h15v15h-15Z" style="fill: #ec8431;"></path><path d="M202.90000012160877,3.9406779661017097h15v15h-15Z" style="fill: #ec8431;"></path><path d="M218.70000011909434,3.9406779661017097h15v15h-15Z" style="fill: #ec8431;"></path><path d="M234.50000011657986,3.9406779661017097h15v15h-15Z" style="fill: #ec8431;"></path><path d="M250.30000011406543,3.9406779661017097h15v15h-15Z" style="fill: #ec8431;"></path><path d="M266.1000001115509,3.9406779661017097h15v15h-15Z" style="fill: #ec8431;"></path><path d="M281.90000010903645,3.9406779661017097h15v15h-15Z" style="fill: #ec8431;"></path><path d="M297.700000106522,11.567796610169509h15v15h-15Z" style="fill: #ec8431;"></path><path d="M313.5000001040075,3.9406779661017097h15v15h-15Z" style="fill: #ec8431;"></path><path d="M329.3000001014931,3.9406779661017097h15v15h-15Z" style="fill: #ec8431;"></path><path d="M345.10000009897857,19.194915254237305h15v15h-15Z" style="fill: #ec8431;"></path><path d="M360.90000009646417,3.9406779661017097h15v15h-15Z" style="fill: #ec8431;"></path><path d="M376.70000009394965,3.9406779661017097h15v15h-15Z" style="fill: #ec8431;"></path><path d="M392.5000000914352,3.9406779661017097h15v15h-15Z" style="fill: #ec8431;"></path><path d="M408.30000008892074,3.9406779661017097h15v15h-15Z" style="fill: #ec8431;"></path><path d="M424.1000000864062,34.4491525423729h15v15h-15Z" style="fill: #ec8431;"></path><path d="M439.90000008389177,26.8220338983051h15v15h-15Z" style="fill: #ec8431;"></path><path d="M455.70000008137725,3.9406779661017097h15v15h-15Z" style="fill: #ec8431;"></path><path d="M471.50000007886285,95.46610169491527h15v15h-15Z" style="fill: #ec8431;"></path><path d="M487.3000000763484,19.194915254237305h15v15h-15Z" style="fill: #ec8431;"></path><path d="M503.1000000738339,26.8220338983051h15v15h-15Z" style="fill: #ec8431;"></path><path d="M518.9000000713194,3.9406779661017097h15v15h-15Z" style="fill: #ec8431;"></path><path d="M534.7000000688049,11.567796610169509h15v15h-15Z" style="fill: #ec8431;"></path><path d="M550.5000000662906,26.8220338983051h15v15h-15Z" style="fill: #ec8431;"></path><path d="M566.300000063776,19.194915254237305h15v15h-15Z" style="fill: #ec8431;"></path><path d="M582.1000000612615,72.58474576271188h15v15h-15Z" style="fill: #ec8431;"></path><path d="M597.9000000587471,64.95762711864408h15v15h-15Z" style="fill: #ec8431;"></path><path d="M613.7000000562327,80.21186440677967h15v15h-15Z" style="fill: #ec8431;"></path><path d="M629.5000000537182,324.2796610169492h15v15h-15Z" style="fill: #ec8431;"></path><path d="M645.3000000512037,347.1610169491526h15v15h-15Z" style="fill: #ec8431;"></path><path d="M661.1000000486893,370.04237288135596h15v15h-15Z" style="fill: #ec8431;"></path><path d="M676.9000000461747,354.7881355932204h15v15h-15Z" style="fill: #ec8431;"></path><path d="M692.7000000436603,400.5508474576272h15v15h-15Z" style="fill: #ec8431;"></path><path d="M708.5000000411459,408.17796610169495h15v15h-15Z" style="fill: #ec8431;"></path><path d="M724.3000000386314,415.80508474576277h15v15h-15Z" style="fill: #ec8431;"></path><path d="M740.1000000361169,431.05932203389835h15v15h-15Z" style="fill: #ec8431;"></path><path d="M755.9000000336024,438.6864406779662h15v15h-15Z" style="fill: #ec8431;"></path><path d="M771.700000031088,423.43220338983053h15v15h-15Z" style="fill: #ec8431;"></path><path d="M787.5000000285735,-3.686440677966086h15v15h-15Z" style="fill: #ec8431;"></path></g><g class="mark-group role-legend"><g transform="translate(0,-30)"><path class="background" d="M0,0h207v12h-207Z" style="pointer-events: none; fill: none;"></path><g><g class="mark-group role-legend-entry"><g transform="translate(0,0)"><path class="background" d="M0,0h0v0h0Z" style="pointer-events: none; fill: none;"></path><g><g class="mark-group role-scope"><g transform="translate(0,0.25)"><path class="background" d="M0,0h62.4599609375v11.5h-62.4599609375Z" style="pointer-events: none; fill: none; opacity: 1;"></path><g><g class="mark-symbol role-legend-symbol" style="pointer-events: none;"><path transform="translate(6,6)" d="M-5,-5h10v10h-10Z" style="fill: #3580b1; stroke-width: 1.5; opacity: 1;"></path></g><g class="mark-text role-legend-label" style="pointer-events: none;"><text text-anchor="start" transform="translate(16,9)" style="font-family: Benton Gothic, sans; font-size: 11.5px; fill: #000; opacity: 1;">cdc_labs</text></g></g><path class="foreground" d="" style="pointer-events: none; display: none; fill: none;"></path></g><g transform="translate(73,0.25)"><path class="background" d="M0,0h133.3228759765625v11.5h-133.3228759765625Z" style="pointer-events: none; fill: none; opacity: 1;"></path><g><g class="mark-symbol role-legend-symbol" style="pointer-events: none;"><path transform="translate(6,6)" d="M-5,-5h10v10h-10Z" style="fill: #ec8431; stroke-width: 1.5; opacity: 1;"></path></g><g class="mark-text role-legend-label" style="pointer-events: none;"><text text-anchor="start" transform="translate(16,9)" style="font-family: Benton Gothic, sans; font-size: 11.5px; fill: #000; opacity: 1;">us_public_health_labs</text></g></g><path class="foreground" d="" style="pointer-events: none; display: none; fill: none;"></path></g></g></g><path class="foreground" d="" style="pointer-events: none; display: none; fill: none;"></path></g></g></g><path class="foreground" d="" style="pointer-events: none; display: none; fill: none;"></path></g></g><g class="mark-group role-title"><g transform="translate(-45,-56)"><path class="background" d="M0,0h0v0h0Z" style="pointer-events: none; fill: none;"></path><g><g class="mark-text role-title-text" style="pointer-events: none;"><text text-anchor="start" transform="translate(0,17)" style="font-family: Benton Gothic Bold, sans; font-size: 22px; font-weight: normal; fill: #000; opacity: 1;">CDC: Daily U.S. coronavirus tests by lab type</text></g></g><path class="foreground" d="" style="pointer-events: none; display: none; fill: none;"></path></g></g></g><path class="foreground" d="" style="display: none; fill: none;"></path></g></g></g></svg>