<svg class="marks" width="856" height="568" viewBox="0 0 856 568" version="1.1" xmlns="http://www.w3.org/2000/svg" xmlns:xlink="http://www.w3.org/1999/xlink"><rect width="856" height="568" style="fill: #ffffff;"></rect><g transform="translate(50,77)"><g class="mark-group role-frame root"><g transform="translate(0,0)"><path class="background" d="M0.5,0.5h800v450h-800Z" style="fill: none; stroke: #ddd;"></path><g><g class="mark-group role-axis"><g transform="translate(0.5,450.5)"><path class="background" d="M0,0h0v0h0Z" style="pointer-events: none; fill: none;"></path><g><g class="mark-rule role-axis-grid" style="pointer-events: none;"><line transform="translate(19,-450)" x2="0" y2="450" style="fill: none; stroke: #ddd; stroke-width: 1; opacity: 1;"></line><line transform="translate(118,-450)" x2="0" y2="450" style="fill: none; stroke: #ddd; stroke-width: 1; opacity: 1;"></line><line transform="translate(217,-450)" x2="0" y2="450" style="fill: none; stroke: #ddd; stroke-width: 1; opacity: 1;"></line><line transform="translate(316,-450)" x2="0" y2="450" style="fill: none; stroke: #ddd; stroke-width: 1; opacity: 1;"></line><line transform="translate(414,-450)" x2="0" y2="450" style="fill: none; stroke: #ddd; stroke-width: 1; opacity: 1;"></line><line transform="translate(513,-450)" x2="0" y2="450" style="fill: none; stroke: #ddd; stroke-width: 1; opacity: 1;"></line><line transform="translate(612,-450)" x2="0" y2="450" style="fill: none; stroke: #ddd; stroke-width: 1; opacity: 1;"></line><line transform="translate(711,-450)" x2="0" y2="450" style="fill: none; stroke: #ddd; stroke-width: 1; opacity: 1;"></line></g></g><path class="foreground" d="" style="pointer-events: none; display: none; fill: none;"></path></g></g><g class="mark-group role-axis"><g transform="translate(0.5,0.5)"><path class="background" d="M0,0h0v0h0Z" style="pointer-events: none; fill: none;"></path><g><g class="mark-rule role-axis-grid" style="pointer-events: none;"><line transform="translate(0,450)" x2="800" y2="0" style="fill: none; stroke: #ddd; stroke-width: 1; opacity: 1;"></line><line transform="translate(0,418)" x2="800" y2="0" style="fill: none; stroke: #ddd; stroke-width: 1; opacity: 1;"></line><line transform="translate(0,386)" x2="800" y2="0" style="fill: none; stroke: #ddd; stroke-width: 1; opacity: 1;"></line><line transform="translate(0,354)" x2="800" y2="0" style="fill: none; stroke: #ddd; stroke-width: 1; opacity: 1;"></line><line transform="translate(0,321)" x2="800" y2="0" style="fill: none; stroke: #ddd; stroke-width: 1; opacity: 1;"></line><line transform="translate(0,289)" x2="800" y2="0" style="fill: none; stroke: #ddd; stroke-width: 1; opacity: 1;"></line><line transform="translate(0,257)" x2="800" y2="0" style="fill: none; stroke: #ddd; stroke-width: 1; opacity: 1;"></line><line transform="translate(0,225)" x2="800" y2="0" style="fill: none; stroke: #ddd; stroke-width: 1; opacity: 1;"></line><line transform="translate(0,193)" x2="800" y2="0" style="fill: none; stroke: #ddd; stroke-width: 1; opacity: 1;"></line><line transform="translate(0,161)" x2="800" y2="0" style="fill: none; stroke: #ddd; stroke-width: 1; opacity: 1;"></line><line transform="translate(0,129)" x2="800" y2="0" style="fill: none; stroke: #ddd; stroke-width: 1; opacity: 1;"></line><line transform="translate(0,96)" x2="800" y2="0" style="fill: none; stroke: #ddd; stroke-width: 1; opacity: 1;"></line><line transform="translate(0,64)" x2="800" y2="0" style="fill: none; stroke: #ddd; stroke-width: 1; opacity: 1;"></line><line transform="translate(0,32)" x2="800" y2="0" style="fill: none; stroke: #ddd; stroke-width: 1; opacity: 1;"></line><line transform="translate(0,0)" x2="800" y2="0" style="fill: none; stroke: #ddd; stroke-width: 1; opacity: 1;"></line></g></g><path class="foreground" d="" style="pointer-events: none; display: none; fill: none;"></path></g></g><g class="mark-group role-axis"><g transform="translate(0.5,450.5)"><path class="background" d="M0,0h0v0h0Z" style="pointer-events: none; fill: none;"></path><g><g class="mark-rule role-axis-tick" style="pointer-events: none;"><line transform="translate(19,0)" x2="0" y2="3" style="fill: none; stroke: #888; stroke-width: 1; opacity: 1;"></line><line transform="translate(118,0)" x2="0" y2="3" style="fill: none; stroke: #888; stroke-width: 1; opacity: 1;"></line><line transform="translate(217,0)" x2="0" y2="3" style="fill: none; stroke: #888; stroke-width: 1; opacity: 1;"></line><line transform="translate(316,0)" x2="0" y2="3" style="fill: none; stroke: #888; stroke-width: 1; opacity: 1;"></line><line transform="translate(414,0)" x2="0" y2="3" style="fill: none; stroke: #888; stroke-width: 1; opacity: 1;"></line><line transform="translate(513,0)" x2="0" y2="3" style="fill: none; stroke: #888; stroke-width: 1; opacity: 1;"></line><line transform="translate(612,0)" x2="0" y2="3" style="fill: none; stroke: #888; stroke-width: 1; opacity: 1;"></line><line transform="translate(711,0)" x2="0" y2="3" style="fill: none; stroke: #888; stroke-width: 1; opacity: 1;"></line></g><g class="mark-text role-axis-label" style="pointer-events: none;"><text text-anchor="middle" transform="translate(19.11764705882353,16)" style="font-family: Benton Gothic, sans; font-size: 11.5px; font-weight: normal; fill: #000; opacity: 1;">Jan 19</text><text text-anchor="middle" transform="translate(117.94117647058823,16)" style="font-family: Benton Gothic, sans; font-size: 11.5px; font-weight: normal; fill: #000; opacity: 1;">Jan 26</text><text text-anchor="middle" transform="translate(216.76470588235293,16)" style="font-family: Benton Gothic, sans; font-size: 11.5px; font-weight: normal; fill: #000; opacity: 1;">Feb 02</text><text text-anchor="middle" transform="translate(315.5882352941176,16)" style="font-family: Benton Gothic, sans; font-size: 11.5px; font-weight: normal; fill: #000; opacity: 1;">Feb 09</text><text text-anchor="middle" transform="translate(414.4117647058824,16)" style="font-family: Benton Gothic, sans; font-size: 11.5px; font-weight: normal; fill: #000; opacity: 1;">Feb 16</text><text text-anchor="middle" transform="translate(513.2352941176471,16)" style="font-family: Benton Gothic, sans; font-size: 11.5px; font-weight: normal; fill: #000; opacity: 1;">Feb 23</text><text text-anchor="middle" transform="translate(612.0588235294117,16)" style="font-family: Benton Gothic, sans; font-size: 11.5px; font-weight: normal; fill: #000; opacity: 1;">March</text><text text-anchor="middle" transform="translate(710.8823529411765,16)" style="font-family: Benton Gothic, sans; font-size: 11.5px; font-weight: normal; fill: #000; opacity: 1;">Mar 08</text></g><g class="mark-rule role-axis-domain" style="pointer-events: none;"><line transform="translate(0,0)" x2="800" y2="0" style="fill: none; stroke: #888; stroke-width: 1; opacity: 1;"></line></g><g class="mark-text role-axis-title" style="pointer-events: none;"><text text-anchor="middle" transform="translate(400,32.5)" style="font-family: Benton Gothic Bold, sans; font-size: 13px; font-weight: normal; fill: #000; opacity: 1;">Date</text></g></g><path class="foreground" d="" style="pointer-events: none; display: none; fill: none;"></path></g></g><g class="mark-group role-axis"><g transform="translate(0.5,0.5)"><path class="background" d="M0,0h0v0h0Z" style="pointer-events: none; fill: none;"></path><g><g class="mark-rule role-axis-tick" style="pointer-events: none;"><line transform="translate(0,450)" x2="-2" y2="0" style="fill: none; stroke: #888; stroke-width: 1; opacity: 1;"></line><line transform="translate(0,418)" x2="-2" y2="0" style="fill: none; stroke: #888; stroke-width: 1; opacity: 1;"></line><line transform="translate(0,386)" x2="-2" y2="0" style="fill: none; stroke: #888; stroke-width: 1; opacity: 1;"></line><line transform="translate(0,354)" x2="-2" y2="0" style="fill: none; stroke: #888; stroke-width: 1; opacity: 1;"></line><line transform="translate(0,321)" x2="-2" y2="0" style="fill: none; stroke: #888; stroke-width: 1; opacity: 1;"></line><line transform="translate(0,289)" x2="-2" y2="0" style="fill: none; stroke: #888; stroke-width: 1; opacity: 1;"></line><line transform="translate(0,257)" x2="-2" y2="0" style="fill: none; stroke: #888; stroke-width: 1; opacity: 1;"></line><line transform="translate(0,225)" x2="-2" y2="0" style="fill: none; stroke: #888; stroke-width: 1; opacity: 1;"></line><line transform="translate(0,193)" x2="-2" y2="0" style="fill: none; stroke: #888; stroke-width: 1; opacity: 1;"></line><line transform="translate(0,161)" x2="-2" y2="0" style="fill: none; stroke: #888; stroke-width: 1; opacity: 1;"></line><line transform="translate(0,129)" x2="-2" y2="0" style="fill: none; stroke: #888; stroke-width: 1; opacity: 1;"></line><line transform="translate(0,96)" x2="-2" y2="0" style="fill: none; stroke: #888; stroke-width: 1; opacity: 1;"></line><line transform="translate(0,64)" x2="-2" y2="0" style="fill: none; stroke: #888; stroke-width: 1; opacity: 1;"></line><line transform="translate(0,32)" x2="-2" y2="0" style="fill: none; stroke: #888; stroke-width: 1; opacity: 1;"></line><line transform="translate(0,0)" x2="-2" y2="0" style="fill: none; stroke: #888; stroke-width: 1; opacity: 1;"></line></g><g class="mark-text role-axis-label" style="pointer-events: none;"><text text-anchor="end" transform="translate(-4,453)" style="font-family: Benton Gothic, sans; font-size: 11.5px; font-weight: normal; fill: #000; opacity: 1;">0</text><text text-anchor="end" transform="translate(-4,420.8571428571429)" style="font-family: Benton Gothic, sans; font-size: 11.5px; font-weight: normal; fill: #000; opacity: 1;">200</text><text text-anchor="end" transform="translate(-4,388.7142857142857)" style="font-family: Benton Gothic, sans; font-size: 11.5px; font-weight: normal; fill: #000; opacity: 1;">400</text><text text-anchor="end" transform="translate(-4,356.57142857142856)" style="font-family: Benton Gothic, sans; font-size: 11.5px; font-weight: normal; fill: #000; opacity: 1;">600</text><text text-anchor="end" transform="translate(-4,324.42857142857144)" style="font-family: Benton Gothic, sans; font-size: 11.5px; font-weight: normal; fill: #000; opacity: 1;">800</text><text text-anchor="end" transform="translate(-4,292.2857142857143)" style="font-family: Benton Gothic, sans; font-size: 11.5px; font-weight: normal; fill: #000; opacity: 1;">1,000</text><text text-anchor="end" transform="translate(-4,260.1428571428571)" style="font-family: Benton Gothic, sans; font-size: 11.5px; font-weight: normal; fill: #000; opacity: 1;">1,200</text><text text-anchor="end" transform="translate(-4,228)" style="font-family: Benton Gothic, sans; font-size: 11.5px; font-weight: normal; fill: #000; opacity: 1;">1,400</text><text text-anchor="end" transform="translate(-4,195.85714285714286)" style="font-family: Benton Gothic, sans; font-size: 11.5px; font-weight: normal; fill: #000; opacity: 1;">1,600</text><text text-anchor="end" transform="translate(-4,163.7142857142857)" style="font-family: Benton Gothic, sans; font-size: 11.5px; font-weight: normal; fill: #000; opacity: 1;">1,800</text><text text-anchor="end" transform="translate(-4,131.57142857142856)" style="font-family: Benton Gothic, sans; font-size: 11.5px; font-weight: normal; fill: #000; opacity: 1;">2,000</text><text text-anchor="end" transform="translate(-4,99.42857142857143)" style="font-family: Benton Gothic, sans; font-size: 11.5px; font-weight: normal; fill: #000; opacity: 1;">2,200</text><text text-anchor="end" transform="translate(-4,67.2857142857143)" style="font-family: Benton Gothic, sans; font-size: 11.5px; font-weight: normal; fill: #000; opacity: 1;">2,400</text><text text-anchor="end" transform="translate(-4,35.14285714285713)" style="font-family: Benton Gothic, sans; font-size: 11.5px; font-weight: normal; fill: #000; opacity: 1;">2,600</text><text text-anchor="end" transform="translate(-4,3)" style="font-family: Benton Gothic, sans; font-size: 11.5px; font-weight: normal; fill: #000; opacity: 1;">2,800</text></g><g class="mark-rule role-axis-domain" style="pointer-events: none;"><line transform="translate(0,450)" x2="0" y2="-450" style="fill: none; stroke: #888; stroke-width: 1; opacity: 1;"></line></g></g><path class="foreground" d="" style="pointer-events: none; display: none; fill: none;"></path></g></g><g class="mark-rect role-mark marks"><path d="M-1,449.35714285714283h12v0h-12Z" style="fill: #ec8431;"></path><path d="M13.117647058823529,450h12v0h-12Z" style="fill: #ec8431;"></path><path d="M27.235294117647058,448.875h12v0h-12Z" style="fill: #ec8431;"></path><path d="M41.35294117647059,449.5178571428571h12v0h-12Z" style="fill: #ec8431;"></path><path d="M55.47058823529412,448.39285714285717h12v0h-12Z" style="fill: #ec8431;"></path><path d="M69.58823529411765,444.2142857142857h12v0h-12Z" style="fill: #ec8431;"></path><path d="M83.70588235294117,441.4821428571429h12v0h-12Z" style="fill: #ec8431;"></path><path d="M97.82352941176471,433.76785714285717h12v0h-12Z" style="fill: #ec8431;"></path><path d="M111.94117647058823,437.3035714285714h12v0h-12Z" style="fill: #ec8431;"></path><path d="M126.05882352941177,437.625h12v0h-12Z" style="fill: #ec8431;"></path><path d="M140.17647058823528,439.5535714285714h12v0h-12Z" style="fill: #ec8431;"></path><path d="M154.29411764705884,433.60714285714283h12v0h-12Z" style="fill: #ec8431;"></path><path d="M168.41176470588235,408.8571428571429h12v0h-12Z" style="fill: #ec8431;"></path><path d="M182.52941176470588,439.875h12v0h-12Z" style="fill: #ec8431;"></path><path d="M196.6470588235294,400.1785714285714h12v0h-12Z" style="fill: #ec8431;"></path><path d="M210.76470588235293,444.69642857142856h12v0h-12Z" style="fill: #ec8431;"></path><path d="M224.88235294117646,428.94642857142856h12v0h-12Z" style="fill: #ec8431;"></path><path d="M239.00000000000003,435.0535714285714h12v0h-12Z" style="fill: #ec8431;"></path><path d="M253.11764705882354,433.125h12v0.1607142857142776h-12Z" style="fill: #ec8431;"></path><path d="M267.2352941176471,437.94642857142856h12v0.1607142857142776h-12Z" style="fill: #ec8431;"></path><path d="M281.3529411764706,435.0535714285714h12v0h-12Z" style="fill: #ec8431;"></path><path d="M295.4705882352941,437.3035714285714h12v0h-12Z" style="fill: #ec8431;"></path><path d="M309.5882352941176,443.89285714285717h12v0.3214285714285552h-12Z" style="fill: #ec8431;"></path><path d="M323.70588235294116,444.05357142857144h12v0h-12Z" style="fill: #ec8431;"></path><path d="M337.82352941176475,434.7321428571429h12v0h-12Z" style="fill: #ec8431;"></path><path d="M351.94117647058823,441h12v0h-12Z" style="fill: #ec8431;"></path><path d="M366.05882352941177,442.44642857142856h12v0h-12Z" style="fill: #ec8431;"></path><path d="M380.1764705882353,443.5714285714286h12v0.6428571428571104h-12Z" style="fill: #ec8431;"></path><path d="M394.29411764705884,441.3214285714286h12v0.4821428571428328h-12Z" style="fill: #ec8431;"></path><path d="M408.4117647058824,446.14285714285717h12v0h-12Z" style="fill: #ec8431;"></path><path d="M422.52941176470586,444.69642857142856h12v4.178571428571445h-12Z" style="fill: #ec8431;"></path><path d="M436.64705882352945,444.375h12v0.4821428571428328h-12Z" style="fill: #ec8431;"></path><path d="M450.7647058823529,439.39285714285717h12v0.4821428571428328h-12Z" style="fill: #ec8431;"></path><path d="M464.88235294117646,441.1607142857143h12v0h-12Z" style="fill: #ec8431;"></path><path d="M478.99999999999994,409.5h12v0.4821428571428328h-12Z" style="fill: #ec8431;"></path><path d="M493.11764705882354,408.53571428571433h12v0.48214285714277594h-12Z" style="fill: #ec8431;"></path><path d="M507.2352941176471,428.625h12v2.571428571428555h-12Z" style="fill: #ec8431;"></path><path d="M535.4705882352941,440.0357142857143h12v1.928571428571388h-12Z" style="fill: #ec8431;"></path><path d="M549.5882352941177,433.125h12v4.01785714285711h-12Z" style="fill: #ec8431;"></path><path d="M563.7058823529412,420.26785714285717h12v19.76785714285711h-12Z" style="fill: #ec8431;"></path><path d="M577.8235294117646,411.75h12v24.428571428571445h-12Z" style="fill: #ec8431;"></path><path d="M591.9411764705883,394.875h12v42.26785714285711h-12Z" style="fill: #ec8431;"></path><path d="M606.0588235294117,409.1785714285714h12v35.83928571428572h-12Z" style="fill: #ec8431;"></path><path d="M620.1764705882352,353.4107142857143h12v81.48214285714283h-12Z" style="fill: #ec8431;"></path><path d="M634.2941176470589,321.42857142857144h12v116.83928571428572h-12Z" style="fill: #ec8431;"></path><path d="M648.4117647058823,265.9821428571429h12v167.3035714285714h-12Z" style="fill: #ec8431;"></path><path d="M662.5294117647059,205.71428571428572h12v231.75h-12Z" style="fill: #ec8431;"></path><path d="M676.6470588235294,176.14285714285717h12v273.0535714285714h-12Z" style="fill: #ec8431;"></path><path d="M690.7647058823529,209.41071428571425h12v214.3928571428572h-12Z" style="fill: #ec8431;"></path><path d="M704.8823529411765,215.67857142857144h12v223.55357142857144h-12Z" style="fill: #ec8431;"></path><path d="M718.4117647058823,14.142857142857162h12v431.19642857142856h-12Z" style="fill: #ec8431;"></path><path d="M732.529411764706,34.232142857142854h12v401.4642857142857h-12Z" style="fill: #ec8431;"></path><path d="M746.6470588235294,45.64285714285714h12v396.96428571428567h-12Z" style="fill: #ec8431;"></path><path d="M760.7647058823529,164.25h12v285.75h-12Z" style="fill: #ec8431;"></path><path d="M774.8823529411765,416.0892857142857h12v33.91071428571428h-12Z" style="fill: #ec8431;"></path><path d="M789,450h12v0h-12Z" style="fill: #ec8431;"></path><path d="M-1,449.35714285714283h12v0.6428571428571672h-12Z" style="fill: #3580b1;"></path><path d="M13.117647058823529,450h12v0h-12Z" style="fill: #3580b1;"></path><path d="M27.235294117647058,448.875h12v1.125h-12Z" style="fill: #3580b1;"></path><path d="M41.35294117647059,449.5178571428571h12v0.4821428571428896h-12Z" style="fill: #3580b1;"></path><path d="M55.47058823529412,448.39285714285717h12v1.6071428571428328h-12Z" style="fill: #3580b1;"></path><path d="M69.58823529411765,444.2142857142857h12v5.785714285714278h-12Z" style="fill: #3580b1;"></path><path d="M83.70588235294117,441.4821428571429h12v8.51785714285711h-12Z" style="fill: #3580b1;"></path><path d="M97.82352941176471,433.76785714285717h12v16.232142857142833h-12Z" style="fill: #3580b1;"></path><path d="M111.94117647058823,437.3035714285714h12v12.696428571428612h-12Z" style="fill: #3580b1;"></path><path d="M126.05882352941177,437.625h12v12.375h-12Z" style="fill: #3580b1;"></path><path d="M140.17647058823528,439.5535714285714h12v10.446428571428612h-12Z" style="fill: #3580b1;"></path><path d="M154.29411764705884,433.60714285714283h12v16.392857142857167h-12Z" style="fill: #3580b1;"></path><path d="M168.41176470588235,408.8571428571429h12v41.14285714285711h-12Z" style="fill: #3580b1;"></path><path d="M182.52941176470588,439.875h12v10.125h-12Z" style="fill: #3580b1;"></path><path d="M196.6470588235294,400.1785714285714h12v49.82142857142861h-12Z" style="fill: #3580b1;"></path><path d="M210.76470588235293,444.69642857142856h12v5.303571428571445h-12Z" style="fill: #3580b1;"></path><path d="M224.88235294117646,428.94642857142856h12v21.053571428571445h-12Z" style="fill: #3580b1;"></path><path d="M239.00000000000003,435.0535714285714h12v14.946428571428612h-12Z" style="fill: #3580b1;"></path><path d="M253.11764705882354,433.2857142857143h12v16.714285714285722h-12Z" style="fill: #3580b1;"></path><path d="M267.2352941176471,438.10714285714283h12v11.892857142857167h-12Z" style="fill: #3580b1;"></path><path d="M281.3529411764706,435.0535714285714h12v14.946428571428612h-12Z" style="fill: #3580b1;"></path><path d="M295.4705882352941,437.3035714285714h12v12.696428571428612h-12Z" style="fill: #3580b1;"></path><path d="M309.5882352941176,444.2142857142857h12v5.785714285714278h-12Z" style="fill: #3580b1;"></path><path d="M323.70588235294116,444.05357142857144h12v5.946428571428555h-12Z" style="fill: #3580b1;"></path><path d="M337.82352941176475,434.7321428571429h12v15.26785714285711h-12Z" style="fill: #3580b1;"></path><path d="M351.94117647058823,441h12v9h-12Z" style="fill: #3580b1;"></path><path d="M366.05882352941177,442.44642857142856h12v7.553571428571445h-12Z" style="fill: #3580b1;"></path><path d="M380.1764705882353,444.2142857142857h12v5.785714285714278h-12Z" style="fill: #3580b1;"></path><path d="M394.29411764705884,441.80357142857144h12v8.196428571428555h-12Z" style="fill: #3580b1;"></path><path d="M408.4117647058824,446.14285714285717h12v3.857142857142833h-12Z" style="fill: #3580b1;"></path><path d="M422.52941176470586,448.875h12v1.125h-12Z" style="fill: #3580b1;"></path><path d="M436.64705882352945,444.85714285714283h12v5.142857142857167h-12Z" style="fill: #3580b1;"></path><path d="M450.7647058823529,439.875h12v10.125h-12Z" style="fill: #3580b1;"></path><path d="M464.88235294117646,441.1607142857143h12v8.839285714285722h-12Z" style="fill: #3580b1;"></path><path d="M478.99999999999994,409.98214285714283h12v40.01785714285717h-12Z" style="fill: #3580b1;"></path><path d="M493.11764705882354,409.0178571428571h12v40.98214285714289h-12Z" style="fill: #3580b1;"></path><path d="M507.2352941176471,431.19642857142856h12v18.803571428571445h-12Z" style="fill: #3580b1;"></path><path d="M535.4705882352941,441.96428571428567h12v8.035714285714334h-12Z" style="fill: #3580b1;"></path><path d="M549.5882352941177,437.1428571428571h12v12.85714285714289h-12Z" style="fill: #3580b1;"></path><path d="M563.7058823529412,440.0357142857143h12v9.964285714285722h-12Z" style="fill: #3580b1;"></path><path d="M577.8235294117646,436.17857142857144h12v13.821428571428555h-12Z" style="fill: #3580b1;"></path><path d="M591.9411764705883,437.1428571428571h12v12.85714285714289h-12Z" style="fill: #3580b1;"></path><path d="M606.0588235294117,445.0178571428571h12v4.98214285714289h-12Z" style="fill: #3580b1;"></path><path d="M620.1764705882352,434.8928571428571h12v15.10714285714289h-12Z" style="fill: #3580b1;"></path><path d="M634.2941176470589,438.26785714285717h12v11.732142857142833h-12Z" style="fill: #3580b1;"></path><path d="M648.4117647058823,433.2857142857143h12v16.714285714285722h-12Z" style="fill: #3580b1;"></path><path d="M662.5294117647059,437.4642857142857h12v12.535714285714278h-12Z" style="fill: #3580b1;"></path><path d="M676.6470588235294,449.19642857142856h12v0.8035714285714448h-12Z" style="fill: #3580b1;"></path><path d="M690.7647058823529,423.80357142857144h12v26.196428571428555h-12Z" style="fill: #3580b1;"></path><path d="M704.8823529411765,439.2321428571429h12v10.76785714285711h-12Z" style="fill: #3580b1;"></path><path d="M718.4117647058823,445.3392857142857h12v4.660714285714278h-12Z" style="fill: #3580b1;"></path><path d="M732.529411764706,435.69642857142856h12v14.303571428571445h-12Z" style="fill: #3580b1;"></path><path d="M746.6470588235294,442.60714285714283h12v7.392857142857167h-12Z" style="fill: #3580b1;"></path><path d="M760.7647058823529,450h12v0h-12Z" style="fill: #3580b1;"></path><path d="M774.8823529411765,450h12v0h-12Z" style="fill: #3580b1;"></path><path d="M789,450h12v0h-12Z" style="fill: #3580b1;"></path></g><g class="mark-group role-legend"><g transform="translate(0,-30)"><path class="background" d="M0,0h215v12h-215Z" style="pointer-events: none; fill: none;"></path><g><g class="mark-group role-legend-entry"><g transform="translate(0,0)"><path class="background" d="M0,0h0v0h0Z" style="pointer-events: none; fill: none;"></path><g><g class="mark-group role-scope"><g transform="translate(0,0.25)"><path class="background" d="M0,0h68.98043823242188v11.5h-68.98043823242188Z" style="pointer-events: none; fill: none; opacity: 1;"></path><g><g class="mark-symbol role-legend-symbol" style="pointer-events: none;"><path transform="translate(6,6)" d="M-5,-5h10v10h-10Z" style="fill: #3580b1; stroke-width: 1.5; opacity: 1;"></path></g><g class="mark-text role-legend-label" style="pointer-events: none;"><text text-anchor="start" transform="translate(16,9)" style="font-family: Benton Gothic, sans; font-size: 11.5px; fill: #000; opacity: 1;">CDC Labs</text></g></g><path class="foreground" d="" style="pointer-events: none; display: none; fill: none;"></path></g><g transform="translate(79,0.25)"><path class="background" d="M0,0h135.54232788085938v11.5h-135.54232788085938Z" style="pointer-events: none; fill: none; opacity: 1;"></path><g><g class="mark-symbol role-legend-symbol" style="pointer-events: none;"><path transform="translate(6,6)" d="M-5,-5h10v10h-10Z" style="fill: #ec8431; stroke-width: 1.5; opacity: 1;"></path></g><g class="mark-text role-legend-label" style="pointer-events: none;"><text text-anchor="start" transform="translate(16,9)" style="font-family: Benton Gothic, sans; font-size: 11.5px; fill: #000; opacity: 1;">US Public Health Labs</text></g></g><path class="foreground" d="" style="pointer-events: none; display: none; fill: none;"></path></g></g></g><path class="foreground" d="" style="pointer-events: none; display: none; fill: none;"></path></g></g></g><path class="foreground" d="" style="pointer-events: none; display: none; fill: none;"></path></g></g><g class="mark-group role-title"><g transform="translate(-45,-71)"><path class="background" d="M0,0h0v0h0Z" style="pointer-events: none; fill: none;"></path><g><g class="mark-text role-title-text" style="pointer-events: none;"><text text-anchor="start" transform="translate(0,17)" style="font-family: Benton Gothic Bold, sans; font-size: 22px; font-weight: normal; fill: black; opacity: 1;">CDC: Daily U.S. coronavirus specimens tested, by lab type</text></g><g class="mark-text role-title-subtitle" style="pointer-events: none;"><text text-anchor="start" transform="translate(0,34)" style="font-family: sans-serif; font-size: 12px; fill: gray; opacity: 1;">Figures from last four days reported as 'pending'</text></g></g><path class="foreground" d="" style="pointer-events: none; display: none; fill: none;"></path></g></g></g><path class="foreground" d="" style="display: none; fill: none;"></path></g></g></g></svg>