<svg class="marks" width="857" height="568" viewBox="0 0 857 568" version="1.1" xmlns="http://www.w3.org/2000/svg" xmlns:xlink="http://www.w3.org/1999/xlink"><rect width="857" height="568" style="fill: #ffffff;"></rect><g transform="translate(50,77)"><g class="mark-group role-frame root"><g transform="translate(0,0)"><path class="background" d="M0.5,0.5h800v450h-800Z" style="fill: none; stroke: #ddd;"></path><g><g class="mark-group role-axis"><g transform="translate(0.5,450.5)"><path class="background" d="M0,0h0v0h0Z" style="pointer-events: none; fill: none;"></path><g><g class="mark-rule role-axis-grid" style="pointer-events: none;"><line transform="translate(20,-450)" x2="0" y2="450" style="fill: none; stroke: #ddd; stroke-width: 1; opacity: 1;"></line><line transform="translate(127,-450)" x2="0" y2="450" style="fill: none; stroke: #ddd; stroke-width: 1; opacity: 1;"></line><line transform="translate(233,-450)" x2="0" y2="450" style="fill: none; stroke: #ddd; stroke-width: 1; opacity: 1;"></line><line transform="translate(339,-450)" x2="0" y2="450" style="fill: none; stroke: #ddd; stroke-width: 1; opacity: 1;"></line><line transform="translate(446,-450)" x2="0" y2="450" style="fill: none; stroke: #ddd; stroke-width: 1; opacity: 1;"></line><line transform="translate(552,-450)" x2="0" y2="450" style="fill: none; stroke: #ddd; stroke-width: 1; opacity: 1;"></line><line transform="translate(659,-450)" x2="0" y2="450" style="fill: none; stroke: #ddd; stroke-width: 1; opacity: 1;"></line><line transform="translate(765,-450)" x2="0" y2="450" style="fill: none; stroke: #ddd; stroke-width: 1; opacity: 1;"></line></g></g><path class="foreground" d="" style="pointer-events: none; display: none; fill: none;"></path></g></g><g class="mark-group role-axis"><g transform="translate(0.5,0.5)"><path class="background" d="M0,0h0v0h0Z" style="pointer-events: none; fill: none;"></path><g><g class="mark-rule role-axis-grid" style="pointer-events: none;"><line transform="translate(0,450)" x2="800" y2="0" style="fill: none; stroke: #ddd; stroke-width: 1; opacity: 1;"></line><line transform="translate(0,418)" x2="800" y2="0" style="fill: none; stroke: #ddd; stroke-width: 1; opacity: 1;"></line><line transform="translate(0,386)" x2="800" y2="0" style="fill: none; stroke: #ddd; stroke-width: 1; opacity: 1;"></line><line transform="translate(0,354)" x2="800" y2="0" style="fill: none; stroke: #ddd; stroke-width: 1; opacity: 1;"></line><line transform="translate(0,321)" x2="800" y2="0" style="fill: none; stroke: #ddd; stroke-width: 1; opacity: 1;"></line><line transform="translate(0,289)" x2="800" y2="0" style="fill: none; stroke: #ddd; stroke-width: 1; opacity: 1;"></line><line transform="translate(0,257)" x2="800" y2="0" style="fill: none; stroke: #ddd; stroke-width: 1; opacity: 1;"></line><line transform="translate(0,225)" x2="800" y2="0" style="fill: none; stroke: #ddd; stroke-width: 1; opacity: 1;"></line><line transform="translate(0,193)" x2="800" y2="0" style="fill: none; stroke: #ddd; stroke-width: 1; opacity: 1;"></line><line transform="translate(0,161)" x2="800" y2="0" style="fill: none; stroke: #ddd; stroke-width: 1; opacity: 1;"></line><line transform="translate(0,129)" x2="800" y2="0" style="fill: none; stroke: #ddd; stroke-width: 1; opacity: 1;"></line><line transform="translate(0,96)" x2="800" y2="0" style="fill: none; stroke: #ddd; stroke-width: 1; opacity: 1;"></line><line transform="translate(0,64)" x2="800" y2="0" style="fill: none; stroke: #ddd; stroke-width: 1; opacity: 1;"></line><line transform="translate(0,32)" x2="800" y2="0" style="fill: none; stroke: #ddd; stroke-width: 1; opacity: 1;"></line><line transform="translate(0,0)" x2="800" y2="0" style="fill: none; stroke: #ddd; stroke-width: 1; opacity: 1;"></line></g></g><path class="foreground" d="" style="pointer-events: none; display: none; fill: none;"></path></g></g><g class="mark-group role-axis"><g transform="translate(0.5,450.5)"><path class="background" d="M0,0h0v0h0Z" style="pointer-events: none; fill: none;"></path><g><g class="mark-rule role-axis-tick" style="pointer-events: none;"><line transform="translate(20,0)" x2="0" y2="3" style="fill: none; stroke: #888; stroke-width: 1; opacity: 1;"></line><line transform="translate(127,0)" x2="0" y2="3" style="fill: none; stroke: #888; stroke-width: 1; opacity: 1;"></line><line transform="translate(233,0)" x2="0" y2="3" style="fill: none; stroke: #888; stroke-width: 1; opacity: 1;"></line><line transform="translate(339,0)" x2="0" y2="3" style="fill: none; stroke: #888; stroke-width: 1; opacity: 1;"></line><line transform="translate(446,0)" x2="0" y2="3" style="fill: none; stroke: #888; stroke-width: 1; opacity: 1;"></line><line transform="translate(552,0)" x2="0" y2="3" style="fill: none; stroke: #888; stroke-width: 1; opacity: 1;"></line><line transform="translate(659,0)" x2="0" y2="3" style="fill: none; stroke: #888; stroke-width: 1; opacity: 1;"></line><line transform="translate(765,0)" x2="0" y2="3" style="fill: none; stroke: #888; stroke-width: 1; opacity: 1;"></line></g><g class="mark-text role-axis-label" style="pointer-events: none;"><text text-anchor="middle" transform="translate(20.20449091132943,16)" style="font-family: Benton Gothic, sans; font-size: 11.5px; font-weight: normal; fill: #000; opacity: 1;">Jan 19</text><text text-anchor="middle" transform="translate(126.63592634365438,16)" style="font-family: Benton Gothic, sans; font-size: 11.5px; font-weight: normal; fill: #000; opacity: 1;">Jan 26</text><text text-anchor="middle" transform="translate(233.06736177597932,16)" style="font-family: Benton Gothic, sans; font-size: 11.5px; font-weight: normal; fill: #000; opacity: 1;">Feb 02</text><text text-anchor="middle" transform="translate(339.49879720830427,16)" style="font-family: Benton Gothic, sans; font-size: 11.5px; font-weight: normal; fill: #000; opacity: 1;">Feb 09</text><text text-anchor="middle" transform="translate(445.93023264062913,16)" style="font-family: Benton Gothic, sans; font-size: 11.5px; font-weight: normal; fill: #000; opacity: 1;">Feb 16</text><text text-anchor="middle" transform="translate(552.3616680729541,16)" style="font-family: Benton Gothic, sans; font-size: 11.5px; font-weight: normal; fill: #000; opacity: 1;">Feb 23</text><text text-anchor="middle" transform="translate(658.7931035052791,16)" style="font-family: Benton Gothic, sans; font-size: 11.5px; font-weight: normal; fill: #000; opacity: 1;">March</text><text text-anchor="middle" transform="translate(765.2245389376039,16)" style="font-family: Benton Gothic, sans; font-size: 11.5px; font-weight: normal; fill: #000; opacity: 1;">Mar 08</text></g><g class="mark-rule role-axis-domain" style="pointer-events: none;"><line transform="translate(0,0)" x2="800" y2="0" style="fill: none; stroke: #888; stroke-width: 1; opacity: 1;"></line></g><g class="mark-text role-axis-title" style="pointer-events: none;"><text text-anchor="middle" transform="translate(400,32.5)" style="font-family: Benton Gothic Bold, sans; font-size: 13px; font-weight: normal; fill: #000; opacity: 1;">Date</text></g></g><path class="foreground" d="" style="pointer-events: none; display: none; fill: none;"></path></g></g><g class="mark-group role-axis"><g transform="translate(0.5,0.5)"><path class="background" d="M0,0h0v0h0Z" style="pointer-events: none; fill: none;"></path><g><g class="mark-rule role-axis-tick" style="pointer-events: none;"><line transform="translate(0,450)" x2="-2" y2="0" style="fill: none; stroke: #888; stroke-width: 1; opacity: 1;"></line><line transform="translate(0,418)" x2="-2" y2="0" style="fill: none; stroke: #888; stroke-width: 1; opacity: 1;"></line><line transform="translate(0,386)" x2="-2" y2="0" style="fill: none; stroke: #888; stroke-width: 1; opacity: 1;"></line><line transform="translate(0,354)" x2="-2" y2="0" style="fill: none; stroke: #888; stroke-width: 1; opacity: 1;"></line><line transform="translate(0,321)" x2="-2" y2="0" style="fill: none; stroke: #888; stroke-width: 1; opacity: 1;"></line><line transform="translate(0,289)" x2="-2" y2="0" style="fill: none; stroke: #888; stroke-width: 1; opacity: 1;"></line><line transform="translate(0,257)" x2="-2" y2="0" style="fill: none; stroke: #888; stroke-width: 1; opacity: 1;"></line><line transform="translate(0,225)" x2="-2" y2="0" style="fill: none; stroke: #888; stroke-width: 1; opacity: 1;"></line><line transform="translate(0,193)" x2="-2" y2="0" style="fill: none; stroke: #888; stroke-width: 1; opacity: 1;"></line><line transform="translate(0,161)" x2="-2" y2="0" style="fill: none; stroke: #888; stroke-width: 1; opacity: 1;"></line><line transform="translate(0,129)" x2="-2" y2="0" style="fill: none; stroke: #888; stroke-width: 1; opacity: 1;"></line><line transform="translate(0,96)" x2="-2" y2="0" style="fill: none; stroke: #888; stroke-width: 1; opacity: 1;"></line><line transform="translate(0,64)" x2="-2" y2="0" style="fill: none; stroke: #888; stroke-width: 1; opacity: 1;"></line><line transform="translate(0,32)" x2="-2" y2="0" style="fill: none; stroke: #888; stroke-width: 1; opacity: 1;"></line><line transform="translate(0,0)" x2="-2" y2="0" style="fill: none; stroke: #888; stroke-width: 1; opacity: 1;"></line></g><g class="mark-text role-axis-label" style="pointer-events: none;"><text text-anchor="end" transform="translate(-4,453)" style="font-family: Benton Gothic, sans; font-size: 11.5px; font-weight: normal; fill: #000; opacity: 1;">0</text><text text-anchor="end" transform="translate(-4,420.8571428571429)" style="font-family: Benton Gothic, sans; font-size: 11.5px; font-weight: normal; fill: #000; opacity: 1;">200</text><text text-anchor="end" transform="translate(-4,388.7142857142857)" style="font-family: Benton Gothic, sans; font-size: 11.5px; font-weight: normal; fill: #000; opacity: 1;">400</text><text text-anchor="end" transform="translate(-4,356.57142857142856)" style="font-family: Benton Gothic, sans; font-size: 11.5px; font-weight: normal; fill: #000; opacity: 1;">600</text><text text-anchor="end" transform="translate(-4,324.42857142857144)" style="font-family: Benton Gothic, sans; font-size: 11.5px; font-weight: normal; fill: #000; opacity: 1;">800</text><text text-anchor="end" transform="translate(-4,292.2857142857143)" style="font-family: Benton Gothic, sans; font-size: 11.5px; font-weight: normal; fill: #000; opacity: 1;">1,000</text><text text-anchor="end" transform="translate(-4,260.1428571428571)" style="font-family: Benton Gothic, sans; font-size: 11.5px; font-weight: normal; fill: #000; opacity: 1;">1,200</text><text text-anchor="end" transform="translate(-4,228)" style="font-family: Benton Gothic, sans; font-size: 11.5px; font-weight: normal; fill: #000; opacity: 1;">1,400</text><text text-anchor="end" transform="translate(-4,195.85714285714286)" style="font-family: Benton Gothic, sans; font-size: 11.5px; font-weight: normal; fill: #000; opacity: 1;">1,600</text><text text-anchor="end" transform="translate(-4,163.7142857142857)" style="font-family: Benton Gothic, sans; font-size: 11.5px; font-weight: normal; fill: #000; opacity: 1;">1,800</text><text text-anchor="end" transform="translate(-4,131.57142857142856)" style="font-family: Benton Gothic, sans; font-size: 11.5px; font-weight: normal; fill: #000; opacity: 1;">2,000</text><text text-anchor="end" transform="translate(-4,99.42857142857143)" style="font-family: Benton Gothic, sans; font-size: 11.5px; font-weight: normal; fill: #000; opacity: 1;">2,200</text><text text-anchor="end" transform="translate(-4,67.2857142857143)" style="font-family: Benton Gothic, sans; font-size: 11.5px; font-weight: normal; fill: #000; opacity: 1;">2,400</text><text text-anchor="end" transform="translate(-4,35.14285714285713)" style="font-family: Benton Gothic, sans; font-size: 11.5px; font-weight: normal; fill: #000; opacity: 1;">2,600</text><text text-anchor="end" transform="translate(-4,3)" style="font-family: Benton Gothic, sans; font-size: 11.5px; font-weight: normal; fill: #000; opacity: 1;">2,800</text></g><g class="mark-rule role-axis-domain" style="pointer-events: none;"><line transform="translate(0,450)" x2="0" y2="-450" style="fill: none; stroke: #888; stroke-width: 1; opacity: 1;"></line></g></g><path class="foreground" d="" style="pointer-events: none; display: none; fill: none;"></path></g></g><g class="mark-rect role-mark marks"><path d="M-0.9999998647169868,449.35714285714283h12v0h-12Z" style="fill: #ec8431;"></path><path d="M14.20449091132943,450h12v0h-12Z" style="fill: #ec8431;"></path><path d="M29.40898168737585,448.875h12v0h-12Z" style="fill: #ec8431;"></path><path d="M44.61347246342227,449.5178571428571h12v0h-12Z" style="fill: #ec8431;"></path><path d="M59.817963239468696,448.39285714285717h12v0h-12Z" style="fill: #ec8431;"></path><path d="M75.02245401551511,444.2142857142857h12v0h-12Z" style="fill: #ec8431;"></path><path d="M90.22694479156154,441.4821428571429h12v0h-12Z" style="fill: #ec8431;"></path><path d="M105.43143556760795,433.76785714285717h12v0h-12Z" style="fill: #ec8431;"></path><path d="M120.63592634365438,437.3035714285714h12v0h-12Z" style="fill: #ec8431;"></path><path d="M135.8404171197008,437.625h12v0h-12Z" style="fill: #ec8431;"></path><path d="M151.0449078957472,439.5535714285714h12v0h-12Z" style="fill: #ec8431;"></path><path d="M166.24939867179364,433.60714285714283h12v0h-12Z" style="fill: #ec8431;"></path><path d="M181.45388944784006,408.8571428571429h12v0h-12Z" style="fill: #ec8431;"></path><path d="M196.65838022388647,439.875h12v0h-12Z" style="fill: #ec8431;"></path><path d="M211.86287099993288,400.1785714285714h12v0h-12Z" style="fill: #ec8431;"></path><path d="M227.06736177597932,444.69642857142856h12v0h-12Z" style="fill: #ec8431;"></path><path d="M242.27185255202573,428.94642857142856h12v0h-12Z" style="fill: #ec8431;"></path><path d="M257.4763433280722,435.0535714285714h12v0h-12Z" style="fill: #ec8431;"></path><path d="M272.68083410411856,433.125h12v0.1607142857142776h-12Z" style="fill: #ec8431;"></path><path d="M287.885324880165,437.94642857142856h12v0.1607142857142776h-12Z" style="fill: #ec8431;"></path><path d="M303.0898156562114,435.0535714285714h12v0h-12Z" style="fill: #ec8431;"></path><path d="M318.2943064322578,437.3035714285714h12v0h-12Z" style="fill: #ec8431;"></path><path d="M333.49879720830427,443.89285714285717h12v0.3214285714285552h-12Z" style="fill: #ec8431;"></path><path d="M348.70328798435065,444.05357142857144h12v0h-12Z" style="fill: #ec8431;"></path><path d="M363.9077787603971,434.7321428571429h12v0h-12Z" style="fill: #ec8431;"></path><path d="M379.11226953644353,441h12v0h-12Z" style="fill: #ec8431;"></path><path d="M394.31676031248986,442.44642857142856h12v0h-12Z" style="fill: #ec8431;"></path><path d="M409.5212510885363,443.5714285714286h12v0.6428571428571104h-12Z" style="fill: #ec8431;"></path><path d="M424.72574186458274,441.3214285714286h12v0.4821428571428328h-12Z" style="fill: #ec8431;"></path><path d="M439.93023264062913,446.14285714285717h12v0h-12Z" style="fill: #ec8431;"></path><path d="M455.13472341667557,444.69642857142856h12v4.178571428571445h-12Z" style="fill: #ec8431;"></path><path d="M470.339214192722,444.375h12v0.4821428571428328h-12Z" style="fill: #ec8431;"></path><path d="M485.5437049687684,439.39285714285717h12v0.4821428571428328h-12Z" style="fill: #ec8431;"></path><path d="M500.74819574481484,441.1607142857143h12v0h-12Z" style="fill: #ec8431;"></path><path d="M515.9526865208612,409.5h12v0.4821428571428328h-12Z" style="fill: #ec8431;"></path><path d="M531.1571772969077,408.53571428571433h12v0.48214285714277594h-12Z" style="fill: #ec8431;"></path><path d="M546.3616680729541,428.625h12v2.571428571428555h-12Z" style="fill: #ec8431;"></path><path d="M576.7706496250469,440.0357142857143h12v1.928571428571388h-12Z" style="fill: #ec8431;"></path><path d="M591.9751404010933,433.125h12v4.01785714285711h-12Z" style="fill: #ec8431;"></path><path d="M607.1796311771398,420.26785714285717h12v19.76785714285711h-12Z" style="fill: #ec8431;"></path><path d="M622.3841219531862,411.75h12v24.428571428571445h-12Z" style="fill: #ec8431;"></path><path d="M637.5886127292326,394.875h12v42.26785714285711h-12Z" style="fill: #ec8431;"></path><path d="M652.7931035052791,409.1785714285714h12v35.83928571428572h-12Z" style="fill: #ec8431;"></path><path d="M667.9975942813254,353.4107142857143h12v81.48214285714283h-12Z" style="fill: #ec8431;"></path><path d="M683.2020850573718,321.42857142857144h12v116.83928571428572h-12Z" style="fill: #ec8431;"></path><path d="M698.4065758334183,265.9821428571429h12v167.3035714285714h-12Z" style="fill: #ec8431;"></path><path d="M713.6110666094647,205.71428571428572h12v231.75h-12Z" style="fill: #ec8431;"></path><path d="M728.8155573855112,176.14285714285717h12v273.0535714285714h-12Z" style="fill: #ec8431;"></path><path d="M744.0200481615575,209.41071428571425h12v214.3928571428572h-12Z" style="fill: #ec8431;"></path><path d="M759.2245389376039,215.67857142857144h12v223.55357142857144h-12Z" style="fill: #ec8431;"></path><path d="M773.7955092646486,14.142857142857162h12v431.19642857142856h-12Z" style="fill: #ec8431;"></path><path d="M789.0000000406949,34.232142857142854h12v401.4642857142857h-12Z" style="fill: #ec8431;"></path><path d="M-0.9999998647169868,449.35714285714283h12v0.6428571428571672h-12Z" style="fill: #3580b1;"></path><path d="M14.20449091132943,450h12v0h-12Z" style="fill: #3580b1;"></path><path d="M29.40898168737585,448.875h12v1.125h-12Z" style="fill: #3580b1;"></path><path d="M44.61347246342227,449.5178571428571h12v0.4821428571428896h-12Z" style="fill: #3580b1;"></path><path d="M59.817963239468696,448.39285714285717h12v1.6071428571428328h-12Z" style="fill: #3580b1;"></path><path d="M75.02245401551511,444.2142857142857h12v5.785714285714278h-12Z" style="fill: #3580b1;"></path><path d="M90.22694479156154,441.4821428571429h12v8.51785714285711h-12Z" style="fill: #3580b1;"></path><path d="M105.43143556760795,433.76785714285717h12v16.232142857142833h-12Z" style="fill: #3580b1;"></path><path d="M120.63592634365438,437.3035714285714h12v12.696428571428612h-12Z" style="fill: #3580b1;"></path><path d="M135.8404171197008,437.625h12v12.375h-12Z" style="fill: #3580b1;"></path><path d="M151.0449078957472,439.5535714285714h12v10.446428571428612h-12Z" style="fill: #3580b1;"></path><path d="M166.24939867179364,433.60714285714283h12v16.392857142857167h-12Z" style="fill: #3580b1;"></path><path d="M181.45388944784006,408.8571428571429h12v41.14285714285711h-12Z" style="fill: #3580b1;"></path><path d="M196.65838022388647,439.875h12v10.125h-12Z" style="fill: #3580b1;"></path><path d="M211.86287099993288,400.1785714285714h12v49.82142857142861h-12Z" style="fill: #3580b1;"></path><path d="M227.06736177597932,444.69642857142856h12v5.303571428571445h-12Z" style="fill: #3580b1;"></path><path d="M242.27185255202573,428.94642857142856h12v21.053571428571445h-12Z" style="fill: #3580b1;"></path><path d="M257.4763433280722,435.0535714285714h12v14.946428571428612h-12Z" style="fill: #3580b1;"></path><path d="M272.68083410411856,433.2857142857143h12v16.714285714285722h-12Z" style="fill: #3580b1;"></path><path d="M287.885324880165,438.10714285714283h12v11.892857142857167h-12Z" style="fill: #3580b1;"></path><path d="M303.0898156562114,435.0535714285714h12v14.946428571428612h-12Z" style="fill: #3580b1;"></path><path d="M318.2943064322578,437.3035714285714h12v12.696428571428612h-12Z" style="fill: #3580b1;"></path><path d="M333.49879720830427,444.2142857142857h12v5.785714285714278h-12Z" style="fill: #3580b1;"></path><path d="M348.70328798435065,444.05357142857144h12v5.946428571428555h-12Z" style="fill: #3580b1;"></path><path d="M363.9077787603971,434.7321428571429h12v15.26785714285711h-12Z" style="fill: #3580b1;"></path><path d="M379.11226953644353,441h12v9h-12Z" style="fill: #3580b1;"></path><path d="M394.31676031248986,442.44642857142856h12v7.553571428571445h-12Z" style="fill: #3580b1;"></path><path d="M409.5212510885363,444.2142857142857h12v5.785714285714278h-12Z" style="fill: #3580b1;"></path><path d="M424.72574186458274,441.80357142857144h12v8.196428571428555h-12Z" style="fill: #3580b1;"></path><path d="M439.93023264062913,446.14285714285717h12v3.857142857142833h-12Z" style="fill: #3580b1;"></path><path d="M455.13472341667557,448.875h12v1.125h-12Z" style="fill: #3580b1;"></path><path d="M470.339214192722,444.85714285714283h12v5.142857142857167h-12Z" style="fill: #3580b1;"></path><path d="M485.5437049687684,439.875h12v10.125h-12Z" style="fill: #3580b1;"></path><path d="M500.74819574481484,441.1607142857143h12v8.839285714285722h-12Z" style="fill: #3580b1;"></path><path d="M515.9526865208612,409.98214285714283h12v40.01785714285717h-12Z" style="fill: #3580b1;"></path><path d="M531.1571772969077,409.0178571428571h12v40.98214285714289h-12Z" style="fill: #3580b1;"></path><path d="M546.3616680729541,431.19642857142856h12v18.803571428571445h-12Z" style="fill: #3580b1;"></path><path d="M576.7706496250469,441.96428571428567h12v8.035714285714334h-12Z" style="fill: #3580b1;"></path><path d="M591.9751404010933,437.1428571428571h12v12.85714285714289h-12Z" style="fill: #3580b1;"></path><path d="M607.1796311771398,440.0357142857143h12v9.964285714285722h-12Z" style="fill: #3580b1;"></path><path d="M622.3841219531862,436.17857142857144h12v13.821428571428555h-12Z" style="fill: #3580b1;"></path><path d="M637.5886127292326,437.1428571428571h12v12.85714285714289h-12Z" style="fill: #3580b1;"></path><path d="M652.7931035052791,445.0178571428571h12v4.98214285714289h-12Z" style="fill: #3580b1;"></path><path d="M667.9975942813254,434.8928571428571h12v15.10714285714289h-12Z" style="fill: #3580b1;"></path><path d="M683.2020850573718,438.26785714285717h12v11.732142857142833h-12Z" style="fill: #3580b1;"></path><path d="M698.4065758334183,433.2857142857143h12v16.714285714285722h-12Z" style="fill: #3580b1;"></path><path d="M713.6110666094647,437.4642857142857h12v12.535714285714278h-12Z" style="fill: #3580b1;"></path><path d="M728.8155573855112,449.19642857142856h12v0.8035714285714448h-12Z" style="fill: #3580b1;"></path><path d="M744.0200481615575,423.80357142857144h12v26.196428571428555h-12Z" style="fill: #3580b1;"></path><path d="M759.2245389376039,439.2321428571429h12v10.76785714285711h-12Z" style="fill: #3580b1;"></path><path d="M773.7955092646486,445.3392857142857h12v4.660714285714278h-12Z" style="fill: #3580b1;"></path><path d="M789.0000000406949,435.69642857142856h12v14.303571428571445h-12Z" style="fill: #3580b1;"></path></g><g class="mark-group role-legend"><g transform="translate(0,-30)"><path class="background" d="M0,0h215v12h-215Z" style="pointer-events: none; fill: none;"></path><g><g class="mark-group role-legend-entry"><g transform="translate(0,0)"><path class="background" d="M0,0h0v0h0Z" style="pointer-events: none; fill: none;"></path><g><g class="mark-group role-scope"><g transform="translate(0,0.25)"><path class="background" d="M0,0h68.98043823242188v11.5h-68.98043823242188Z" style="pointer-events: none; fill: none; opacity: 1;"></path><g><g class="mark-symbol role-legend-symbol" style="pointer-events: none;"><path transform="translate(6,6)" d="M-5,-5h10v10h-10Z" style="fill: #3580b1; stroke-width: 1.5; opacity: 1;"></path></g><g class="mark-text role-legend-label" style="pointer-events: none;"><text text-anchor="start" transform="translate(16,9)" style="font-family: Benton Gothic, sans; font-size: 11.5px; fill: #000; opacity: 1;">CDC Labs</text></g></g><path class="foreground" d="" style="pointer-events: none; display: none; fill: none;"></path></g><g transform="translate(79,0.25)"><path class="background" d="M0,0h135.54232788085938v11.5h-135.54232788085938Z" style="pointer-events: none; fill: none; opacity: 1;"></path><g><g class="mark-symbol role-legend-symbol" style="pointer-events: none;"><path transform="translate(6,6)" d="M-5,-5h10v10h-10Z" style="fill: #ec8431; stroke-width: 1.5; opacity: 1;"></path></g><g class="mark-text role-legend-label" style="pointer-events: none;"><text text-anchor="start" transform="translate(16,9)" style="font-family: Benton Gothic, sans; font-size: 11.5px; fill: #000; opacity: 1;">US Public Health Labs</text></g></g><path class="foreground" d="" style="pointer-events: none; display: none; fill: none;"></path></g></g></g><path class="foreground" d="" style="pointer-events: none; display: none; fill: none;"></path></g></g></g><path class="foreground" d="" style="pointer-events: none; display: none; fill: none;"></path></g></g><g class="mark-group role-title"><g transform="translate(-45,-71)"><path class="background" d="M0,0h0v0h0Z" style="pointer-events: none; fill: none;"></path><g><g class="mark-text role-title-text" style="pointer-events: none;"><text text-anchor="start" transform="translate(0,17)" style="font-family: Benton Gothic Bold, sans; font-size: 22px; font-weight: normal; fill: black; opacity: 1;">CDC: Daily U.S. coronavirus specimens tested, by lab type</text></g><g class="mark-text role-title-subtitle" style="pointer-events: none;"><text text-anchor="start" transform="translate(0,34)" style="font-family: sans-serif; font-size: 12px; fill: gray; opacity: 1;">March 8-12 figures reported as 'pending'</text></g></g><path class="foreground" d="" style="pointer-events: none; display: none; fill: none;"></path></g></g></g><path class="foreground" d="" style="display: none; fill: none;"></path></g></g></g></svg>