<svg class="marks" width="857" height="568" viewBox="0 0 857 568" version="1.1" xmlns="http://www.w3.org/2000/svg" xmlns:xlink="http://www.w3.org/1999/xlink"><rect width="857" height="568" style="fill: #ffffff;"></rect><g transform="translate(50,77)"><g class="mark-group role-frame root"><g transform="translate(0,0)"><path class="background" d="M0.5,0.5h800v450h-800Z" style="fill: none; stroke: #ddd;"></path><g><g class="mark-group role-axis"><g transform="translate(0.5,450.5)"><path class="background" d="M0,0h0v0h0Z" style="pointer-events: none; fill: none;"></path><g><g class="mark-rule role-axis-grid" style="pointer-events: none;"><line transform="translate(20,-450)" x2="0" y2="450" style="fill: none; stroke: #ddd; stroke-width: 1; opacity: 1;"></line><line transform="translate(122,-450)" x2="0" y2="450" style="fill: none; stroke: #ddd; stroke-width: 1; opacity: 1;"></line><line transform="translate(225,-450)" x2="0" y2="450" style="fill: none; stroke: #ddd; stroke-width: 1; opacity: 1;"></line><line transform="translate(327,-450)" x2="0" y2="450" style="fill: none; stroke: #ddd; stroke-width: 1; opacity: 1;"></line><line transform="translate(430,-450)" x2="0" y2="450" style="fill: none; stroke: #ddd; stroke-width: 1; opacity: 1;"></line><line transform="translate(532,-450)" x2="0" y2="450" style="fill: none; stroke: #ddd; stroke-width: 1; opacity: 1;"></line><line transform="translate(635,-450)" x2="0" y2="450" style="fill: none; stroke: #ddd; stroke-width: 1; opacity: 1;"></line><line transform="translate(737,-450)" x2="0" y2="450" style="fill: none; stroke: #ddd; stroke-width: 1; opacity: 1;"></line></g></g><path class="foreground" d="" style="pointer-events: none; display: none; fill: none;"></path></g></g><g class="mark-group role-axis"><g transform="translate(0.5,0.5)"><path class="background" d="M0,0h0v0h0Z" style="pointer-events: none; fill: none;"></path><g><g class="mark-rule role-axis-grid" style="pointer-events: none;"><line transform="translate(0,450)" x2="800" y2="0" style="fill: none; stroke: #ddd; stroke-width: 1; opacity: 1;"></line><line transform="translate(0,409)" x2="800" y2="0" style="fill: none; stroke: #ddd; stroke-width: 1; opacity: 1;"></line><line transform="translate(0,368)" x2="800" y2="0" style="fill: none; stroke: #ddd; stroke-width: 1; opacity: 1;"></line><line transform="translate(0,327)" x2="800" y2="0" style="fill: none; stroke: #ddd; stroke-width: 1; opacity: 1;"></line><line transform="translate(0,286)" x2="800" y2="0" style="fill: none; stroke: #ddd; stroke-width: 1; opacity: 1;"></line><line transform="translate(0,245)" x2="800" y2="0" style="fill: none; stroke: #ddd; stroke-width: 1; opacity: 1;"></line><line transform="translate(0,205)" x2="800" y2="0" style="fill: none; stroke: #ddd; stroke-width: 1; opacity: 1;"></line><line transform="translate(0,164)" x2="800" y2="0" style="fill: none; stroke: #ddd; stroke-width: 1; opacity: 1;"></line><line transform="translate(0,123)" x2="800" y2="0" style="fill: none; stroke: #ddd; stroke-width: 1; opacity: 1;"></line><line transform="translate(0,82)" x2="800" y2="0" style="fill: none; stroke: #ddd; stroke-width: 1; opacity: 1;"></line><line transform="translate(0,41)" x2="800" y2="0" style="fill: none; stroke: #ddd; stroke-width: 1; opacity: 1;"></line><line transform="translate(0,0)" x2="800" y2="0" style="fill: none; stroke: #ddd; stroke-width: 1; opacity: 1;"></line></g></g><path class="foreground" d="" style="pointer-events: none; display: none; fill: none;"></path></g></g><g class="mark-group role-axis"><g transform="translate(0.5,450.5)"><path class="background" d="M0,0h0v0h0Z" style="pointer-events: none; fill: none;"></path><g><g class="mark-rule role-axis-tick" style="pointer-events: none;"><line transform="translate(20,0)" x2="0" y2="3" style="fill: none; stroke: #888; stroke-width: 1; opacity: 1;"></line><line transform="translate(122,0)" x2="0" y2="3" style="fill: none; stroke: #888; stroke-width: 1; opacity: 1;"></line><line transform="translate(225,0)" x2="0" y2="3" style="fill: none; stroke: #888; stroke-width: 1; opacity: 1;"></line><line transform="translate(327,0)" x2="0" y2="3" style="fill: none; stroke: #888; stroke-width: 1; opacity: 1;"></line><line transform="translate(430,0)" x2="0" y2="3" style="fill: none; stroke: #888; stroke-width: 1; opacity: 1;"></line><line transform="translate(532,0)" x2="0" y2="3" style="fill: none; stroke: #888; stroke-width: 1; opacity: 1;"></line><line transform="translate(635,0)" x2="0" y2="3" style="fill: none; stroke: #888; stroke-width: 1; opacity: 1;"></line><line transform="translate(737,0)" x2="0" y2="3" style="fill: none; stroke: #888; stroke-width: 1; opacity: 1;"></line></g><g class="mark-text role-axis-label" style="pointer-events: none;"><text text-anchor="middle" transform="translate(19.64092678786439,16)" style="font-family: Benton Gothic, sans; font-size: 11.5px; font-weight: normal; fill: #000; opacity: 1;">Jan 19</text><text text-anchor="middle" transform="translate(122.12741325758856,16)" style="font-family: Benton Gothic, sans; font-size: 11.5px; font-weight: normal; fill: #000; opacity: 1;">Jan 26</text><text text-anchor="middle" transform="translate(224.61389972731274,16)" style="font-family: Benton Gothic, sans; font-size: 11.5px; font-weight: normal; fill: #000; opacity: 1;">Feb 02</text><text text-anchor="middle" transform="translate(327.10038619703687,16)" style="font-family: Benton Gothic, sans; font-size: 11.5px; font-weight: normal; fill: #000; opacity: 1;">Feb 09</text><text text-anchor="middle" transform="translate(429.586872666761,16)" style="font-family: Benton Gothic, sans; font-size: 11.5px; font-weight: normal; fill: #000; opacity: 1;">Feb 16</text><text text-anchor="middle" transform="translate(532.0733591364852,16)" style="font-family: Benton Gothic, sans; font-size: 11.5px; font-weight: normal; fill: #000; opacity: 1;">Feb 23</text><text text-anchor="middle" transform="translate(634.5598456062094,16)" style="font-family: Benton Gothic, sans; font-size: 11.5px; font-weight: normal; fill: #000; opacity: 1;">March</text><text text-anchor="middle" transform="translate(737.0463320759336,16)" style="font-family: Benton Gothic, sans; font-size: 11.5px; font-weight: normal; fill: #000; opacity: 1;">Mar 08</text></g><g class="mark-rule role-axis-domain" style="pointer-events: none;"><line transform="translate(0,0)" x2="800" y2="0" style="fill: none; stroke: #888; stroke-width: 1; opacity: 1;"></line></g><g class="mark-text role-axis-title" style="pointer-events: none;"><text text-anchor="middle" transform="translate(400,32.5)" style="font-family: Benton Gothic Bold, sans; font-size: 13px; font-weight: normal; fill: #000; opacity: 1;">Date</text></g></g><path class="foreground" d="" style="pointer-events: none; display: none; fill: none;"></path></g></g><g class="mark-group role-axis"><g transform="translate(0.5,0.5)"><path class="background" d="M0,0h0v0h0Z" style="pointer-events: none; fill: none;"></path><g><g class="mark-rule role-axis-tick" style="pointer-events: none;"><line transform="translate(0,450)" x2="-2" y2="0" style="fill: none; stroke: #888; stroke-width: 1; opacity: 1;"></line><line transform="translate(0,409)" x2="-2" y2="0" style="fill: none; stroke: #888; stroke-width: 1; opacity: 1;"></line><line transform="translate(0,368)" x2="-2" y2="0" style="fill: none; stroke: #888; stroke-width: 1; opacity: 1;"></line><line transform="translate(0,327)" x2="-2" y2="0" style="fill: none; stroke: #888; stroke-width: 1; opacity: 1;"></line><line transform="translate(0,286)" x2="-2" y2="0" style="fill: none; stroke: #888; stroke-width: 1; opacity: 1;"></line><line transform="translate(0,245)" x2="-2" y2="0" style="fill: none; stroke: #888; stroke-width: 1; opacity: 1;"></line><line transform="translate(0,205)" x2="-2" y2="0" style="fill: none; stroke: #888; stroke-width: 1; opacity: 1;"></line><line transform="translate(0,164)" x2="-2" y2="0" style="fill: none; stroke: #888; stroke-width: 1; opacity: 1;"></line><line transform="translate(0,123)" x2="-2" y2="0" style="fill: none; stroke: #888; stroke-width: 1; opacity: 1;"></line><line transform="translate(0,82)" x2="-2" y2="0" style="fill: none; stroke: #888; stroke-width: 1; opacity: 1;"></line><line transform="translate(0,41)" x2="-2" y2="0" style="fill: none; stroke: #888; stroke-width: 1; opacity: 1;"></line><line transform="translate(0,0)" x2="-2" y2="0" style="fill: none; stroke: #888; stroke-width: 1; opacity: 1;"></line></g><g class="mark-text role-axis-label" style="pointer-events: none;"><text text-anchor="end" transform="translate(-4,453)" style="font-family: Benton Gothic, sans; font-size: 11.5px; font-weight: normal; fill: #000; opacity: 1;">0</text><text text-anchor="end" transform="translate(-4,412.09090909090907)" style="font-family: Benton Gothic, sans; font-size: 11.5px; font-weight: normal; fill: #000; opacity: 1;">200</text><text text-anchor="end" transform="translate(-4,371.18181818181813)" style="font-family: Benton Gothic, sans; font-size: 11.5px; font-weight: normal; fill: #000; opacity: 1;">400</text><text text-anchor="end" transform="translate(-4,330.2727272727273)" style="font-family: Benton Gothic, sans; font-size: 11.5px; font-weight: normal; fill: #000; opacity: 1;">600</text><text text-anchor="end" transform="translate(-4,289.3636363636364)" style="font-family: Benton Gothic, sans; font-size: 11.5px; font-weight: normal; fill: #000; opacity: 1;">800</text><text text-anchor="end" transform="translate(-4,248.45454545454544)" style="font-family: Benton Gothic, sans; font-size: 11.5px; font-weight: normal; fill: #000; opacity: 1;">1,000</text><text text-anchor="end" transform="translate(-4,207.54545454545456)" style="font-family: Benton Gothic, sans; font-size: 11.5px; font-weight: normal; fill: #000; opacity: 1;">1,200</text><text text-anchor="end" transform="translate(-4,166.63636363636365)" style="font-family: Benton Gothic, sans; font-size: 11.5px; font-weight: normal; fill: #000; opacity: 1;">1,400</text><text text-anchor="end" transform="translate(-4,125.72727272727272)" style="font-family: Benton Gothic, sans; font-size: 11.5px; font-weight: normal; fill: #000; opacity: 1;">1,600</text><text text-anchor="end" transform="translate(-4,84.8181818181818)" style="font-family: Benton Gothic, sans; font-size: 11.5px; font-weight: normal; fill: #000; opacity: 1;">1,800</text><text text-anchor="end" transform="translate(-4,43.90909090909092)" style="font-family: Benton Gothic, sans; font-size: 11.5px; font-weight: normal; fill: #000; opacity: 1;">2,000</text><text text-anchor="end" transform="translate(-4,3)" style="font-family: Benton Gothic, sans; font-size: 11.5px; font-weight: normal; fill: #000; opacity: 1;">2,200</text></g><g class="mark-rule role-axis-domain" style="pointer-events: none;"><line transform="translate(0,450)" x2="0" y2="-450" style="fill: none; stroke: #888; stroke-width: 1; opacity: 1;"></line></g></g><path class="foreground" d="" style="pointer-events: none; display: none; fill: none;"></path></g></g><g class="mark-rect role-mark marks"><path d="M-0.9999998506676313,449.1818181818182h12v0h-12Z" style="fill: #ec8431;"></path><path d="M13.640926787864391,450h12v0h-12Z" style="fill: #ec8431;"></path><path d="M28.281853426396417,448.5681818181818h12v0h-12Z" style="fill: #ec8431;"></path><path d="M42.92278006492844,449.3863636363636h12v0h-12Z" style="fill: #ec8431;"></path><path d="M57.56370670346047,447.95454545454544h12v0h-12Z" style="fill: #ec8431;"></path><path d="M72.20463334199248,442.6363636363636h12v0h-12Z" style="fill: #ec8431;"></path><path d="M86.84555998052451,439.15909090909093h12v0h-12Z" style="fill: #ec8431;"></path><path d="M101.48648661905654,429.3409090909091h12v0h-12Z" style="fill: #ec8431;"></path><path d="M116.12741325758856,433.8409090909091h12v0h-12Z" style="fill: #ec8431;"></path><path d="M130.76833989612058,434.25h12v0h-12Z" style="fill: #ec8431;"></path><path d="M145.4092665346526,436.70454545454544h12v0h-12Z" style="fill: #ec8431;"></path><path d="M160.05019317318462,429.1363636363636h12v0h-12Z" style="fill: #ec8431;"></path><path d="M174.69111981171665,397.6363636363636h12v0h-12Z" style="fill: #ec8431;"></path><path d="M189.33204645024867,437.1136363636363h12v0h-12Z" style="fill: #ec8431;"></path><path d="M203.97297308878072,386.5909090909091h12v0h-12Z" style="fill: #ec8431;"></path><path d="M218.61389972731274,443.25h12v0h-12Z" style="fill: #ec8431;"></path><path d="M233.25482636584476,423.20454545454544h12v0h-12Z" style="fill: #ec8431;"></path><path d="M247.89575300437676,430.97727272727275h12v0h-12Z" style="fill: #ec8431;"></path><path d="M262.5366796429088,428.72727272727275h12v0h-12Z" style="fill: #ec8431;"></path><path d="M277.1776062814408,434.65909090909093h12v0.2045454545453822h-12Z" style="fill: #ec8431;"></path><path d="M291.8185329199728,430.97727272727275h12v0h-12Z" style="fill: #ec8431;"></path><path d="M306.4594595585049,433.8409090909091h12v0h-12Z" style="fill: #ec8431;"></path><path d="M321.10038619703687,442.2272727272727h12v0.40909090909093493h-12Z" style="fill: #ec8431;"></path><path d="M335.7413128355689,442.4318181818182h12v0h-12Z" style="fill: #ec8431;"></path><path d="M350.3822394741009,430.5681818181818h12v0h-12Z" style="fill: #ec8431;"></path><path d="M365.02316611263296,438.5454545454545h12v0h-12Z" style="fill: #ec8431;"></path><path d="M379.66409275116496,440.3863636363636h12v0h-12Z" style="fill: #ec8431;"></path><path d="M394.30501938969695,441.8181818181818h12v0.818181818181813h-12Z" style="fill: #ec8431;"></path><path d="M408.945946028229,438.95454545454544h12v0.613636363636374h-12Z" style="fill: #ec8431;"></path><path d="M423.586872666761,445.0909090909091h12v0h-12Z" style="fill: #ec8431;"></path><path d="M438.22779930529305,443.25h12v5.318181818181813h-12Z" style="fill: #ec8431;"></path><path d="M452.86872594382504,443.0454545454545h12v0.40909090909093493h-12Z" style="fill: #ec8431;"></path><path d="M467.5096525823571,436.5h12v0.6136363636363171h-12Z" style="fill: #ec8431;"></path><path d="M482.1505792208891,438.75h12v0h-12Z" style="fill: #ec8431;"></path><path d="M496.79150585942114,398.8636363636364h12v0.20454545454543904h-12Z" style="fill: #ec8431;"></path><path d="M511.4324324979532,397.2272727272727h12v0.613636363636374h-12Z" style="fill: #ec8431;"></path><path d="M526.0733591364852,435.8863636363636h12v0.40909090909093493h-12Z" style="fill: #ec8431;"></path><path d="M540.7142857750172,436.90909090909093h12v2.863636363636374h-12Z" style="fill: #ec8431;"></path><path d="M555.3552124135492,437.52272727272725h12v2.250000000000057h-12Z" style="fill: #ec8431;"></path><path d="M569.9961390520813,428.52272727272725h12v5.113636363636374h-12Z" style="fill: #ec8431;"></path><path d="M584.6370656906133,413.3863636363637h12v23.93181818181813h-12Z" style="fill: #ec8431;"></path><path d="M599.2779923291453,401.7272727272727h12v30.681818181818244h-12Z" style="fill: #ec8431;"></path><path d="M613.9189189676773,380.65909090909093h12v52.97727272727269h-12Z" style="fill: #ec8431;"></path><path d="M628.5598456062094,400.7045454545455h12v42.95454545454544h-12Z" style="fill: #ec8431;"></path><path d="M643.2007722447414,330.75h12v100.02272727272725h-12Z" style="fill: #ec8431;"></path><path d="M657.8416988832735,289.0227272727273h12v146.0454545454545h-12Z" style="fill: #ec8431;"></path><path d="M672.4826255218054,220.5h12v208.02272727272725h-12Z" style="fill: #ec8431;"></path><path d="M687.1235521603375,148.70454545454544h12v285.3409090909091h-12Z" style="fill: #ec8431;"></path><path d="M701.7644787988695,117.20454545454547h12v331.77272727272725h-12Z" style="fill: #ec8431;"></path><path d="M716.4054054374016,153.20454545454547h12v263.4545454545455h-12Z" style="fill: #ec8431;"></path><path d="M731.0463320759336,175.5h12v260.79545454545456h-12Z" style="fill: #ec8431;"></path><path d="M745.0772201045266,15.954545454545432h12v428.31818181818187h-12Z" style="fill: #ec8431;"></path><path d="M759.7181467430587,161.38636363636363h12v283.9090909090909h-12Z" style="fill: #ec8431;"></path><path d="M774.3590733815907,355.7045454545455h12v94.2954545454545h-12Z" style="fill: #ec8431;"></path><path d="M789.0000000201228,448.7727272727273h12v1.227272727272691h-12Z" style="fill: #ec8431;"></path><path d="M-0.9999998506676313,449.1818181818182h12v0.818181818181813h-12Z" style="fill: #3580b1;"></path><path d="M13.640926787864391,450h12v0h-12Z" style="fill: #3580b1;"></path><path d="M28.281853426396417,448.5681818181818h12v1.431818181818187h-12Z" style="fill: #3580b1;"></path><path d="M42.92278006492844,449.3863636363636h12v0.613636363636374h-12Z" style="fill: #3580b1;"></path><path d="M57.56370670346047,447.95454545454544h12v2.045454545454561h-12Z" style="fill: #3580b1;"></path><path d="M72.20463334199248,442.6363636363636h12v7.363636363636374h-12Z" style="fill: #3580b1;"></path><path d="M86.84555998052451,439.15909090909093h12v10.840909090909065h-12Z" style="fill: #3580b1;"></path><path d="M101.48648661905654,429.3409090909091h12v20.659090909090878h-12Z" style="fill: #3580b1;"></path><path d="M116.12741325758856,433.8409090909091h12v16.159090909090878h-12Z" style="fill: #3580b1;"></path><path d="M130.76833989612058,434.25h12v15.75h-12Z" style="fill: #3580b1;"></path><path d="M145.4092665346526,436.70454545454544h12v13.295454545454561h-12Z" style="fill: #3580b1;"></path><path d="M160.05019317318462,429.1363636363636h12v20.863636363636374h-12Z" style="fill: #3580b1;"></path><path d="M174.69111981171665,397.6363636363636h12v52.363636363636374h-12Z" style="fill: #3580b1;"></path><path d="M189.33204645024867,437.1136363636363h12v12.886363636363683h-12Z" style="fill: #3580b1;"></path><path d="M203.97297308878072,386.5909090909091h12v63.40909090909088h-12Z" style="fill: #3580b1;"></path><path d="M218.61389972731274,443.25h12v6.75h-12Z" style="fill: #3580b1;"></path><path d="M233.25482636584476,423.20454545454544h12v26.79545454545456h-12Z" style="fill: #3580b1;"></path><path d="M247.89575300437676,430.97727272727275h12v19.022727272727252h-12Z" style="fill: #3580b1;"></path><path d="M262.5366796429088,428.72727272727275h12v21.272727272727252h-12Z" style="fill: #3580b1;"></path><path d="M277.1776062814408,434.8636363636363h12v15.136363636363683h-12Z" style="fill: #3580b1;"></path><path d="M291.8185329199728,430.97727272727275h12v19.022727272727252h-12Z" style="fill: #3580b1;"></path><path d="M306.4594595585049,433.8409090909091h12v16.159090909090878h-12Z" style="fill: #3580b1;"></path><path d="M321.10038619703687,442.6363636363636h12v7.363636363636374h-12Z" style="fill: #3580b1;"></path><path d="M335.7413128355689,442.4318181818182h12v7.568181818181813h-12Z" style="fill: #3580b1;"></path><path d="M350.3822394741009,430.5681818181818h12v19.431818181818187h-12Z" style="fill: #3580b1;"></path><path d="M365.02316611263296,438.5454545454545h12v11.454545454545496h-12Z" style="fill: #3580b1;"></path><path d="M379.66409275116496,440.3863636363636h12v9.613636363636374h-12Z" style="fill: #3580b1;"></path><path d="M394.30501938969695,442.6363636363636h12v7.363636363636374h-12Z" style="fill: #3580b1;"></path><path d="M408.945946028229,439.5681818181818h12v10.431818181818187h-12Z" style="fill: #3580b1;"></path><path d="M423.586872666761,445.0909090909091h12v4.909090909090878h-12Z" style="fill: #3580b1;"></path><path d="M438.22779930529305,448.5681818181818h12v1.431818181818187h-12Z" style="fill: #3580b1;"></path><path d="M452.86872594382504,443.45454545454544h12v6.545454545454561h-12Z" style="fill: #3580b1;"></path><path d="M467.5096525823571,437.1136363636363h12v12.886363636363683h-12Z" style="fill: #3580b1;"></path><path d="M482.1505792208891,438.75h12v11.25h-12Z" style="fill: #3580b1;"></path><path d="M496.79150585942114,399.0681818181818h12v50.93181818181819h-12Z" style="fill: #3580b1;"></path><path d="M511.4324324979532,397.84090909090907h12v52.159090909090935h-12Z" style="fill: #3580b1;"></path><path d="M526.0733591364852,436.29545454545456h12v13.704545454545439h-12Z" style="fill: #3580b1;"></path><path d="M540.7142857750172,439.7727272727273h12v10.227272727272691h-12Z" style="fill: #3580b1;"></path><path d="M555.3552124135492,439.7727272727273h12v10.227272727272691h-12Z" style="fill: #3580b1;"></path><path d="M569.9961390520813,433.6363636363636h12v16.363636363636374h-12Z" style="fill: #3580b1;"></path><path d="M584.6370656906133,437.3181818181818h12v12.681818181818187h-12Z" style="fill: #3580b1;"></path><path d="M599.2779923291453,432.40909090909093h12v17.590909090909065h-12Z" style="fill: #3580b1;"></path><path d="M613.9189189676773,433.6363636363636h12v16.363636363636374h-12Z" style="fill: #3580b1;"></path><path d="M628.5598456062094,443.65909090909093h12v6.340909090909065h-12Z" style="fill: #3580b1;"></path><path d="M643.2007722447414,430.77272727272725h12v19.227272727272748h-12Z" style="fill: #3580b1;"></path><path d="M657.8416988832735,435.0681818181818h12v14.931818181818187h-12Z" style="fill: #3580b1;"></path><path d="M672.4826255218054,428.52272727272725h12v21.477272727272748h-12Z" style="fill: #3580b1;"></path><path d="M687.1235521603375,434.04545454545456h12v15.954545454545439h-12Z" style="fill: #3580b1;"></path><path d="M701.7644787988695,448.9772727272727h12v1.022727272727309h-12Z" style="fill: #3580b1;"></path><path d="M716.4054054374016,416.65909090909093h12v33.340909090909065h-12Z" style="fill: #3580b1;"></path><path d="M731.0463320759336,436.29545454545456h12v13.704545454545439h-12Z" style="fill: #3580b1;"></path><path d="M745.0772201045266,444.2727272727273h12v5.727272727272691h-12Z" style="fill: #3580b1;"></path><path d="M759.7181467430587,445.2954545454545h12v4.704545454545496h-12Z" style="fill: #3580b1;"></path><path d="M774.3590733815907,450h12v0h-12Z" style="fill: #3580b1;"></path><path d="M789.0000000201228,450h12v0h-12Z" style="fill: #3580b1;"></path></g><g class="mark-group role-legend"><g transform="translate(0,-30)"><path class="background" d="M0,0h215v12h-215Z" style="pointer-events: none; fill: none;"></path><g><g class="mark-group role-legend-entry"><g transform="translate(0,0)"><path class="background" d="M0,0h0v0h0Z" style="pointer-events: none; fill: none;"></path><g><g class="mark-group role-scope"><g transform="translate(0,0.25)"><path class="background" d="M0,0h68.98043823242188v11.5h-68.98043823242188Z" style="pointer-events: none; fill: none; opacity: 1;"></path><g><g class="mark-symbol role-legend-symbol" style="pointer-events: none;"><path transform="translate(6,6)" d="M-5,-5h10v10h-10Z" style="fill: #3580b1; stroke-width: 1.5; opacity: 1;"></path></g><g class="mark-text role-legend-label" style="pointer-events: none;"><text text-anchor="start" transform="translate(16,9)" style="font-family: Benton Gothic, sans; font-size: 11.5px; fill: #000; opacity: 1;">CDC Labs</text></g></g><path class="foreground" d="" style="pointer-events: none; display: none; fill: none;"></path></g><g transform="translate(79,0.25)"><path class="background" d="M0,0h135.54232788085938v11.5h-135.54232788085938Z" style="pointer-events: none; fill: none; opacity: 1;"></path><g><g class="mark-symbol role-legend-symbol" style="pointer-events: none;"><path transform="translate(6,6)" d="M-5,-5h10v10h-10Z" style="fill: #ec8431; stroke-width: 1.5; opacity: 1;"></path></g><g class="mark-text role-legend-label" style="pointer-events: none;"><text text-anchor="start" transform="translate(16,9)" style="font-family: Benton Gothic, sans; font-size: 11.5px; fill: #000; opacity: 1;">US Public Health Labs</text></g></g><path class="foreground" d="" style="pointer-events: none; display: none; fill: none;"></path></g></g></g><path class="foreground" d="" style="pointer-events: none; display: none; fill: none;"></path></g></g></g><path class="foreground" d="" style="pointer-events: none; display: none; fill: none;"></path></g></g><g class="mark-group role-title"><g transform="translate(-45,-71)"><path class="background" d="M0,0h0v0h0Z" style="pointer-events: none; fill: none;"></path><g><g class="mark-text role-title-text" style="pointer-events: none;"><text text-anchor="start" transform="translate(0,17)" style="font-family: Benton Gothic Bold, sans; font-size: 22px; font-weight: normal; fill: black; opacity: 1;">CDC: Daily U.S. coronavirus tests by lab type</text></g><g class="mark-text role-title-subtitle" style="pointer-events: none;"><text text-anchor="start" transform="translate(0,34)" style="font-family: sans-serif; font-size: 12px; fill: gray; opacity: 1;">March 8-12 figures reported as 'pending'</text></g></g><path class="foreground" d="" style="pointer-events: none; display: none; fill: none;"></path></g></g></g><path class="foreground" d="" style="display: none; fill: none;"></path></g></g></g></svg>